<?xml version="1.0" encoding="UTF-8" standalone="no"?>
<svg
   version="1.1"
   width="3403"
   height="1241"
   id="svg42"
   sodipodi:docname="meet@mensa_transparent.svg"
   inkscape:version="1.1 (c68e22c387, 2021-05-23)"
   xmlns:inkscape="http://www.inkscape.org/namespaces/inkscape"
   xmlns:sodipodi="http://sodipodi.sourceforge.net/DTD/sodipodi-0.dtd"
   xmlns="http://www.w3.org/2000/svg"
   xmlns:svg="http://www.w3.org/2000/svg">
  <defs
     id="defs46" />
  <sodipodi:namedview
     id="namedview44"
     pagecolor="#ffffff"
     bordercolor="#666666"
     borderopacity="1.0"
     inkscape:pageshadow="2"
     inkscape:pageopacity="0.0"
     inkscape:pagecheckerboard="0"
     showgrid="false"
     inkscape:zoom="0.43931825"
     inkscape:cx="1702.6381"
     inkscape:cy="621.41739"
     inkscape:window-width="3840"
     inkscape:window-height="2054"
     inkscape:window-x="-11"
     inkscape:window-y="-11"
     inkscape:window-maximized="1"
     inkscape:current-layer="svg42" />
  <path
     d="M0 0 C0 0.66 0 1.32 0 2 C0.5775 2.226875 1.155 2.45375 1.75 2.6875 C6.17452256 5.26847149 8.50216931 9.21081215 10 14 C10.16932485 16.84751683 10.22776074 19.58150429 10.1796875 22.42553711 C10.16831253 23.72360873 10.16831253 23.72360873 10.15670776 25.04790401 C10.02130216 36.69724623 9.63264603 48.34331714 9.25921631 59.98694038 C9.12071888 64.30586269 8.98792424 68.62495041 8.85595703 72.94407654 C8.50366222 84.450139 8.1464466 95.95604593 7.78152275 107.4617151 C7.16069406 127.04001688 6.57470247 146.61861538 6.09362793 166.20090485 C6.03275468 168.67092938 5.97041654 171.14091839 5.90637207 173.61086273 C5.74418798 179.91786884 5.61086446 186.22366018 5.53765869 192.53236198 C5.51300556 194.32935472 5.47835811 196.12624486 5.43255615 197.92282295 C5.04908355 209.90971885 5.04908355 209.90971885 10.4155426 220.38919067 C12.81065586 222.8241383 15.19311526 224.88552245 17.9375 226.9375 C30.50868409 236.83594779 35.73153139 250.04171473 37.75244141 265.62109375 C40.89426409 295.81233657 34.85535772 327.85945633 29.39550781 357.50854492 C28.92160874 360.07337452 28.92160874 360.07337452 29 363 C30.12921875 363.29390625 30.12921875 363.29390625 31.28125 363.59375 C55.05738215 370.2880008 74.58177792 384.06704975 87.19140625 405.6328125 C102.47455354 434.0865338 103.50517339 464.69563384 103.3225708 496.26049805 C103.30906454 499.43160437 103.31433055 502.60256931 103.31969929 505.77369118 C103.32306303 508.87095427 103.31636744 511.96813309 103.30657005 515.0653801 C103.30277402 516.52356906 103.30154601 517.98176746 103.3031559 519.43996048 C103.30526777 530.85137908 102.83052875 541.89272702 98.125 552.4375 C97.63257813 553.57058594 97.14015625 554.70367188 96.6328125 555.87109375 C91.9138425 564.91390469 83.80428672 570.1151304 74.27734375 573.30859375 C61.73617287 575.95434732 46.16038086 575.1191971 35.125 568.3125 C30.35969828 564.80446423 25.67227781 560.34455561 23 555 C22.59910156 555.58007812 22.19820312 556.16015625 21.78515625 556.7578125 C15.96366898 564.75740725 8.76749782 570.60549877 -1 573 C-18.18057223 575.59536304 -34.71783262 575.19008382 -49.5 565.02734375 C-61.6643554 555.1628118 -66.62992937 540.56185575 -68.27874756 525.44422913 C-68.88628541 519.11642236 -69.17287748 512.85147668 -69.203125 506.49609375 C-69.21167511 505.05194847 -69.21167511 505.05194847 -69.22039795 503.57862854 C-69.22977282 501.55430168 -69.23635167 499.52996008 -69.24023438 497.50561523 C-69.24989988 494.46895527 -69.28098008 491.43298517 -69.3125 488.39648438 C-69.39903807 472.51128367 -69.12793823 456.1254767 -61 442 C-60.33677734 440.82050781 -60.33677734 440.82050781 -59.66015625 439.6171875 C-52.91182746 428.58806289 -42.82225092 421.60635061 -30.49609375 417.96484375 C-10.91425708 413.50026805 9.50913646 415.04922132 26.8125 425.8125 C39.48231741 434.87541444 45.48886529 448.99114098 48 464 C48.73886094 468.61978369 49.12747936 473.04906671 49.1418457 477.72631836 C49.15239738 479.66884743 49.15239738 479.66884743 49.16316223 481.65061951 C49.16588607 482.67422986 49.16588607 482.67422986 49.16866493 483.71851921 C49.17590351 485.87628918 49.19162209 488.0338412 49.21000671 490.19154358 C49.26214311 496.32192064 49.31043869 502.45216942 49.32592773 508.58276367 C49.33605213 512.34528496 49.36547774 516.10724181 49.40724754 519.86953926 C49.41948856 521.2947111 49.42469151 522.71996282 49.42244911 524.14518547 C49.41299879 532.10835264 49.46810285 538.28263106 54 545 C58.25157785 547.83438524 62.00959059 547.637752 67 547 C70.42662506 545.14391143 71.62207245 543.91045758 73.10882568 540.32875061 C74.10349693 536.61341406 74.28124903 533.17832378 74.25878906 529.36499023 C74.2622937 528.62421738 74.26579834 527.88344452 74.26940918 527.120224 C74.27817511 524.68291711 74.27239136 522.24590337 74.265625 519.80859375 C74.26697413 518.09953252 74.26891672 516.39047167 74.27142334 514.68141174 C74.27436851 511.09966375 74.27010023 507.51801565 74.26074219 503.9362793 C74.24940855 499.37965294 74.25587212 494.82326383 74.26788712 490.26664639 C74.27517405 486.73440319 74.27278569 483.20221456 74.26763153 479.66996956 C74.26631068 477.99210646 74.26788694 476.31423817 74.27259064 474.63638115 C74.30074265 461.76091758 73.59799317 449.35379029 69.375 437.0625 C69.11630127 436.30453125 68.85760254 435.5465625 68.59106445 434.765625 C61.96639932 416.20018136 50.30694938 402.30756734 32.64160156 393.47729492 C9.70371897 382.63941978 -20.62851756 382.81619155 -44.62890625 390.1015625 C-62.94947288 396.68253081 -76.65722402 408.72073699 -85.25 426.25 C-92.75246557 443.49751597 -94.31789285 461.46262377 -94.3359375 480.01953125 C-94.34239272 481.61407073 -94.3491229 483.20860912 -94.35610962 484.80314636 C-94.36797786 488.12180318 -94.37180122 491.44035672 -94.37060547 494.7590332 C-94.37040252 498.95750575 -94.39772712 503.1552997 -94.43214989 507.35361195 C-94.45466392 510.64071034 -94.45843568 513.92765145 -94.45738602 517.21481895 C-94.4597045 518.760183 -94.46830831 520.30555402 -94.48405075 521.85083961 C-94.68012851 543.07604629 -89.80083624 563.21591033 -75.54296875 579.53515625 C-52.66913243 601.70626335 -22.29442771 601.27052422 7.5 601.625 C10.1732061 601.66226656 12.84636172 601.70231384 15.51953125 601.7421875 C22.01295618 601.83880387 28.5062863 601.91904163 35 602 C35 610.91 35 619.82 35 629 C27.5332042 629.04634563 20.06692363 629.08603805 12.60009766 629.10986328 C10.06915581 629.11981372 7.53822512 629.13337887 5.00732422 629.15087891 C-33.26340177 629.4085432 -33.26340177 629.4085432 -50.5 624.6875 C-51.3262085 624.4702124 -52.15241699 624.2529248 -53.00366211 624.02905273 C-59.59439353 622.23756682 -65.85978904 620.01149848 -72 617 C-72.92941406 616.54882812 -73.85882812 616.09765625 -74.81640625 615.6328125 C-81.54388008 612.17083014 -87.3170172 607.97973744 -93 603 C-93.68835937 602.40703125 -94.37671875 601.8140625 -95.0859375 601.203125 C-114.73024293 583.03408362 -122.06082303 553.73275295 -123.2119751 527.95294189 C-123.53030284 518.57083565 -123.43331581 509.18239058 -123.33294678 499.79724121 C-123.30539537 496.78599565 -123.29707724 493.77482665 -123.28938007 490.76347446 C-123.27936138 487.11441009 -123.25962888 483.46541955 -123.23828125 479.81640625 C-123.2348855 479.1432242 -123.23148975 478.47004215 -123.2279911 477.77646065 C-123.02255304 444.11193021 -115.99947274 410.73669571 -92.0625 385.6875 C-80.33073556 374.55265508 -65.37038127 367.56333759 -50 363 C-51.1817772 353.27096968 -52.46728022 343.56238612 -53.8527832 333.86035156 C-64.64488365 258.25724627 -64.64488365 258.25724627 -46.30859375 233.73828125 C-42.76475175 229.42153635 -38.82563237 226.16324507 -34.2109375 223.03125 C-30.1126412 219.26603078 -27.37884088 215.61878098 -26.56381226 209.98480225 C-26.42512625 206.07911942 -26.46697428 202.19413746 -26.5625 198.2890625 C-26.58305648 196.69945122 -26.60202811 195.10981887 -26.61962891 193.52017212 C-26.69910328 187.67884466 -26.84817351 181.83982869 -27 176 C-27.04474457 174.2235334 -27.04474457 174.2235334 -27.09039307 172.41117859 C-27.6197807 151.49960698 -28.26624237 130.59186981 -28.92709351 109.68411255 C-29.26450319 98.99758942 -29.59807204 88.31095263 -29.92386818 77.62406886 C-30.03297077 74.05276949 -30.14380643 70.48154389 -30.25921631 66.91044235 C-30.54874496 57.94110452 -30.79389394 48.97163991 -31 40 C-31.03331421 38.72951057 -31.06662842 37.45902115 -31.10095215 36.15003204 C-31.19142241 32.43157874 -31.25246894 28.7137942 -31.3046875 24.99462891 C-31.33490997 23.88497458 -31.36513245 22.77532024 -31.39627075 21.63204002 C-31.45795151 13.93283573 -30.29913436 9.59554096 -25 3.8203125 C-24.34 3.26085937 -23.68 2.70140625 -23 2.125 C-22.34 1.55007812 -21.68 0.97515625 -21 0.3828125 C-15.29263448 -3.56329569 -5.96435834 -3.18099111 0 0 Z "
     fill="#A3AE03"
     transform="translate(1457,225)"
     id="path4" />
  <path
     d="M0 0 C21.45 0 42.9 0 65 0 C71.77005348 23.69518717 71.77005348 23.69518717 74 33 C75.8268655 40.46647698 77.77602353 47.8735327 79.9375 55.25 C82.33838878 63.45093061 84.45902276 71.70248556 86.5 80 C89.39235681 91.75363856 92.59562346 103.3858592 96 115 C96.63204143 117.16462308 97.25854544 119.33088654 97.875 121.5 C98.09929687 122.2734375 98.32359375 123.046875 98.5546875 123.84375 C99.0568411 126.27523058 99.07846784 128.52390367 99 131 C100.32 131 101.64 131 103 131 C103.26039062 129.79601562 103.52078125 128.59203125 103.7890625 127.3515625 C105.2019232 120.99741393 106.79057594 114.6881512 108.375 108.375 C108.68953125 107.12025879 109.0040625 105.86551758 109.328125 104.57275391 C111.2952438 96.74796988 113.29629964 88.93659879 115.41503906 81.15136719 C116.74240727 76.26957727 118.05794861 71.38458119 119.375 66.5 C119.82613159 64.82756226 119.82613159 64.82756226 120.28637695 63.12133789 C122.79348807 53.80834878 125.23487084 44.47909804 127.66015625 35.14453125 C129.40796504 28.4209563 131.20254119 21.71051288 133 15 C134.32 10.05 135.64 5.1 137 0 C158.78 0 180.56 0 203 0 C203 100.65 203 201.3 203 305 C189.14 305 175.28 305 161 305 C161 222.17 161 139.34 161 54 C158.525 54.495 158.525 54.495 156 55 C151.76907436 70.02763427 147.54898136 85.05233607 143.671875 100.17578125 C140.85646394 111.12397261 137.88428322 122.00562173 134.68530273 132.84814453 C132.4818307 140.32036573 130.34612351 147.80946426 128.25 155.3125 C127.96842041 156.31974121 127.68684082 157.32698242 127.39672852 158.36474609 C125.77786854 164.17101214 124.1901561 169.9844034 122.63964844 175.80932617 C122 178 122 178 121 180 C107.8 180 94.6 180 81 180 C76 162 76 162 73.625 153.375 C71.98087201 147.4179553 70.26410813 141.48535284 68.51074219 135.55957031 C65.28557946 124.64664372 62.31247605 113.69012836 59.48925781 102.66650391 C57.84276378 96.23959586 56.16270338 89.82663362 54.375 83.4375 C54.17994873 82.74019775 53.98489746 82.04289551 53.78393555 81.32446289 C52.96202489 78.39750006 52.13419124 75.47225538 51.30322266 72.54785156 C50.82580739 70.86639305 50.3498741 69.18451298 49.87548828 67.50219727 C49.42811813 65.91576365 48.97744939 64.33025526 48.52294922 62.74584961 C47.67588997 59.73807142 47 57.1412961 47 54 C45.02 54 43.04 54 41 54 C41 136.83 41 219.66 41 305 C27.47 305 13.94 305 0 305 C0 204.35 0 103.7 0 0 Z "
     fill="#0165BD"
     transform="translate(1619,554)"
     id="path6" />
  <path
     d="M0 0 C21.45 0 42.9 0 65 0 C68.43584772 12.02546701 71.75417012 23.88324124 74.7265625 36 C75.98590954 41.03738817 77.41747916 46.01695754 78.875 51 C81.29401984 59.28482962 83.43864251 67.61937124 85.5 76 C87.77638336 85.24983763 90.17691911 94.43812458 92.86450195 103.57714844 C94.12058067 107.86075312 95.3064184 112.14682055 96.37890625 116.48046875 C96.71027588 117.80776001 96.71027588 117.80776001 97.04833984 119.16186523 C97.46462027 120.84749884 97.87044391 122.53576035 98.26416016 124.22680664 C98.74801168 126.17718811 99.3626341 128.09425477 100 130 C100.99 130.33 101.98 130.66 103 131 C103.11174561 130.40646729 103.22349121 129.81293457 103.33862305 129.20141602 C104.59427604 122.71103471 106.12590585 116.32828905 107.8125 109.9375 C108.07530762 108.93380371 108.33811523 107.93010742 108.60888672 106.89599609 C110.3643803 100.24800441 112.25665422 93.65330367 114.24536133 87.07202148 C115.89328481 81.54553787 117.21292607 75.97187495 118.48754883 70.34936523 C119.58796059 65.56674352 120.88004262 60.88044854 122.3125 56.1875 C125.38152687 46.09784717 127.82711373 35.85266611 130.35546875 25.6171875 C131.920759 19.28613949 133.56632576 12.98154675 135.2734375 6.6875 C135.87428104 4.46502496 136.44161956 2.23352178 137 0 C158.78 0 180.56 0 203 0 C203 100.65 203 201.3 203 305 C189.14 305 175.28 305 161 305 C161 222.17 161 139.34 161 54 C158.525 54.495 158.525 54.495 156 55 C155.82460693 55.69222656 155.64921387 56.38445313 155.46850586 57.09765625 C151.81294305 71.47833481 147.96917188 85.7751719 143.76171875 100.00390625 C137.82728525 120.09606037 132.45300619 140.34256813 127.19311523 160.61962891 C126.83262085 162.00674072 126.83262085 162.00674072 126.46484375 163.421875 C126.254646 164.23237305 126.04444824 165.04287109 125.82788086 165.87792969 C124.57778967 170.59222226 123.28328168 175.29463385 122 180 C108.47 180 94.94 180 81 180 C76.92236597 166.26919152 73.04299288 152.53171105 69.48608398 138.65771484 C66.63857443 127.55410777 63.63353963 116.5081655 60.3828125 105.515625 C57.13000042 94.50927181 54.01197234 83.48376329 51.125 72.375 C50.82674316 71.2310376 50.52848633 70.0870752 50.22119141 68.90844727 C48.94570754 63.94876873 47.79114594 59.06352084 47 54 C45.02 54 43.04 54 41 54 C41 136.83 41 219.66 41 305 C27.47 305 13.94 305 0 305 C0 204.35 0 103.7 0 0 Z "
     fill="#0165BD"
     transform="translate(292,554)"
     id="path8" />
  <path
     d="M0 0 C13.46160345 -0.12930035 26.91459966 0.01478391 40.37277222 0.31838989 C42.0596628 0.35562389 43.74661677 0.39010547 45.43362427 0.42160034 C59.44566682 0.68928426 73.28991564 1.62193865 87 4.75 C87.74072754 4.91846436 88.48145508 5.08692871 89.24462891 5.26049805 C110.94853057 10.44513938 132.12833115 21.29488751 144.35546875 40.63671875 C149.47606075 49.11350791 152.75391753 57.32086911 155 67 C155.26553177 68.01784073 155.53106354 69.03568146 155.80464172 70.08436584 C158.68596538 82.27703978 158.38001245 94.40402122 158.29296875 106.87109375 C158.2873624 109.24861888 158.28309722 111.62614751 158.28010559 114.00367737 C158.26873864 120.21291949 158.23934284 126.42194574 158.20599365 132.63110352 C158.17511569 138.9864612 158.16156262 145.3418543 158.14648438 151.69726562 C158.11446432 164.13160443 158.06336828 176.56578415 158 189 C159.62156006 189.09516151 159.62156006 189.09516151 161.27587891 189.19224548 C162.71777922 189.27902788 164.15967343 189.36591173 165.6015625 189.45288086 C166.66612671 189.51494846 166.66612671 189.51494846 167.75219727 189.57826996 C173.88022823 189.95126237 179.92632711 190.6691119 186 191.5625 C189.3 192.036875 192.6 192.51125 196 193 C196 205.21 196 217.42 196 230 C171.64281728 231.31596935 147.39670627 232.35531837 123 232 C122.71096685 226.80816526 122.42632679 221.61611365 122.14550781 216.42382812 C122.0496683 214.66269659 121.95269175 212.90162651 121.85449219 211.140625 C121.31324869 201.42033356 120.82263597 191.74024116 121 182 C119.35 182 117.7 182 116 182 C116.061875 182.94875 116.12375 183.8975 116.1875 184.875 C116.13903699 196.89382606 109.39087509 207.20770885 101.43359375 215.6484375 C83.89595814 232.59491685 60.12517787 234.57387076 36.93139648 234.56030273 C16.78271568 234.10774576 -1.0682158 228.32234281 -15.8203125 214.30078125 C-27.34509486 202.13573321 -32.46381484 185.82780584 -32.1171875 169.34375 C-32.07851562 168.2403125 -32.03984375 167.136875 -32 166 C-31.98195313 164.9584375 -31.96390625 163.916875 -31.9453125 162.84375 C-31.37259157 149.23320549 -27.21187748 136.89549757 -19 126 C-18.25169922 124.96166016 -18.25169922 124.96166016 -17.48828125 123.90234375 C-1.53304274 103.68701636 26.73520304 96.99327394 51 94 C56.84819762 93.54705702 62.70161213 93.61401643 68.5625 93.6875 C70.13273016 93.69685843 71.70296131 93.7060523 73.27319336 93.71508789 C104.98906758 93.99635586 104.98906758 93.99635586 114 97 C113.89516293 82.37214466 113.74351632 68.92251591 103.00390625 57.7421875 C87.62634878 44.37300498 66.17414315 42.66552277 46.68359375 42.26953125 C45.20570434 42.23008382 43.72784468 42.18950722 42.25001526 42.14787292 C38.42491092 42.04305144 34.59960827 41.95320876 30.77404785 41.86688232 C26.84456298 41.77542495 22.9154758 41.66925211 18.98632812 41.56445312 C11.32452829 41.36219797 3.66245692 41.17582369 -4 41 C-3.85081799 38.64888247 -3.69954437 36.29792922 -3.54711914 33.94702148 C-3.46305313 32.63781235 -3.37898712 31.32860321 -3.29237366 29.97972107 C-2.8519887 23.98530514 -2.15867571 18.02859 -1.4375 12.0625 C-1.29892578 10.89009766 -1.16035156 9.71769531 -1.01757812 8.50976562 C-0.68176883 5.67275605 -0.34256123 2.83620077 0 0 Z "
     fill="#0166BD"
     transform="translate(2675,629)"
     id="path10" />
  <path
     d="M0 0 C17.35436922 14.66097112 27.70385248 33.09700136 32.75 55.125 C32.91371094 55.82383301 33.07742188 56.52266602 33.24609375 57.24267578 C35.92255308 69.33927657 36.01035541 81.48414829 36 93.8125 C35.99940582 94.6012149 35.99881165 95.38992981 35.99819946 96.20254517 C35.99161276 98.49325588 35.97505957 100.78360701 35.953125 103.07421875 C35.9487291 103.75177216 35.94433319 104.42932556 35.93980408 105.12741089 C35.86620971 110.23170341 35.32066264 114.98903627 34.75 120.125 C-16.07 120.125 -66.89 120.125 -119.25 120.125 C-111.8624412 142.28767641 -105.37519803 156.38840942 -85.14453125 167.890625 C-69.33724444 175.66663193 -52.87352205 177.33435532 -35.5 177.3125 C-34.4018396 177.31259064 -34.4018396 177.31259064 -33.28149414 177.31268311 C-19.1659602 177.29609021 -5.13150956 176.9299076 8.63452148 173.53515625 C12.03718338 172.87543646 15.29418915 172.99933415 18.75 173.125 C20.20643305 179.41299138 21.40777439 185.68177187 22.375 192.0625 C22.5090625 192.89201172 22.643125 193.72152344 22.78125 194.57617188 C23.67786466 200.46363651 23.90687463 206.17406403 23.75 212.125 C18.46975627 214.13445025 13.25072442 214.92833075 7.6875 215.6875 C6.82189453 215.81318359 5.95628906 215.93886719 5.06445312 216.06835938 C-8.53514978 217.97409977 -22.03223152 218.31142269 -35.74267578 218.31030273 C-38.74395814 218.31249559 -41.74487573 218.33073225 -44.74609375 218.34960938 C-54.79028323 218.37944926 -64.3835462 218.1769949 -74.25 216.125 C-75.02118164 215.97893311 -75.79236328 215.83286621 -76.58691406 215.68237305 C-94.8154672 212.10580521 -111.96875738 205.22438611 -126.25 193.125 C-127.075 192.4340625 -127.9 191.743125 -128.75 191.03125 C-149.38868213 173.16117157 -160.463856 147.02534811 -163.25 120.125 C-163.54773855 114.54037336 -163.53868902 108.95157425 -163.51074219 103.3605957 C-163.50006003 100.82673982 -163.5106763 98.29359959 -163.5234375 95.75976562 C-163.55328669 62.37944003 -155.50586193 31.42554112 -131.90917969 6.73681641 C-99.26869297 -24.97190833 -35.94460811 -27.95691742 0 0 Z "
     fill="#0266BD"
     transform="translate(715.25,644.875)"
     id="path12" />
  <path
     d="M0 0 C0.93457031 0.39058594 1.86914062 0.78117188 2.83203125 1.18359375 C22.41238759 10.09496853 35.25634883 28.49257025 42.91015625 47.94921875 C52.44851363 74.64978188 50 100.13622735 50 129 C-0.82 129 -51.64 129 -104 129 C-98.56797711 148.91741726 -90.54479668 164.55485276 -72.25 175.25 C-55.76280527 184.41627113 -38.94387514 186.41491935 -20.375 186.375 C-19.3253154 186.37717529 -19.3253154 186.37717529 -18.25442505 186.37939453 C-5.2650151 186.37646143 7.20982607 184.95904656 20.03515625 182.875 C24.77466978 182.11489634 29.2070518 181.81227131 34 182 C35.6229476 188.82343623 36.73351163 195.60798103 37.625 202.5625 C37.82609375 204.0465332 37.82609375 204.0465332 38.03125 205.56054688 C38.75085112 211.09339834 39.14593282 216.42138641 39 222 C34.77201288 222.65370941 30.54242619 223.29646766 26.3125 223.9375 C25.13365234 224.11990234 23.95480469 224.30230469 22.74023438 224.49023438 C8.43093112 226.64643076 -5.66056524 227.21149963 -20.1081543 227.24023438 C-23.03268307 227.24990144 -25.95649557 227.28100496 -28.88085938 227.3125 C-44.71086831 227.40224987 -60.7764386 226.41922943 -75.875 221.25 C-76.64908203 220.99395996 -77.42316406 220.73791992 -78.22070312 220.47412109 C-103.80697183 211.7111938 -123.8031304 194.12182504 -136.5625 170.4375 C-150.74364677 140.62910269 -152.8544214 105.00545125 -146 73 C-145.83902832 72.21657227 -145.67805664 71.43314453 -145.51220703 70.62597656 C-141.91010058 53.62237318 -135.22775185 37.42118113 -124 24 C-123.30261719 23.14148438 -122.60523438 22.28296875 -121.88671875 21.3984375 C-116.60117995 15.18347003 -110.77421526 10.50940299 -104 6 C-103.32195313 5.52820313 -102.64390625 5.05640625 -101.9453125 4.5703125 C-72.88233902 -14.8452009 -31.06979616 -13.36445577 0 0 Z "
     fill="#0166BD"
     transform="translate(958,636)"
     id="path14" />
  <path
     d="M0 0 C1.19012695 0.00491455 2.38025391 0.0098291 3.60644531 0.01489258 C27.755652 0.33419657 50.70971711 6.90460669 68.9375 23.3125 C69.59621094 23.9003125 70.25492188 24.488125 70.93359375 25.09375 C88.09943901 41.30381323 95.40581954 65.52737589 97.9375 88.3125 C97.9375 104.8125 97.9375 121.3125 97.9375 138.3125 C47.1175 138.3125 -3.7025 138.3125 -56.0625 138.3125 C-50.77195727 156.82939957 -43.5148723 173.41102887 -26.19433594 183.38867188 C-8.5691961 192.97442413 7.79640773 195.72234216 27.8125 195.625 C28.5174057 195.62450653 29.2223114 195.62401306 29.94857788 195.62350464 C44.63416778 195.59230925 59.64340197 194.89931605 73.9375 191.3125 C76.63290361 191.14247454 79.22976438 191.22372178 81.9375 191.3125 C83.79329181 193.16829181 83.57208681 196.1910346 83.91015625 198.69140625 C83.99752548 199.33689926 84.08489471 199.98239227 84.1749115 200.64744568 C84.35938417 202.01996821 84.54165586 203.39278804 84.72192383 204.76586914 C84.9957767 206.84296743 85.27960361 208.91852558 85.56445312 210.99414062 C86.43421196 217.46269734 87.19818094 223.77865832 86.9375 230.3125 C66.97601836 235.14189072 47.76124116 236.49948867 27.29394531 236.49780273 C24.31040421 236.50000154 21.32722675 236.51826688 18.34375 236.53710938 C8.34095972 236.56700881 -1.24024559 236.38950522 -11.0625 234.3125 C-11.80822266 234.16111572 -12.55394531 234.00973145 -13.32226562 233.85375977 C-31.49899586 229.92763882 -48.80275006 223.54977194 -63.0625 211.3125 C-64.27873047 210.29542969 -64.27873047 210.29542969 -65.51953125 209.2578125 C-86.91669737 190.78591179 -97.69293068 164.17650004 -100.0625 136.3125 C-100.20904829 133.15579051 -100.24922663 130.00358353 -100.265625 126.84375 C-100.27132507 125.96456909 -100.27702515 125.08538818 -100.28289795 124.17956543 C-100.29228542 122.32740457 -100.29885682 120.47522747 -100.30273438 118.62304688 C-100.31237893 115.84734415 -100.3434375 113.07240278 -100.375 110.296875 C-100.55939106 79.31243685 -91.36363769 48.76150985 -69.70703125 25.87109375 C-56.75456674 13.3395365 -40.58076429 5.71735902 -23.0625 2.3125 C-22.32443115 2.13807373 -21.5863623 1.96364746 -20.82592773 1.78393555 C-13.86276208 0.20245175 -7.12474159 -0.03482624 0 0 Z "
     fill="#0166BD"
     transform="translate(1979.0625,626.6875)"
     id="path16" />
  <path
     d="M0 0 C0.71713165 -0.00006042 1.43426331 -0.00012085 2.17312622 -0.00018311 C13.28291753 0.01294128 24.34924716 0.37793261 35.4375 1.0625 C36.73880859 1.14089111 38.04011719 1.21928223 39.38085938 1.30004883 C46.70546701 1.798715 53.81357978 2.67778677 61 4.1875 C60.4579224 12.94823482 59.55881434 21.65523206 58.5625 30.375 C58.44028076 31.4983374 58.31806152 32.6216748 58.19213867 33.77905273 C58.06814697 34.83552002 57.94415527 35.8919873 57.81640625 36.98046875 C57.70756104 37.9346167 57.59871582 38.88876465 57.48657227 39.87182617 C57 42.1875 57 42.1875 55 44.1875 C53.05615234 44.23095703 53.05615234 44.23095703 50.5859375 43.9453125 C49.62131592 43.84831055 48.65669434 43.75130859 47.6628418 43.65136719 C46.577854 43.53954102 45.49286621 43.42771484 44.375 43.3125 C30.8122255 42.11670573 17.29659169 41.95201453 3.6875 41.9375 C2.17781647 41.93027924 2.17781647 41.93027924 0.63763428 41.9229126 C-34.87328918 40.55642222 -34.87328918 40.55642222 -66.140625 54.18359375 C-71.16706445 59.75149924 -72.46485863 63.83414376 -72.31640625 71.3359375 C-71.78959075 76.0837809 -70.41225536 78.86307728 -67 82.1875 C-58.3302296 87.19788951 -48.97477091 89.84050145 -39.3125 92.1875 C-37.94937498 92.52968331 -36.58650471 92.87288285 -35.22387695 93.21704102 C-27.7978653 95.0790735 -20.34663105 96.79028841 -12.8671875 98.42529297 C12.40362027 103.98626771 44.5130327 111.53185039 59.53515625 134.68359375 C68.47283084 149.96105884 69.56777477 169.19710589 65.4375 186.25 C60.48112285 201.89356539 51.45517674 214.59189097 36.80859375 222.49609375 C8.10856294 235.87343029 -21.84456794 236.43207759 -52.875 236.5 C-54.71902908 236.50492462 -54.71902908 236.50492462 -56.60031128 236.50994873 C-72.01250616 236.52322636 -87.25541356 236.19538832 -102.5625 234.3125 C-103.2720282 234.22545807 -103.9815564 234.13841614 -104.71258545 234.04873657 C-111.39206722 233.20220674 -117.49998639 232.04464675 -124 230.1875 C-122.35 216.6575 -120.7 203.1275 -119 189.1875 C-110.40393869 189.84873549 -101.91572167 190.61192283 -93.375 191.6875 C-91.27884554 191.94951931 -89.18249167 192.20994843 -87.0859375 192.46875 C-85.7254126 192.63987305 -85.7254126 192.63987305 -84.33740234 192.81445312 C-76.01522851 193.74468587 -67.80198523 194.34510292 -59.42578125 194.35546875 C-57.97452095 194.36046135 -57.97452095 194.36046135 -56.49394226 194.36555481 C-54.46121693 194.37057924 -52.42848348 194.37296454 -50.39575195 194.37280273 C-47.33725923 194.37498236 -44.27913201 194.39316793 -41.22070312 194.41210938 C-11.62591385 194.91573658 -11.62591385 194.91573658 14 182.1875 C18.43461227 175.67763742 19.80807841 168.96814067 19 161.1875 C17.19685255 154.90907093 13.68440595 151.36556767 8 148.1875 C4.28248962 146.68285544 0.4832848 145.5849792 -3.375 144.5 C-4.5211377 144.16750244 -5.66727539 143.83500488 -6.84814453 143.49243164 C-17.78021274 140.39066571 -28.82513061 137.76866197 -39.875 135.125 C-100.09086504 120.69989119 -100.09086504 120.69989119 -112.65234375 101.65625 C-121.4996966 85.44892535 -123.0672746 66.73389558 -117.97265625 48.8671875 C-111.64901083 31.44541739 -99.51955088 19.89061319 -82.96728516 12.06738281 C-57.65066132 0.74433587 -27.30886321 -0.03591539 0 0 Z "
     fill="#0165BD"
     transform="translate(2522,626.8125)"
     id="path18" />
  <path
     d="M0 0 C16.65493033 15.60400194 23.43748587 37.18377762 24.46402359 59.56832695 C24.52870922 63.70258879 24.53348075 67.83207553 24.51220703 71.96655273 C24.51164114 73.53524773 24.51196293 75.10394325 24.51309204 76.67263794 C24.51365963 80.88034106 24.50200289 85.08792727 24.48794413 89.29560351 C24.47533644 93.71179768 24.47425843 98.12799532 24.47189331 102.54420471 C24.46570776 110.88419097 24.44933706 119.22412402 24.42919433 127.56408697 C24.40674361 137.06847866 24.39581896 146.57287304 24.38580346 156.07728469 C24.36496783 175.60754889 24.32832872 195.13774027 24.28515625 214.66796875 C9.10515625 214.66796875 -6.07484375 214.66796875 -21.71484375 214.66796875 C-21.73671753 207.52164795 -21.73671753 207.52164795 -21.7590332 200.23095703 C-21.80938413 184.48491049 -21.87583073 168.73896221 -21.95055866 152.99301338 C-21.99547083 143.4468509 -22.03489603 133.90072534 -22.0612793 124.35449219 C-22.08429649 116.03128918 -22.117736 107.70820347 -22.16354531 99.38509357 C-22.18742741 94.98051853 -22.20618898 90.5760593 -22.21245766 86.17142105 C-22.21853127 82.01977038 -22.23861273 77.86841585 -22.26911926 73.71687508 C-22.27786317 72.19884235 -22.28162968 70.68077087 -22.27985191 69.162714 C-22.26977616 56.58119118 -23.84040415 45.87050353 -31.71484375 35.66796875 C-41.23532175 26.28853486 -51.99288951 24.41214666 -64.96289062 24.41918945 C-75.65687183 24.5781355 -85.87229736 26.38510684 -94.71484375 32.66796875 C-95.4625 33.17585937 -96.21015625 33.68375 -96.98046875 34.20703125 C-102.097714 38.15810157 -105.1726756 42.62526948 -108.08984375 48.29296875 C-108.57239624 49.21396362 -108.57239624 49.21396362 -109.06469727 50.15356445 C-114.37767179 61.24719008 -115.16061807 73.37204494 -115.1472168 85.47607422 C-115.15626186 86.89684892 -115.16659565 88.31761589 -115.17810059 89.7383728 C-115.20537528 93.54736104 -115.21491427 97.35620008 -115.22095466 101.16527319 C-115.23041635 105.16379914 -115.25662518 109.16221694 -115.28096008 113.16067505 C-115.32441641 120.71087129 -115.35309088 128.26104628 -115.37628347 135.81132901 C-115.40344788 144.41614787 -115.44735183 153.0208568 -115.49257219 161.62559676 C-115.58511919 179.30634349 -115.65472727 196.98707996 -115.71484375 214.66796875 C-130.89484375 214.66796875 -146.07484375 214.66796875 -161.71484375 214.66796875 C-161.71484375 139.42796875 -161.71484375 64.18796875 -161.71484375 -13.33203125 C-147.85484375 -13.33203125 -133.99484375 -13.33203125 -119.71484375 -13.33203125 C-119.21984375 -7.86640625 -118.72484375 -2.40078125 -118.21484375 3.23046875 C-118.05822266 4.94177979 -117.90160156 6.65309082 -117.74023438 8.41625977 C-117.61694148 9.7931095 -117.49387954 11.16997995 -117.37109375 12.546875 C-117.30631836 13.24518433 -117.24154297 13.94349365 -117.17480469 14.66296387 C-116.78962744 19.02295635 -116.65493719 23.29728587 -116.71484375 27.66796875 C-115.06484375 27.66796875 -113.41484375 27.66796875 -111.71484375 27.66796875 C-111.67617187 26.63349609 -111.67617187 26.63349609 -111.63671875 25.578125 C-110.91102836 13.55475471 -105.83586021 3.18089134 -96.96484375 -5.08203125 C-70.89902492 -26.48969995 -24.29810664 -20.8718988 0 0 Z "
     fill="#0166BD"
     transform="translate(2304.71484375,644.33203125)"
     id="path20" />
  <path
     d="M0 0 C15.18 0 30.36 0 46 0 C46 22.77 46 45.54 46 69 C79.99 69 113.98 69 149 69 C149 81.54 149 94.08 149 107 C115.01 107 81.02 107 46 107 C46.11997628 126.99323731 46.11997628 126.99323731 46.2578125 146.98632812 C46.31802425 155.14556505 46.37647201 163.30477695 46.421875 171.46411133 C46.45850679 178.04535061 46.50525631 184.62646891 46.55806351 191.20760155 C46.57653707 193.71325645 46.59167073 196.21893836 46.60334396 198.72463417 C46.62032714 202.24534556 46.64939101 205.76577199 46.68115234 209.28637695 C46.68331253 210.31281311 46.68547272 211.33924927 46.68769836 212.39678955 C46.83556923 225.30277423 49.12748631 236.82074075 57.6640625 246.98046875 C69.54383345 257.93125288 85.76928916 259.54652094 101.1875 259.375 C101.88156952 259.37234131 102.57563904 259.36968262 103.29074097 259.36694336 C119.93758241 259.29323564 136.45779239 257.7538876 153 256 C153.57614914 260.40999263 154.14555277 264.82079074 154.70898438 269.23242188 C154.90118655 270.73005088 155.09516291 272.22745339 155.29101562 273.72460938 C155.57379494 275.88873679 155.84997633 278.05362492 156.125 280.21875 C156.37636719 282.1668457 156.37636719 282.1668457 156.6328125 284.15429688 C157.01434626 288.15025418 157.06241365 291.98992328 157 296 C137.49911119 301.14988261 117.40912029 301.19004502 97.375 301.25 C96.47148804 301.25526703 95.56797607 301.26053406 94.63708496 301.26596069 C80.35451824 301.33031556 66.76681731 300.57939906 53 296.375 C52.15260254 296.11630127 51.30520508 295.85760254 50.43212891 295.59106445 C33.88370345 290.2727105 19.91050793 280.13828228 11 265 C0.34143577 243.37375534 -0.29445286 221.43546128 -0.1953125 197.8203125 C-0.19157652 195.19473377 -0.18873231 192.56915363 -0.18673706 189.943573 C-0.18056305 183.77454309 -0.16420853 177.60558552 -0.14403808 171.43658721 C-0.11933773 163.71164503 -0.10850877 155.98669067 -0.09765625 148.26171875 C-0.07827357 134.5077564 -0.03819363 120.75395149 0 107 C-18.81 107 -37.62 107 -57 107 C-57 94.46 -57 81.92 -57 69 C-38.19 69 -19.38 69 0 69 C0 46.23 0 23.46 0 0 Z "
     fill="#0266BD"
     transform="translate(1110,562)"
     id="path22" />
  <path
     d="M0 0 C0 0.66 0 1.32 0 2 C0.5775 2.226875 1.155 2.45375 1.75 2.6875 C6.17452256 5.26847149 8.50216931 9.21081215 10 14 C10.16932485 16.84751683 10.22776074 19.58150429 10.1796875 22.42553711 C10.17210419 23.29091819 10.16452087 24.15629927 10.15670776 25.04790401 C10.02130216 36.69724623 9.63264603 48.34331714 9.25921631 59.98694038 C9.12071888 64.30586269 8.98792424 68.62495041 8.85595703 72.94407654 C8.50366222 84.450139 8.1464466 95.95604593 7.78152275 107.4617151 C7.16069406 127.04001688 6.57470247 146.61861538 6.09362793 166.20090485 C6.03275468 168.67092938 5.97041654 171.14091839 5.90637207 173.61086273 C5.74418798 179.91786884 5.61086446 186.22366018 5.53765869 192.53236198 C5.51300556 194.32935472 5.47835811 196.12624486 5.43255615 197.92282295 C5.04908355 209.90971885 5.04908355 209.90971885 10.4155426 220.38919067 C12.81065586 222.8241383 15.19311526 224.88552245 17.9375 226.9375 C30.50868409 236.83594779 35.73153139 250.04171473 37.75244141 265.62109375 C40.82216278 295.11948134 37.43789425 334.68631724 28 363 C26.06640625 362.67515625 26.06640625 362.67515625 24.09375 362.34375 C-0.24653188 358.55553665 -24.73671054 358.68195696 -49 363 C-66.67327455 264.44227505 -66.67327455 264.44227505 -49.84765625 238.54296875 C-45.27776596 232.25333116 -40.66776355 227.41350017 -34.2109375 223.03125 C-30.1126412 219.26603078 -27.37884088 215.61878098 -26.56381226 209.98480225 C-26.42512625 206.07911942 -26.46697428 202.19413746 -26.5625 198.2890625 C-26.58305648 196.69945122 -26.60202811 195.10981887 -26.61962891 193.52017212 C-26.69910328 187.67884466 -26.84817351 181.83982869 -27 176 C-27.02982971 174.81568893 -27.05965942 173.63137787 -27.09039307 172.41117859 C-27.6197807 151.49960698 -28.26624237 130.59186981 -28.92709351 109.68411255 C-29.26450319 98.99758942 -29.59807204 88.31095263 -29.92386818 77.62406886 C-30.03297077 74.05276949 -30.14380643 70.48154389 -30.25921631 66.91044235 C-30.54874496 57.94110452 -30.79389394 48.97163991 -31 40 C-31.03331421 38.72951057 -31.06662842 37.45902115 -31.10095215 36.15003204 C-31.19142241 32.43157874 -31.25246894 28.7137942 -31.3046875 24.99462891 C-31.33490997 23.88497458 -31.36513245 22.77532024 -31.39627075 21.63204002 C-31.45795151 13.93283573 -30.29913436 9.59554096 -25 3.8203125 C-24.34 3.26085937 -23.68 2.70140625 -23 2.125 C-22.34 1.55007812 -21.68 0.97515625 -21 0.3828125 C-15.29263448 -3.56329569 -5.96435834 -3.18099111 0 0 Z "
     fill="#65A0C8"
     transform="translate(1457,225)"
     id="path24" />
  <path
     d="M0 0 C0.96953613 0.00161133 1.93907227 0.00322266 2.93798828 0.00488281 C10.72036771 0.13738201 17.10996707 1.29128081 24.3125 4.375 C25.38757812 4.77332031 25.38757812 4.77332031 26.484375 5.1796875 C38.2803041 10.13397772 46.39091782 20.93752029 51.3125 32.375 C55.31644947 43.02573244 55.3125 51.658188 55.3125 63.375 C17.3625 63.375 -20.5875 63.375 -59.6875 63.375 C-59.6875 57.24700058 -59.11177226 52.94152612 -57.5625 47.1875 C-57.33731689 46.35033447 -57.11213379 45.51316895 -56.88012695 44.65063477 C-52.20204253 28.00871427 -43.37792094 15.65615741 -28.6875 6.375 C-25.42333371 4.7146964 -22.19659826 3.41373614 -18.6875 2.375 C-17.48996094 2.02050781 -16.29242187 1.66601562 -15.05859375 1.30078125 C-10.05573994 0.08306584 -5.12982128 -0.00887973 0 0 Z "
     fill="#FDFEFE"
     transform="translate(1980.6875,666.625)"
     id="path26" />
  <path
     d="M0 0 C10.7975719 8.74880185 16.33333436 21.38086401 19.28515625 34.6640625 C19.6894092 40.52573027 19.53515625 46.41347151 19.53515625 52.2890625 C-18.41484375 52.2890625 -56.36484375 52.2890625 -95.46484375 52.2890625 C-94.28748467 36.98339452 -94.28748467 36.98339452 -91.96484375 30.3515625 C-91.70348633 29.59431885 -91.44212891 28.8370752 -91.17285156 28.05688477 C-85.95506155 13.7770124 -77.14292697 2.12645155 -63.52734375 -5.0859375 C-42.94020238 -14.47930999 -18.83325621 -13.07284662 0 0 Z "
     fill="#FDFEFE"
     transform="translate(947.46484375,677.7109375)"
     id="path28" />
  <path
     d="M0 0 C9.9362073 9.20338507 14.87649019 21.88420409 17 35 C17 39.95 17 44.9 17 50 C-20.95 50 -58.9 50 -98 50 C-96.52888409 32.3466091 -91.79265861 13.3728261 -78 1 C-56.1851317 -16.78386003 -21.89956658 -19.56485799 0 0 Z "
     fill="#FDFEFE"
     transform="translate(692,680)"
     id="path30" />
  <path
     d="M0 0 C1.16148056 -0.00315216 2.32296112 -0.00630432 3.51963806 -0.009552 C4.76556229 -0.00752777 6.01148651 -0.00550354 7.29516602 -0.00341797 C9.22755882 -0.00485306 9.22755882 -0.00485306 11.19898987 -0.00631714 C13.9215719 -0.00778834 16.64412103 -0.00565851 19.36669922 -0.00097656 C22.84446304 0.00471469 26.32214957 0.00144189 29.79991055 -0.00454903 C33.13166844 -0.00904667 36.46340593 -0.00589046 39.79516602 -0.00341797 C41.66101601 -0.00645432 41.66101601 -0.00645432 43.56455994 -0.009552 C44.72919266 -0.00639984 45.89382538 -0.00324768 47.09375 0 C48.62333595 0.00119339 48.62333595 0.00119339 50.18382263 0.00241089 C53.22936276 0.13450339 56.11780049 0.5681374 59.11157227 1.12939453 C59.17008151 4.81682687 59.205339 8.50413823 59.23657227 12.19189453 C59.25333008 13.23023438 59.27008789 14.26857422 59.28735352 15.33837891 C59.37537687 29.20205687 54.20318467 40.87161763 44.58032227 50.87939453 C29.76823104 64.37902198 10.16265359 67.90520283 -9.25170898 67.44189453 C-20.46351431 66.89195926 -30.17373354 62.68963753 -38.20092773 54.87939453 C-43.65932727 45.98422492 -45.29546683 37.71658227 -43.38061523 27.39111328 C-41.00288725 18.38581017 -36.63352114 12.92292306 -28.91577148 7.77001953 C-20.13847105 3.01328897 -9.9872735 0.0077982 0 0 Z "
     fill="#FDFDFE"
     transform="translate(2729.888427734375,759.87060546875)"
     id="path32" />
  <path
     d="M0 0 C7.54753602 6.2303395 11.19653196 14.31553315 12.3571167 23.97103882 C12.4898624 26.99268725 12.50332178 29.98753952 12.4609375 33.01171875 C12.45956284 34.65222954 12.45956284 34.65222954 12.4581604 36.32588196 C12.45216601 38.61744579 12.43654736 40.90900335 12.41162109 43.20043945 C12.3749815 46.68926129 12.37060355 50.17702078 12.37109375 53.66601562 C12.36126483 55.90625909 12.34960881 58.14649544 12.3359375 60.38671875 C12.33371185 61.41818527 12.33148621 62.44965179 12.32919312 63.51237488 C12.19394205 73.91768688 10.64329625 82.69235352 4 91 C-4.00775033 97.94769036 -11.87874994 99.47582272 -22.30078125 99.3125 C-27.27271969 98.89248408 -30.83591066 97.69988719 -35 95 C-35.63421875 94.59910156 -36.2684375 94.19820312 -36.921875 93.78515625 C-42.88904334 89.38628215 -45.95965344 82.68459327 -47.54418945 75.54956055 C-48.19163734 70.50765118 -48.20328222 65.50469571 -48.23828125 60.42578125 C-48.246353 59.30616501 -48.25442474 58.18654877 -48.26274109 57.03300476 C-48.27654368 54.6669569 -48.28728285 52.30088944 -48.29516602 49.93481445 C-48.30667945 47.52883012 -48.32712096 45.1228712 -48.35668945 42.71704102 C-48.39958333 39.22394613 -48.41556561 35.73160756 -48.42578125 32.23828125 C-48.44328934 31.17644119 -48.46079742 30.11460114 -48.47883606 29.02058411 C-48.44867553 18.49601374 -45.56975561 8.62369686 -38 1 C-28.17516921 -6.3313271 -10.25357866 -6.89174959 0 0 Z "
     fill="#FEFEFD"
     transform="translate(1465,673)"
     id="path34" />
  <path
     d="M0 0 C2.62959989 3.94439983 2.26535386 7.30280106 2.22705078 11.87768555 C2.22734283 12.78520569 2.22763489 13.69272583 2.22793579 14.62774658 C2.22654118 17.63083418 2.21097373 20.63367443 2.1953125 23.63671875 C2.19158284 25.71751266 2.18873565 27.79830832 2.18673706 29.87910461 C2.17909692 35.35853922 2.15944512 40.83786798 2.1373291 46.31726074 C2.1168789 51.90745614 2.10773711 57.49766862 2.09765625 63.08789062 C2.07619963 74.05864028 2.04205905 85.02931134 2 96 C-1.63 96 -5.26 96 -9 96 C-9.02314458 84.05650588 -9.04092592 72.11301708 -9.05181217 60.16950512 C-9.05703635 54.6239817 -9.06412561 49.07847359 -9.07543945 43.53295898 C-9.08628478 38.18376324 -9.09228035 32.83458225 -9.09487724 27.48537636 C-9.09672851 25.4419869 -9.10034344 23.39859827 -9.10573006 21.35521507 C-9.11296228 18.49875502 -9.11399001 15.64235637 -9.11352539 12.78588867 C-9.11712067 11.93640656 -9.12071594 11.08692444 -9.12442017 10.21170044 C-9.11854436 6.88528371 -9.0594098 4.1782294 -8 1 C-5.21136993 -0.39431504 -3.07921132 -0.25660094 0 0 Z "
     fill="#F4F8FB"
     transform="translate(1450,488)"
     id="path36" />
  <path
     d="M0 0 C3 0.25 3 0.25 5 2.25 C5.18841754 5.29358526 5.25163081 8.24555235 5.22705078 11.28955078 C5.22734283 12.22618561 5.22763489 13.16282043 5.22793579 14.12783813 C5.22653885 17.23375611 5.21096049 20.33943626 5.1953125 23.4453125 C5.19158367 25.59479644 5.18873608 27.74428207 5.18673706 29.89376831 C5.17909039 35.55898712 5.15943303 41.22410383 5.1373291 46.88928223 C5.11689291 52.66705952 5.10774011 58.44485326 5.09765625 64.22265625 C5.07618812 75.56514909 5.04203973 86.90756607 5 98.25 C1.7 97.92 -1.6 97.59 -5 97.25 C-5.04626496 84.89809568 -5.08183941 72.54621186 -5.10362434 60.19423866 C-5.11407805 54.459214 -5.12826612 48.72424845 -5.15087891 42.98925781 C-5.1725508 37.45851431 -5.18455666 31.92782781 -5.18975449 26.39704514 C-5.19346043 24.28304522 -5.20069682 22.16904855 -5.21146011 20.05507278 C-5.22589992 17.10256365 -5.2279811 14.15029245 -5.22705078 11.19775391 C-5.23424133 10.3166243 -5.24143188 9.43549469 -5.24884033 8.52766418 C-5.22110151 0.43509179 -5.22110151 0.43509179 0 0 Z "
     fill="#FEFEFE"
     transform="translate(1471,487.75)"
     id="path38" />
  <path
     d="M0 0 C0.99 0.103125 1.98 0.20625 3 0.3125 C5.64302929 4.27704393 5.26514283 7.68276819 5.22705078 12.28198242 C5.22734283 13.19925613 5.22763489 14.11652985 5.22793579 15.06159973 C5.22654111 18.0971519 5.21097333 21.1324594 5.1953125 24.16796875 C5.19158286 26.27118292 5.18873566 28.37439883 5.18673706 30.47761536 C5.17909673 36.01623319 5.15944475 41.55474632 5.1373291 47.09332275 C5.11687932 52.74384138 5.1077372 58.39437691 5.09765625 64.04492188 C5.07619928 75.13416062 5.04205847 86.2233216 5 97.3125 C1.52674819 98.4702506 -1.36067448 98.38116652 -5 98.3125 C-5.0462645 85.83021171 -5.08183918 73.34794368 -5.10362434 60.86558723 C-5.11407815 55.07002874 -5.1282664 49.27452873 -5.15087891 43.47900391 C-5.17255044 37.88990577 -5.18455658 32.30086404 -5.18975449 26.71172714 C-5.1934605 24.57539863 -5.20069701 22.43907332 -5.21146011 20.30276871 C-5.22589944 17.31912728 -5.22798112 14.33572131 -5.22705078 11.35205078 C-5.23424133 10.46157043 -5.24143188 9.57109009 -5.24884033 8.65362549 C-5.22133125 0.54388867 -5.22133125 0.54388867 0 0 Z "
     fill="#FEFEFE"
     transform="translate(1423,487.6875)"
     id="path40" />
</svg>
