<?xml version="1.0" encoding="UTF-8" standalone="no"?>
<svg
   version="1.1"
   width="335.13867"
   height="355.42917"
   id="svg24"
   sodipodi:docname="meet@mensa_icon.svg"
   inkscape:version="1.1 (c68e22c387, 2021-05-23)"
   xmlns:inkscape="http://www.inkscape.org/namespaces/inkscape"
   xmlns:sodipodi="http://sodipodi.sourceforge.net/DTD/sodipodi-0.dtd"
   xmlns="http://www.w3.org/2000/svg"
   xmlns:svg="http://www.w3.org/2000/svg">
  <defs
     id="defs28" />
  <sodipodi:namedview
     id="namedview26"
     pagecolor="#ffffff"
     bordercolor="#666666"
     borderopacity="1.0"
     inkscape:pageshadow="2"
     inkscape:pageopacity="0.0"
     inkscape:pagecheckerboard="true"
     showgrid="false"
     showborder="true"
     borderlayer="false"
     height="1000px"
     fit-margin-top="0"
     fit-margin-left="0"
     fit-margin-right="0"
     fit-margin-bottom="0"
     inkscape:zoom="3.514546"
     inkscape:cx="123.20226"
     inkscape:cy="116.94256"
     inkscape:window-width="3840"
     inkscape:window-height="2054"
     inkscape:window-x="-11"
     inkscape:window-y="-11"
     inkscape:window-maximized="1"
     inkscape:current-layer="svg24" />
  <path
     id="path2"
     d="m 256.80895,83.576988 c 0.0161,0.002 0.0327,0.004 0.0488,0.006 0.0156,6.9e-4 0.0312,8.8e-4 0.0469,0.002 -0.0103,-0.004 -0.0168,-0.007 -0.0254,-0.008 -0.0236,-0.002 -0.0318,6.9e-4 -0.0703,0 z m -35.96289,2.8711 v 0.002 0.002 c -0.51579,-2e-5 -1.0319,0.0112 -1.54687,0.0469 -0.28518,0.009 -0.5702,0.0204 -0.85547,0.0254 -0.14717,0.003 -0.29436,-0.0226 -0.44141,-0.0156 -0.0952,0.004 -0.19026,0.0222 -0.28516,0.0312 -0.47108,0.0468 -0.44131,0.0426 -0.875,0.0742 -0.54028,0.04 -1.08132,0.0784 -1.62109,0.125 -0.52965,0.0457 -0.39667,0.0478 -1.04492,0.0703 -0.12453,0.004 -0.2504,0.002 -0.375,0.002 0.1407,-0.19371 0.0385,-0.0248 -0.42774,0.0293 -0.18955,0.0219 -0.38157,0.0262 -0.57226,0.0332 -0.1176,0.005 -0.23311,-0.0892 -0.35352,-0.008 -0.1484,0.008 -0.2953,0.0262 -0.44336,0.0391 -0.70001,0.057 -1.39707,0.11286 -2.09961,0.13086 -0.2305,0.006 -0.46085,-0.0126 -0.6914,-0.0156 -0.11355,-0.002 -0.22629,-8e-4 -0.33985,-0.002 -0.13692,10e-4 -0.27534,-0.004 -0.4121,0.002 -0.13062,0.006 -0.26023,0.0252 -0.39063,0.0352 -0.52675,0.039 -1.05227,0.0565 -1.58008,0.0742 -0.71219,0.0681 0.0273,-0.0168 -0.94336,0.1582 -0.81937,0.14772 -1.64359,0.23676 -2.47461,0.28516 -0.3805,0.026 -0.74085,0.15147 -1.11132,0.23437 -0.19777,0.0442 -0.39601,0.0846 -0.59571,0.11914 -0.11783,0.0204 -0.2368,0.0301 -0.35547,0.0449 -0.2011,0.0185 -0.40214,0.0393 -0.60351,0.0547 -0.75404,0.0576 -1.51202,0.0507 -2.26563,0.11524 -0.29704,0.0119 -0.59342,0.0281 -0.89062,0.0351 -0.46337,0.012 -0.76728,-0.0679 -1.23828,0.006 -0.65855,0.0489 -1.31797,0.11107 -1.97266,0.19727 -0.54417,0.0728 -1.0911,0.15041 -1.64062,0.16602 -0.13732,0.004 -0.27481,0.008 -0.41211,0.006 -0.0388,0.0125 -0.0779,0.0245 -0.11719,0.0352 -0.20123,0.0548 -0.40242,0.10865 -0.60547,0.15625 -0.12608,0.0295 -0.66033,0.10438 -0.69531,0.10938 -0.17346,0.0237 -0.34781,0.0444 -0.52149,0.0664 -0.25401,0.028 -0.50741,0.0587 -0.76171,0.084 -0.16975,0.0169 -0.34054,0.01 -0.50977,0.0312 -0.0871,0.011 -0.17328,0.0336 -0.25977,0.0488 -0.45916,0.0805 -0.3894,0.0658 -0.85351,0.1211 -0.23074,0.0121 -0.46044,0.0311 -0.69141,0.0371 -0.1144,0.004 -0.22932,-0.006 -0.34375,-0.008 -0.18942,-0.004 -0.37891,-0.008 -0.56836,-0.01 -0.13335,-10e-4 -0.26704,0.002 -0.40039,0 -0.0971,-10e-4 -0.19406,-0.0152 -0.29101,-0.01 -0.12053,0.008 -0.23785,0.0338 -0.35743,0.0508 -0.20303,0.0162 -0.40604,0.037 -0.60937,0.0488 -0.0758,0.004 -0.15263,0 -0.22852,0 -0.34843,0 -0.69648,-1e-5 -1.04492,0 -0.25471,1e-5 -0.50896,3.8e-4 -0.76367,0 -0.29011,0 -0.581,8.4e-4 -0.87109,0.002 -0.14798,-0.002 -0.29741,5.6e-4 -0.44532,-0.006 -0.004,-3.4e-4 0.008,-0.002 0.0117,-0.002 -0.25043,0.0178 -0.39842,0.0369 -0.66797,0.01 -0.16956,-0.0175 -0.3375,-0.0493 -0.50585,-0.0762 -0.002,3e-5 -0.004,-4e-5 -0.006,0 -0.0809,10e-4 -0.16168,0.004 -0.24219,-0.002 0.0466,0.31399 0.0945,0.63084 0.14062,0.94141 -14.0171,0 -31.91983,13.167822 -41.45703,22.371092 -28.1133,29.93318 -30.08522,70.17637 -29.82422,109.03711 0.023,3.33565 0.041,6.67209 0.041,10.00782 0.004,4.0908 0.0123,8.1807 0.0273,12.27148 0,0.79394 0.01,1.56536 0.01,2.33594 0.0173,6.89923 -0.16098,13.84026 0.66992,20.69922 0.1818,1.11421 0.3567,2.1959 0.5332,3.27734 3.2508,20.35906 10.06725,40.52116 24.58985,55.69141 27.5175,26.35795 63.28198,29.88803 99.63085,29.53515 3.4733,-0.0347 6.94633,-0.0567 10.41993,-0.0723 7.4539,-0.0318 14.90537,-0.0908 22.35937,-0.1543 v -27 c -5.1902,-0.1003 -10.38031,-0.20035 -15.57031,-0.30664 -2.1433,-0.044 -4.28649,-0.0876 -6.42969,-0.13086 -29.7229,-0.56626 -63.3912,0.91315 -86.8125,-20.8125 -20.072,-22.10896 -20.69365,-49.83997 -20.46875,-78.12305 0.023,-2.80896 0.041,-5.61868 0.041,-8.42773 0.004,-2.77939 0.0115,-5.55851 0.0215,-8.33789 0.007,-2.01532 0.006,-2.01482 0.0156,-3.99024 0.0875,-25.65909 3.43169,-52.32685 20.55469,-72.66406 16.1218,-16.91503 37.42478,-22.59708 60.15624,-23.41797 23.674,-0.42953 47.16039,4.17261 64.86719,21.02344 18.7129,19.86547 22.99849,47.82294 22.86719,74.13477 -0.003,1.42417 -0.0117,2.84729 -0.0117,4.27148 0,3.01424 -0.003,6.02874 -0.0137,9.04297 -0.018,3.87137 -0.032,7.74186 -0.0312,11.61328 0,3.05725 10e-4,6.11463 -0.01,9.17188 0,1.45668 -0.01,2.91441 -0.01,4.37109 v 4.21094 c -0.006,1.32844 -0.01,2.61688 -0.0195,3.90625 -0.0179,5.33847 -0.41684,9.69742 -2.45704,14.65234 -1.7946,2.99105 -2.3839,3.89483 -5.6875,4.8125 -4.307,0.22669 -8.03098,0.53201 -11.58398,-2.23242 -4.9228,-11.48749 -4.92303,-11.48713 -4.83203,-24.34766 0.01,-1.95392 0.013,-3.90745 0,-5.86133 -0.04,-4.2374 -0.0622,-8.47533 -0.0742,-12.71289 -0.012,-4.9784 -0.0244,-9.9573 -0.0664,-14.93554 -0.013,-1.36228 -0.0232,-2.72364 -0.0332,-4.08594 0.0446,-18.653 -2.96725,-35.5956 -14.40625,-50.82422 -9.0144,-9.95144 -22.66538,-15.35136 -35.92578,-16.18359 -19.2561,-0.59424 -37.44178,0.58588 -52.36328,14.28515 -17.4044,18.4474 -17.40444,18.4474 -16.83984,72.96875 0.3517,22.06438 2.10001,44.45211 18.75391,60.67969 11.6366,9.98173 26.64337,12.19736 41.52733,11.08984 13.3969,-1.41425 22.38902,-6.56783 31.01172,-16.60937 0.9272,-1.12639 0.92724,-1.12639 1.83594,-2.23047 1.1875,2.37494 2.6245,4.19505 4.3125,6.25 8.4137,9.31356 19.1746,12.09882 31.3125,12.92969 11.391,0.32037 23.5937,-2.41127 32.1875,-10.30469 11.3109,-12.63995 12.66446,-28.49126 12.53516,-44.67578 -0.013,-1.54778 -0.0234,-3.09474 -0.0234,-4.64258 -0.001,-3.27501 -0.006,-6.54927 -0.0254,-9.82422 -0.028,-4.20428 -0.0466,-8.4089 -0.0566,-12.61328 -0.004,-4.11516 -0.0143,-8.23056 -0.0293,-12.3457 -0.01,-1.18979 -0.01,-1.18925 -0.01,-2.35547 -0.0184,-7.40611 0.0404,-14.80697 -0.67969,-22.18555 -3.0481,-26.47727 -11.58641,-55.79529 -33.07031,-73.37304 -0.8341,-0.63218 -1.64363,-1.24579 -2.45313,-1.85938 -6.1347,-4.74193 -12.22789,-8.828002 -19.27539,-12.070312 -1.0604,-0.46961 -1.06021,-0.46937 -2.09961,-0.92969 -3.7941,-1.68777 -7.47516,-3.09061 -11.60156,-3.6875 -0.97154,-0.10041 -1.91443,-0.19746 -2.85742,-0.29492 -0.97969,0.52215 -2.18082,0.20907 -2.89844,-0.95117 -0.0931,-0.0238 -0.18675,-0.044 -0.2793,-0.0684 -0.0171,-0.005 -0.036,-0.007 -0.0488,-0.0195 -0.005,-0.005 0.0265,-0.01 0.0195,-0.0117 -0.0715,-0.0189 -0.14439,-0.03 -0.21679,-0.0449 -0.23451,-0.0555 -0.46497,-0.12244 -0.69922,-0.17774 -0.0928,-0.0219 -0.18965,-0.0338 -0.28125,-0.0605 -0.11998,-0.0349 -0.23717,-0.0769 -0.35547,-0.11718 -0.20515,0.004 -0.34207,0.01 -0.61328,0.008 -0.25339,-0.018 -0.50651,-0.0349 -0.75977,-0.0547 -0.003,0 -0.0143,-0.01 -0.0117,-0.01 0.0934,-0.007 0.37299,-0.0128 0.2793,-0.0137 -0.12454,-10e-4 -0.24853,0.0137 -0.37304,0.0117 -0.34518,-0.006 -0.41667,-0.0216 -0.71094,-0.0605 -0.51201,-0.0765 -1.02224,-0.15832 -1.53906,-0.19922 -0.36664,-0.0458 -0.72726,-0.098 -1.08985,-0.17188 -0.19791,-0.0404 0.10431,-0.0166 -0.25,-0.0625 -0.15459,-0.0201 -0.30961,-0.0288 -0.46484,-0.043 -0.27614,-0.0477 -0.55338,-0.0874 -0.82813,-0.14257 -0.0815,-0.0164 -0.16083,-0.0477 -0.24023,-0.0723 -0.10969,-0.034 -0.21883,-0.0683 -0.32813,-0.10352 -0.59391,-0.10524 -1.20731,-0.0868 -1.80078,-0.19921 -0.21626,-0.0279 -0.43286,-0.0494 -0.64844,-0.082 -0.0434,-0.007 -0.0852,-0.0242 -0.1289,-0.0273 -0.23082,-0.0161 -0.55128,0.0865 -0.75196,0.0273 -0.34984,-0.0312 -0.62807,-0.0692 -0.9707,-0.12695 -0.0248,-0.004 -0.0594,0.007 -0.0742,-0.0137 -0.0113,-0.015 0.0777,-0.008 0.0586,-0.01 -0.0736,-0.006 -0.14886,-0.004 -0.22266,-0.006 -0.0318,-0.002 -0.52707,-0.0254 -0.60547,-0.041 -0.01,-0.002 0.0237,-0.0251 0.0137,-0.0254 -0.14878,-0.005 -0.29658,0.0152 -0.44531,0.01 -0.34407,-0.0149 -0.40753,-0.0313 -0.66015,-0.0801 -0.0706,-0.0127 -0.1424,-0.0262 -0.2129,-0.0391 -0.0225,-0.004 -0.0443,-0.006 -0.0664,-0.0117 -0.0167,-0.005 -0.0315,-0.019 -0.0488,-0.0195 -0.1191,-0.004 -0.23835,0.0106 -0.35742,0.006 -0.56819,-0.0223 -0.48778,-0.0153 -0.83985,-0.0762 -0.45525,-0.0811 -0.91324,-0.14634 -1.36523,-0.24414 -0.33188,-0.072 -0.66838,-0.11093 -1.00195,-0.17773 -0.23248,-0.0465 -0.0751,-0.042 -0.3711,-0.0879 -0.11632,-0.018 -0.23457,-0.0262 -0.35156,-0.0391 -0.17215,-0.0212 -0.34347,-0.0413 -0.51562,-0.0625 -0.051,-0.008 -0.10264,-0.0115 -0.15235,-0.0254 -0.006,-0.002 0.0118,-0.0168 0.006,-0.0176 -0.0429,-0.006 -0.0876,0 -0.13086,0 h -0.42773 -1.8711 -1.58593 -2.39649 -2.79297 c -0.95994,0 -1.91896,-2e-5 -2.8789,0 -0.6356,1e-5 -1.27261,4e-5 -1.90821,0 -0.73419,1.7e-4 -1.46698,0.001 -2.20117,0 -0.38667,-10e-4 -0.77354,-0.002 -1.16015,0.002 -0.51562,-0.006 -1.03109,-0.0175 -1.54688,-0.0176 z m -40.96094,2.79297 c 0.0163,0.002 0.0234,0.004 0.0352,0.004 0.0542,0.001 0.11351,0.0203 0.16211,-0.004 0.0456,-0.022 -0.1015,4.7e-4 -0.15234,0 -0.015,-5e-5 -0.0299,-2.5e-4 -0.0449,0 z m 12.34571,-0.76172 c -0.0709,0.0156 -0.13989,0.04 -0.20899,0.0625 0.0543,-0.004 0.0677,-0.006 0.10157,-0.01 0.0358,-0.017 0.14617,-0.0617 0.10742,-0.0527 z m 65.70507,0.18945 c -0.0605,-0.0188 0.11824,0.0446 0.17774,0.0664 0.0316,0.006 0.0193,5e-4 0.0371,0.004 -0.0715,-0.0243 -0.14278,-0.0479 -0.21485,-0.0703 z m -78.29882,0.56446 v 0.002 c 0.002,-6.1e-4 0.006,-0.002 0.004,-0.002 -0.001,4e-5 -0.003,-7e-5 -0.004,0 z m 38.36914,80.701172 c 9.9433,-0.19385 18.32605,1.25174 25.78125,8.24609 8.0335,11.5546 8.27361,24.61257 8.22461,38.17188 -0.019,2.54958 -0.0391,5.09878 -0.0391,7.64843 0,1.69082 0.001,3.38146 -0.01,5.07227 0,0.82802 -0.01,1.63188 -0.01,2.43555 -0.0173,11.63673 -0.74922,23.59425 -8.45312,32.91796 -6.1755,6.31616 -13.02535,8.13568 -21.71485,8.75391 -7.9098,-0.12076 -14.43252,-1.82324 -20.33203,-7.25391 -10.15569,-17.90398 -10.15569,-17.90398 -10.02929,-39.04101 0.026,-2.95558 0.0449,-5.91149 0.0449,-8.86719 -0.01,-1.95713 -0.01,-3.91396 0,-5.87109 0.003,-0.95988 0.0137,-1.89062 0.0137,-2.82227 -0.012,-11.42221 1.22009,-22.94168 8.86719,-32 h 0.004 c 5.1181,-4.80937 10.70404,-6.85938 17.65234,-7.39062 z"
     style="fill:#a1ac00;fill-opacity:1" />
  <path
     d="m 60.903871,2.1187376 c 5.1434,2.99583 8.7604,7.9061504 10.625,13.5000004 0.2632,4.94262 0.1932,9.9024 0.1875,14.85156 1e-4,1.20435 1e-4,1.20435 2e-4,2.43303 -0.03,28.48397 -1.15,56.9664 -2.042,85.433732 -0.3624,11.57033 -0.7196,23.14081 -1.0696,34.71151 -0.1093,3.60751 -0.2203,7.21496 -0.3353,10.82229 -0.2464,7.7316 -0.4693,15.46322 -0.6511,23.19666 -0.06,2.36155 -0.1286,4.72288 -0.2068,7.08388 -0.1078,3.30103 -0.1829,6.6013 -0.2501,9.90338 -0.039,0.95888 -0.077,1.91776 -0.117,2.9057 -0.098,7.6339 2.3407,12.21471 7.4253,17.78472 0.606,0.52288 1.2119,1.04576 1.8362,1.58448 0.6758,0.59949 1.3516,1.19899 2.0479,1.81665 0.697,0.60964 1.3941,1.21929 2.1123,1.84741 12.2132,11.12957 18.3036,23.76381 19.2236,40.56812 0.373899,27.74122 -2.1099,54.74925 -7.1611,82.05688 -3.96,-0.66 -7.92,-1.32 -12,-2 -0.01,-1.00811 -0.016,-2.01622 -0.025,-3.05489 -0.077,-9.49109 -0.1652,-18.98204 -0.2631,-28.47294 -0.05,-4.87961 -0.096,-9.7592 -0.1343,-14.63892 -0.037,-4.7074 -0.083,-9.41463 -0.1362,-14.12188 -0.019,-1.79773 -0.034,-3.59551 -0.045,-5.39331 -0.017,-2.51417 -0.046,-5.02792 -0.078,-7.54194 0,-0.74662 0,-1.49324 -0.01,-2.26249 -0.06,-3.71096 -0.1991,-5.34387 -2.3123,-8.51363 -1.98,0 -3.96,0 -6,0 -0.33,27.06 -0.66,54.12 -1,82 -4.95,-0.33 -9.9,-0.66 -15,-1 -0.33,-26.4 -0.66,-52.8 -1,-80 -4.6053,-1.45315 -4.6053,-1.45315 -7,0 -0.33,26.4 -0.66,52.8 -1,80 -4.62,0.33 -9.24,0.66 -14,1 -0.012,-1.47458 -0.012,-1.47458 -0.025,-2.97896 -0.077,-9.25563 -0.1651,-18.51112 -0.263,-27.76657 -0.05,-4.75854 -0.096,-9.51706 -0.1344,-14.27571 -0.037,-4.5907 -0.083,-9.18121 -0.1362,-13.77175 -0.018,-1.75308 -0.034,-3.5062 -0.045,-5.25934 -0.017,-2.45191 -0.046,-4.90339 -0.078,-7.35514 0,-0.72792 0,-1.45585 -0.01,-2.20583 -0.061,-3.67422 -0.2176,-5.24464 -2.3123,-8.3867 -1.98,0 -3.96,0 -6,0 -0.33,27.39 -0.66,54.78 -1,83 -4.4913,1.2832 -8.4528,2.33456 -12.9999996,3 -13.3456,-89.94875 -13.3456,-89.94875 4.3670996,-116.01172 3.4802,-4.37479 7.8141,-7.65395 12.2657,-10.99609 4.0683,-3.42388 6.7712,-6.9135 8.3672,-11.99219 0.1555,-2.76997 0.2116,-5.426 0.1566,-8.19067 -0.01,-0.7924 -0.016,-1.58479 -0.025,-2.40119 -0.031,-2.46982 -0.078,-4.93873 -0.1317,-7.40814 -0.024,-1.10974 -0.024,-1.10974 -0.047,-2.24191 -0.1182,-5.23696 -0.286,-10.47192 -0.4592,-15.70731 -0.054,-1.71054 -0.1086,-3.42108 -0.1624,-5.13164 -0.115,-3.64201 -0.2314,-7.28398 -0.3487,-10.92591 -0.1852,-5.76728 -0.3631,-11.53476 -0.5394,-17.30231 -0.03,-0.9789 -0.06,-1.9578 -0.091,-2.96636 -0.061,-1.99907 -0.1223,-3.99815 -0.1834,-5.99722 -0.4098,-13.39821 -0.8241,-26.79623 -1.2588,-40.193652 -0.2947,-9.08102 -0.5776,-18.16231 -0.8471,-27.24411 -0.1426,-4.79139 -0.2911,-9.58243 -0.4541,-14.37317 -0.1529,-4.49777 -0.2903,-8.99576 -0.4161,-13.49437 -0.049,-1.64403 -0.1029,-3.2879 -0.1634,-4.93154 -0.7288,-20.01522 -0.7288,-20.01522 5.7832,-28.4280004 6.782,-6.99652005 16.5456,-8.46403 25.5625,-4.5625 z"
     fill="#649fc7"
     id="path22" />
</svg>
