<?xml version="1.0" encoding="UTF-8" standalone="no"?>
<svg
   version="1.1"
   width="2581.2417"
   height="642.47845"
   id="svg24"
   sodipodi:docname="meet@mensa_transparent.svg"
   inkscape:version="1.1 (c68e22c387, 2021-05-23)"
   xmlns:inkscape="http://www.inkscape.org/namespaces/inkscape"
   xmlns:sodipodi="http://sodipodi.sourceforge.net/DTD/sodipodi-0.dtd"
   xmlns="http://www.w3.org/2000/svg"
   xmlns:svg="http://www.w3.org/2000/svg">
  <defs
     id="defs28" />
  <sodipodi:namedview
     id="namedview26"
     pagecolor="#ffffff"
     bordercolor="#666666"
     borderopacity="1.0"
     inkscape:pageshadow="2"
     inkscape:pageopacity="0.0"
     inkscape:pagecheckerboard="true"
     showgrid="false"
     showborder="true"
     borderlayer="false"
     height="1000px"
     fit-margin-top="0"
     fit-margin-left="0"
     fit-margin-right="0"
     fit-margin-bottom="0"
     inkscape:zoom="0.43931825"
     inkscape:cx="1411.2776"
     inkscape:cy="398.34448"
     inkscape:window-width="3840"
     inkscape:window-height="2054"
     inkscape:window-x="-11"
     inkscape:window-y="-11"
     inkscape:window-maximized="1"
     inkscape:current-layer="svg24" />
  <path
     d="m 1165.5041,2.1187355 c 5.1434,2.9958329 8.7604,7.9061535 10.625,13.4999995 0.2632,4.942627 0.1932,9.902403 0.1875,14.851562 0,0.802901 10e-5,1.605802 2e-4,2.433033 -0.03,28.48397 -1.15,56.966399 -2.042,85.43373 -0.3624,11.57033 -0.7196,23.14081 -1.0696,34.71151 -0.1093,3.60751 -0.2203,7.21496 -0.3353,10.82229 -0.2464,7.7316 -0.4693,15.46322 -0.6511,23.19666 -0.06,2.36155 -0.1286,4.72288 -0.2068,7.08388 -0.1078,3.30103 -0.1829,6.6013 -0.2501,9.90338 -0.039,0.95888 -0.077,1.91776 -0.117,2.9057 -0.098,7.6339 2.3407,12.21471 7.4253,17.78472 0.606,0.52288 1.2119,1.04576 1.8362,1.58448 0.6758,0.59949 1.3516,1.19899 2.0479,1.81665 0.697,0.60964 1.3941,1.21929 2.1123,1.84741 12.2132,11.12957 18.3036,23.76381 19.2236,40.56812 0.3738,27.72928 -2.0644,54.76667 -7.1611,82.05688 0.9977,0.10312 1.9954,0.20625 3.0234,0.3125 4.1264,0.59689 7.8075,1.99973 11.6016,3.6875 1.0394,0.46032 1.0394,0.46032 2.0998,0.92993 7.0475,3.24231 13.1405,7.32814 19.2752,12.07007 0.8095,0.61359 1.619,1.22719 2.4531,1.85937 21.4839,17.57775 30.0222,46.89554 33.0703,73.37281 0.7201,7.37858 0.6613,14.77968 0.6797,22.18579 0,1.16622 0,1.16622 0.01,2.35601 0.015,4.11514 0.024,8.23024 0.028,12.3454 0.01,4.20438 0.03,8.40844 0.058,12.61272 0.019,3.27495 0.024,6.54983 0.025,9.82484 0,1.54784 0.011,3.09568 0.024,4.64346 0.1293,16.18452 -1.2244,32.03465 -12.5353,44.6746 -8.5938,7.89342 -20.7965,10.62506 -32.1875,10.30469 -12.1379,-0.83087 -22.8988,-3.61613 -31.3125,-12.92969 -1.688,-2.05495 -3.125,-3.87506 -4.3125,-6.25 -0.9087,1.10408 -0.9087,1.10408 -1.8359,2.23047 -8.6227,10.04154 -17.6153,15.19512 -31.0122,16.60937 -14.884,1.10752 -29.8907,-1.10811 -41.5273,-11.08984 -16.6539,-16.22758 -18.4022,-38.61531 -18.7539,-60.67969 -0.5646,-54.52135 -0.5646,-54.52135 16.8398,-72.96875 14.9215,-13.69927 33.1077,-14.87939 52.3638,-14.28515 13.2604,0.83223 26.9109,6.23215 35.9253,16.18359 11.439,15.22862 14.4508,32.17122 14.4062,50.82422 0.01,1.3623 0.02,2.72459 0.033,4.08687 0.042,4.97824 0.054,9.95646 0.066,14.93486 0.012,4.23756 0.035,8.47473 0.075,12.71213 0.013,1.95388 0.01,3.90785 0,5.86177 -0.091,12.86053 -0.091,12.86053 4.8318,24.34802 3.553,2.76443 7.2766,2.45882 11.5836,2.23213 3.3036,-0.91767 3.8929,-1.82145 5.6875,-4.8125 2.0402,-4.95492 2.4398,-9.31314 2.4577,-14.65161 0.01,-1.28937 0.013,-2.57874 0.019,-3.90718 0,-1.40358 0,-2.80716 0,-4.21074 0,-1.45668 0.01,-2.91336 0.01,-4.37004 0.01,-3.05725 0.01,-6.11446 0.01,-9.17171 -10e-5,-3.87142 0.013,-7.74266 0.031,-11.61403 0.011,-3.01423 0.013,-6.02841 0.013,-9.04265 0,-1.42419 0.01,-2.84839 0.013,-4.27256 0.1313,-26.31183 -4.1541,-54.26901 -22.867,-74.13448 -17.7068,-16.85083 -41.1932,-21.45297 -64.8672,-21.02344 -22.7315,0.82089 -44.0345,6.50294 -60.1563,23.41797 -17.123,20.33721 -20.4671,47.00497 -20.5546,72.66406 -0.01,1.97542 -0.01,1.97542 -0.017,3.99074 -0.01,2.77938 -0.016,5.55873 -0.02,8.33812 -0,2.80905 -0.018,5.6178 -0.041,8.42676 -0.2249,28.28308 0.3968,56.01433 20.4688,78.12329 23.4213,21.72565 57.0896,20.24624 86.8125,20.8125 2.1432,0.0433 4.2864,0.0869 6.4297,0.13086 5.19,0.10629 10.3801,0.20634 15.5703,0.30664 0,8.91 0,17.82 0,27 -7.454,0.0635 -14.9069,0.1235 -22.3608,0.15525 -3.4736,0.0156 -6.9469,0.0364 -10.4202,0.0711 -36.3489,0.35288 -72.1117,-3.17699 -99.6292,-29.53494 -14.5226,-15.17025 -21.339,-35.33235 -24.5898,-55.69141 -0.1765,-1.08144 -0.3531,-2.16289 -0.5349,-3.2771 -0.8309,-6.85896 -0.651,-13.80023 -0.6683,-20.69946 -0,-0.77058 -0.01,-1.54116 -0.01,-2.3351 -0.015,-4.09078 -0.024,-8.18152 -0.028,-12.27232 -0,-3.33573 -0.018,-6.67119 -0.041,-10.00684 -0.261,-38.86074 1.711,-79.10491 29.8243,-109.03809 9.5372,-9.20327 27.4403,-22.37109 41.4574,-22.37109 -0.141,-0.95028 -0.282,-1.90056 -0.4273,-2.87964 -12.8814,-87.12335 -12.8814,-87.12335 4.7945,-113.13208 3.4801,-4.37479 7.814,-7.65395 12.2656,-10.99609 4.0684,-3.42388 6.7712,-6.9135 8.3672,-11.99219 0.1555,-2.76997 0.2116,-5.426 0.1566,-8.19067 -0.012,-1.18859 -0.012,-1.18859 -0.025,-2.40119 -0.031,-2.46982 -0.078,-4.93873 -0.1317,-7.40814 -0.016,-0.73983 -0.031,-1.47966 -0.047,-2.24191 -0.1182,-5.23696 -0.286,-10.47192 -0.4592,-15.70731 -0.054,-1.71054 -0.1086,-3.42108 -0.1624,-5.13164 -0.115,-3.64201 -0.2313,-7.28398 -0.3487,-10.92591 -0.1852,-5.76728 -0.3631,-11.53476 -0.5394,-17.30231 -0.03,-0.9789 -0.06,-1.9578 -0.091,-2.96636 -0.061,-1.99907 -0.1222,-3.99815 -0.1833,-5.99722 -0.4098,-13.39821 -0.8242,-26.79623 -1.2589,-40.193654 -0.2946,-9.081013 -0.5776,-18.162309 -0.847,-27.244105 -0.1427,-4.791389 -0.2912,-9.582429 -0.4541,-14.373174 -0.1529,-4.497771 -0.2904,-8.995755 -0.4161,-13.494363 -0.049,-1.64403 -0.103,-3.287906 -0.1635,-4.931546 -0.7287,-20.015221 -0.7287,-20.015221 5.7833,-28.4280025 6.782,-6.99651133 16.5456,-8.4640302 25.5625,-4.5625 z M 1128.4004,266.63273 c -1.9696,3.07681 -1.663,6.2267 -1.6119,9.76213 -4e-4,0.79048 -9e-4,1.58096 -0,2.39539 0,2.61365 0.025,5.22667 0.049,7.84021 0.01,1.81175 0.01,3.6235 0.013,5.43526 0.012,4.7693 0.041,9.53834 0.074,14.30754 0.031,4.86629 0.044,9.73263 0.06,14.599 0.032,9.54894 0.083,19.09769 0.1465,28.64648 4.95,-0.495 4.95,-0.495 10,-1 0.069,-10.23119 0.1228,-20.46233 0.1554,-30.69371 0.016,-4.75078 0.037,-9.5014 0.071,-14.25209 0.033,-4.58412 0.051,-9.16809 0.058,-13.75231 0.01,-1.74952 0.016,-3.49904 0.033,-5.24849 0.022,-2.4493 0.025,-4.89796 0.023,-7.34735 0.011,-0.72432 0.022,-1.44865 0.033,-2.19493 -0.019,-3.0616 -0.2389,-5.24871 -1.6446,-7.99275 -2.4737,-2.17269 -4.6197,-2.16885 -7.4574,-0.50438 z m 22.7287,0.98601 c -0.2865,2.60287 -0.3785,4.96705 -0.3406,7.5708 -4e-4,0.78058 -9e-4,1.56116 -0,2.36539 0,2.58662 0.025,5.17261 0.049,7.75912 0.01,1.79076 0.01,3.58152 0.013,5.37229 0.012,4.71836 0.041,9.43644 0.074,14.15469 0.031,4.81258 0.044,9.62521 0.06,14.43787 0.032,9.44673 0.083,18.89326 0.1465,28.33984 2.97,0 5.94,0 9,0 0.046,-10.39614 0.082,-20.79226 0.1036,-31.18849 0.01,-4.82702 0.025,-9.65397 0.047,-14.48094 0.022,-4.65543 0.034,-9.31078 0.039,-13.96625 0,-1.77908 0.011,-3.55814 0.022,-5.33719 0.014,-2.48552 0.016,-4.97077 0.016,-7.45633 0.01,-0.74087 0.014,-1.48174 0.022,-2.24506 0.1129,-4.1161 0.1129,-4.1161 -2.2488,-7.32574 -4.0462,-0.3698 -4.0462,-0.3698 -7,2 z m 25.2723,-0.97354 c -1.9468,3.01983 -1.6729,6.07357 -1.6288,9.5502 -0,0.76936 -0,1.53873 -0.01,2.33141 -0,2.5439 0.015,5.08716 0.034,7.63099 0,1.76452 0.01,3.52903 0.01,5.29355 0,3.69717 0.019,7.39412 0.041,11.09122 0.028,4.74953 0.039,9.4989 0.044,14.24851 0,3.64243 0.014,7.28481 0.026,10.92722 0.01,1.75197 0.01,3.50395 0.014,5.25593 0.01,2.44227 0.021,4.88441 0.036,7.32664 0,0.7304 0,1.4608 0,2.21333 -0.2615,3.33698 -0.2615,3.33698 1.1578,6.10454 1.5147,0.23193 3.0375,0.41215 4.5625,0.5625 1.2394,0.12568 1.2394,0.12568 2.5039,0.25391 0.6381,0.0606 1.2762,0.12117 1.9336,0.18359 0.069,-10.36158 0.1228,-20.7231 0.1554,-31.08487 0.016,-4.81131 0.037,-9.62246 0.071,-14.43368 0.033,-4.64248 0.051,-9.2848 0.058,-13.92738 0.01,-1.77185 0.016,-3.54369 0.033,-5.31548 0.022,-2.48043 0.025,-4.96023 0.023,-7.44074 0.011,-0.73368 0.021,-1.46735 0.033,-2.22327 -0.019,-3.0822 -0.2317,-5.29776 -1.6445,-8.06195 -2.4778,-2.16804 -4.6273,-2.16699 -7.4564,-0.48617 z m -41.7059,173.11807 c -7.6471,9.05832 -8.8792,20.57779 -8.8672,32 -0,0.93165 -0.01,1.86329 -0.013,2.82317 -0.01,1.95713 -0.01,3.91428 -0,5.87141 0,2.9557 -0.02,5.91039 -0.046,8.86597 -0.1264,21.13703 -0.1264,21.13703 10.0293,39.04101 5.8995,5.43067 12.4222,7.13315 20.332,7.25391 8.6895,-0.61823 15.5393,-2.43775 21.7148,-8.75391 7.7039,-9.32371 8.4359,-21.28124 8.4532,-32.91797 0,-0.80367 0.01,-1.60734 0.01,-2.43536 0.01,-1.69081 0.01,-3.38163 0.01,-5.07245 0,-2.54965 0.02,-5.09886 0.039,-7.64844 0.049,-13.55931 -0.1911,-26.61727 -8.2246,-38.17187 -7.4552,-6.99435 -15.838,-8.43994 -25.7813,-8.24609 -6.9483,0.53124 -12.5342,2.58125 -17.6523,7.39062 z"
     fill="#a1ac00"
     id="path2" />
  <path
     d="m 1330.717,330.49849 c 1.1525,0.002 2.305,0.004 3.4924,0.007 1.9519,1.2e-4 1.9519,1.2e-4 3.9432,2.3e-4 1.431,0.005 2.8619,0.0103 4.2929,0.0156 1.4559,0.002 2.9117,0.003 4.3676,0.004 3.8388,0.004 7.6775,0.0137 11.5162,0.0247 3.9143,0.0102 7.8287,0.0148 11.7431,0.0198 7.6856,0.0107 15.3711,0.0278 23.0567,0.0488 4.5111,15.55604 8.7691,31.17111 12.9297,46.82422 0.6415,2.40903 1.2831,4.81803 1.9248,7.227 1.3307,4.99732 2.66,9.99501 3.9882,14.99297 1.3636,5.1301 2.7291,10.25967 4.0967,15.38867 1.6626,6.23515 3.3228,12.47093 4.9809,18.70726 0.63,2.36819 1.2608,4.73617 1.8924,7.10394 0.8758,3.2848 1.7485,6.57042 2.6204,9.85629 0.2617,0.97904 0.5235,1.95809 0.7931,2.96681 0.2354,0.88954 0.4707,1.77909 0.7132,2.69559 0.2061,0.77468 0.4121,1.54937 0.6244,2.34753 0.4362,1.88972 0.4362,1.88972 0.4362,3.88972 0.99,0 1.98,0 3,0 0.1068,-1.09059 0.2137,-2.18119 0.3237,-3.30484 0.6804,-5.40139 2.0843,-10.56826 3.4961,-15.81771 0.2879,-1.08726 0.5759,-2.17452 0.8725,-3.29473 0.9491,-3.57842 1.9056,-7.15479 2.8624,-10.73116 0.6644,-2.49799 1.3283,-4.99608 1.9919,-7.49429 1.3906,-5.23095 2.7845,-10.46101 4.1814,-15.69028 1.7858,-6.68539 3.5654,-13.37244 5.3428,-20.06006 1.7006,-6.39825 3.4048,-12.79555 5.1089,-19.19287 0.3226,-1.21247 0.6453,-2.42493 0.9778,-3.67414 0.9196,-3.45331 1.8414,-6.90603 2.7639,-10.35857 0.2681,-1.00811 0.5363,-2.01623 0.8126,-3.05489 4.7741,-17.83459 4.7741,-17.83459 6.266,-19.32646 21.45,0 42.9,0 65,0 0,100.98 0,201.96 0,306 -13.86,0 -27.72,0 -42,0 0,-82.5 0,-165 0,-250 -1.65,0 -3.3,0 -5,0 -0.2199,0.97508 -0.4398,1.95016 -0.6663,2.95479 -2.7493,12.02317 -5.9648,23.89548 -9.2712,35.77568 -0.5679,2.04959 -1.1356,4.09926 -1.7029,6.14901 -1.4817,5.34969 -2.9673,10.69826 -4.4537,16.04661 -1.2069,4.345 -2.4109,8.6908 -3.6147,13.03665 -1.4503,5.23534 -2.9018,10.47034 -4.3537,15.70523 -0.4068,1.46669 -0.4068,1.46669 -0.8218,2.96301 -1.4826,5.34372 -2.9689,10.68641 -4.4617,16.02728 -0.428,1.53238 -0.8549,3.06505 -1.2807,4.59803 -0.5574,2.00574 -1.119,4.01027 -1.6819,6.01447 -0.3061,1.09528 -0.6122,2.19057 -0.9275,3.31904 -0.7639,2.4102 -0.7639,2.4102 -1.7639,3.4102 -2.9571,0.0887 -5.8907,0.11521 -8.8477,0.0977 -1.3296,-0.002 -1.3296,-0.002 -2.6861,-0.004 -2.843,-0.006 -5.6858,-0.0182 -8.5287,-0.0309 -1.9226,-0.005 -3.8451,-0.01 -5.7676,-0.0137 -4.7233,-0.0111 -9.4466,-0.0283 -14.1699,-0.0488 -6.0955,-20.47913 -11.7429,-41.07702 -17.3876,-61.68371 -1.4738,-5.37873 -2.9502,-10.75675 -4.4262,-16.13485 -1.1491,-4.18662 -2.2978,-8.37334 -3.445,-12.56044 -0.2107,-0.76803 -0.4213,-1.53606 -0.6382,-2.32737 -0.4137,-1.50934 -0.8268,-3.01883 -1.2393,-4.5285 -1.076,-3.9302 -2.1706,-7.85418 -3.2899,-11.77227 -0.3489,-1.22942 -0.3489,-1.22942 -0.7048,-2.48367 -0.4451,-1.56627 -0.8944,-3.13137 -1.3486,-4.69506 -0.9753,-3.44259 -1.5204,-6.20402 -1.5204,-9.81413 -1.65,0 -3.3,0 -5,0 0,82.5 0,165 0,250 -14.19,0 -28.38,0 -43,0 -0.023,-38.83817 -0.041,-77.67634 -0.051,-116.51452 -0,-4.5802 -0,-9.1604 -0,-13.7406 -2e-4,-0.91188 -5e-4,-1.82375 -8e-4,-2.76326 -0,-14.78504 -0.012,-29.57008 -0.021,-44.35511 -0.01,-15.15912 -0.015,-30.31825 -0.017,-45.47737 -0,-9.36178 -0.01,-18.72355 -0.014,-28.08533 -0.01,-6.4107 -0.01,-12.82139 -0.01,-19.23209 6e-4,-3.70435 -4e-4,-7.40867 -0.01,-11.11301 -0.01,-4.00651 -0,-8.01297 -0,-12.01948 -0,-1.18382 -0.01,-2.36765 -0.01,-3.58735 0,-1.06443 0,-2.12885 0.01,-3.22553 -4e-4,-0.92614 -7e-4,-1.85228 -0,-2.80648 0.1863,-3.12103 0.5649,-3.05418 3.7121,-3.20042 z"
     fill="#0064bc"
     id="path4" />
  <path
     d="m 3.7169858,330.49849 c 1.1524974,0.002 2.3049948,0.004 3.4924164,0.007 1.95191,1.2e-4 1.95191,1.2e-4 3.9432528,2.3e-4 1.430944,0.005 2.861888,0.0103 4.292831,0.0156 1.455887,0.002 2.911774,0.003 4.367661,0.004 3.838727,0.004 7.677416,0.0137 11.516128,0.0247 3.914383,0.0102 7.828772,0.0148 11.743164,0.0198 7.685565,0.0107 15.371098,0.0278 23.056641,0.0488 3.297,10.32812 6.126895,20.74917 8.886719,31.23047 0.465739,1.76091 0.931712,3.52176 1.397903,5.28255 1.223573,4.62388 2.444039,9.24857 3.663803,13.87345 1.210017,4.58586 2.422871,9.17096 3.635559,13.75611 1.42729,5.39703 2.854022,10.79421 4.278046,16.19211 2.274149,8.6197 4.554485,17.23766 6.851349,25.85135 0.630931,2.36965 1.261692,4.73935 1.892405,7.10906 0.397681,1.49197 0.796245,2.9837 1.195736,4.47519 0.544637,2.03344 1.086349,4.06764 1.627435,6.10203 0.30505,1.14145 0.610095,2.2829 0.924395,3.45894 0.64665,2.66874 0.64665,2.66874 0.64665,4.66874 0.99,0 1.98,0 3,0 0.0822,-1.00031 0.16436,-2.00062 0.24903,-3.03125 0.87954,-6.96631 2.93796,-13.7047 4.7666,-20.46875 0.41239,-1.54078 0.82432,-3.08169 1.23582,-4.62271 1.09961,-4.1124 2.20581,-8.22301 3.31352,-12.33323 1.14297,-4.24473 2.28044,-8.49093 3.41868,-12.73693 2.03544,-7.58918 4.07655,-15.17682 6.12027,-22.76378 1.709,-6.34542 3.41189,-12.69246 5.11303,-19.03999 1.21134,-4.51747 2.42594,-9.03405 3.64206,-13.55023 0.55113,-2.04761 1.10134,-4.09546 1.65064,-6.14356 0.7473,-2.78381 1.49895,-5.5664 2.25207,-8.34863 0.21571,-0.80668 0.43143,-1.61336 0.65367,-2.44449 1.47,-5.40184 1.47,-5.40184 2.58461,-6.51645 21.45,0 42.9,0 65,0 0,100.98 0,201.96 0,306 -13.86,0 -27.72,0 -42,0 0,-82.5 0,-165 0,-250 -1.65,0 -3.3,0 -5,0 -0.22575,0.99611 -0.45151,1.99222 -0.68411,3.01851 -2.61253,11.38836 -5.61584,22.64374 -8.74557,33.89946 -0.51829,1.87348 -1.03628,3.74704 -1.55399,5.62068 -1.35274,4.89286 -2.70927,9.78465 -4.06674,14.6762 -1.36421,4.91803 -2.72522,9.83696 -4.0863,14.75586 -0.53314,1.92661 -1.06628,3.85321 -1.59943,5.77981 -0.26008,0.93984 -0.52016,1.87968 -0.78812,2.848 -0.77238,2.79041 -1.54523,5.58069 -2.3182,8.37094 -3.41659,12.33529 -6.80502,24.67764 -10.15754,37.03054 -13.53,0 -27.06,0 -41,0 -7.131792,-24.82895 -14.129222,-49.69102 -21.008301,-74.59106 -1.369458,-4.95584 -2.74523,-9.90991 -4.122186,-14.86367 -1.072283,-3.86197 -2.140041,-7.72519 -3.20653,-11.58877 -0.506247,-1.83092 -1.014202,-3.66137 -1.523933,-5.49132 -0.703021,-2.52542 -1.399616,-5.05253 -2.094616,-7.58017 -0.208708,-0.74415 -0.417415,-1.48829 -0.632447,-2.25499 -0.921531,-3.37646 -1.411987,-6.09703 -1.411987,-9.63002 -1.65,0 -3.3,0 -5,0 0,82.5 0,165 0,250 -14.19,0 -28.38,0 -43.0000001,0 -0.022584,-38.83817 -0.040497,-77.67634 -0.051065,-116.51452 -0.00125,-4.5802 -0.00255,-9.1604 -0.00387,-13.7406 -2.623e-4,-0.91188 -5.247e-4,-1.82375 -7.949e-4,-2.76326 C 0.06899,488.81532 0.061105,474.03028 0.051924,459.24525 0.042584,444.08613 0.037021,428.927 0.034988,413.76788 0.033608,404.4061 0.029258,395.04433 0.02116,385.68255 0.01589,379.27185 0.01427,372.86116 0.01558,366.45046 0.0162236,362.74611 0.015204,359.04179 0.00988,355.33745 0.00416,351.33094 0.00608,347.32448 0.00883,343.31797 0.00592,342.13415 0.003,340.95032 0,339.73062 c 0.00199,-1.06443 0.00398,-2.12885 0.00603,-3.22553 -3.797e-4,-0.92614 -7.595e-4,-1.85228 -0.00115,-2.80648 0.1863546,-3.12073 0.5649382,-3.05388 3.7121058,-3.20012 z"
     fill="#0064bc"
     id="path6" />
  <path
     d="m 2384.1291,406.61874 c 6.9844,-0.0517 13.9688,-0.0861 20.9533,-0.10987 2.365,-0.01 4.7299,-0.0235 7.0948,-0.041 19.7271,-0.14256 39.7728,-0.12069 59.0769,4.46338 0.9532,0.21873 1.9063,0.43747 2.8884,0.66284 17.2141,4.0905 32.4445,11.35486 44.9866,24.02466 0.7695,0.73605 1.5391,1.4721 2.332,2.23046 19.7101,20.04589 20.9857,48.0256 20.8633,74.44532 -0,2.38039 -0.01,4.76077 -0.01,7.14116 -0.01,6.22566 -0.027,12.45122 -0.049,18.67683 -0.021,6.3686 -0.03,12.73722 -0.04,19.10584 -0.021,12.46684 -0.055,24.93361 -0.098,37.40039 1.0393,0.11594 2.0786,0.23187 3.1494,0.35132 3.8618,0.43151 7.7232,0.86659 11.5845,1.30273 1.6701,0.18815 3.3404,0.37533 5.0107,0.56153 2.4031,0.26804 4.8059,0.53957 7.2085,0.81176 0.7449,0.0823 1.4899,0.16467 2.2574,0.2495 3.3282,0.38017 6.5692,0.77839 9.7895,1.72316 0.025,5.25105 0.043,10.50208 0.055,15.75317 0.01,1.78777 0.012,3.57553 0.021,5.36329 0.012,2.56405 0.018,5.12805 0.022,7.69213 0.01,0.80417 0.01,1.60834 0.016,2.43688 2e-4,1.91855 -0.051,3.83698 -0.1133,5.75453 -1.9036,1.9036 -5.2835,1.23199 -7.8147,1.29712 -1.0682,0.0295 -1.0682,0.0295 -2.1581,0.0596 -2.3644,0.0641 -4.729,0.12131 -7.0936,0.17849 -1.6353,0.043 -3.2705,0.0864 -4.9058,0.13023 -4.312,0.11442 -8.6242,0.223 -12.9365,0.3304 -4.3971,0.11053 -8.794,0.22654 -13.1909,0.3421 -8.6328,0.22604 -17.2662,0.44596 -25.8998,0.66206 -0.8609,-5.90085 -1.318,-11.67238 -1.5625,-17.625 -0.043,-0.99459 -0.085,-1.98918 -0.1287,-3.01392 -0.3972,-10.12163 -0.4029,-20.23364 -0.3088,-30.36108 -1.32,0 -2.64,0 -4,0 -0.082,1.25812 -0.165,2.51625 -0.25,3.8125 -1.5331,13.54183 -8.8212,25.12332 -18.75,34.1875 -20.7589,14.99977 -48.8386,17.49258 -73.5625,13.875 -17.2271,-2.85225 -33.3904,-9.6262 -44.7305,-23.44922 -11.9188,-16.93726 -14.4586,-37.98893 -11.0117,-58.10156 3.8164,-18.24762 14.0765,-31.62769 29.0117,-42.29297 19.3498,-11.93581 42.8497,-16.30065 65.293,-17.03125 0.6598,-0.0219 1.3197,-0.0438 1.9995,-0.0664 9.7477,-0.27739 19.4049,0.19919 29.1255,0.9414 1.0549,0.0784 2.1098,0.15678 3.1968,0.23755 5.7651,0.47959 11.1132,1.29937 16.6782,2.88746 -0.5626,-15.28672 -1.5408,-28.99911 -13.0625,-40.1875 -5.1389,-4.33912 -10.5984,-6.69678 -16.9375,-8.8125 -0.8779,-0.29649 -1.7557,-0.59297 -2.6602,-0.89844 -17.4988,-5.08599 -36.7313,-4.39514 -54.8044,-4.76026 -10.1987,-0.21046 -20.3566,-0.66906 -30.5354,-1.3413 -0.1959,-7.8599 0.5665,-15.5057 1.4375,-23.3125 0.1347,-1.26135 0.2694,-2.5227 0.4082,-3.82227 1.055,-9.65946 1.055,-9.65946 2.1543,-13.86523 z m 19,145 c -6.9304,9.00423 -8.0441,17.94596 -7,29 1.5976,8.20238 6.1645,13.38981 13,18 16.5628,8.47798 37.4617,6.27475 54.75,1.19141 6.9446,-2.44147 12.5642,-6.59196 18.25,-11.19141 0.9919,-0.78311 0.9919,-0.78311 2.0039,-1.58203 7.9124,-6.99198 12.52,-18.11788 13.9961,-28.41797 0.2055,-3.36162 0.1929,-6.69642 0.125,-10.0625 -0.01,-0.86561 -0.018,-1.73121 -0.027,-2.62305 -0.023,-2.10494 -0.059,-4.20973 -0.098,-6.31445 -6.5703,-3.28516 -16.3374,-2.16892 -23.5742,-2.20313 -1.4513,-0.009 -1.4513,-0.009 -2.9319,-0.0173 -2.0327,-0.009 -4.0654,-0.0159 -6.0982,-0.0198 -3.0586,-0.01 -6.1166,-0.0408 -9.175,-0.0723 -18.17,-0.0985 -39.4531,0.64074 -53.2207,14.31253 z"
     fill="#0064bd"
     id="path8" />
  <path
     d="m 687.40252,426.0953 c 20.06346,18.56876 29.07039,45.72284 30.72656,72.52343 0.12048,4.89321 0.14418,9.78205 0.13037,14.67652 -0.005,2.25308 -3e-5,4.50596 0.006,6.75903 -6.6e-4,1.4681 -0.002,2.9362 -0.004,4.4043 -0.001,1.30316 -0.002,2.60632 -0.003,3.94898 -0.15615,5.08195 -0.66908,10.14771 -1.1294,15.21118 -50.48999,0.33 -100.98,0.66 -152.99999,1 5.84268,18.98868 13.6177,34.56708 31.6997,44.2727 30.222,15.32693 66.66331,12.61019 98.98902,6.10767 2.31128,-0.38037 2.31128,-0.38037 6.31128,-0.38037 1.85497,7.71237 3.02479,15.46031 4.12499,23.3125 0.27264,1.89202 0.27264,1.89202 0.55079,3.82226 1.32421,9.34421 1.32421,9.34421 1.32421,13.86524 -42.97674,8.27147 -93.70152,12.5669 -133.99999,-8 -1.05445,-0.53367 -2.1089,-1.06735 -3.19531,-1.61719 -21.1136,-11.52152 -37.88462,-31.34758 -45.21045,-54.33008 -11.1943,-38.66955 -10.94976,-84.62178 8.59375,-120.59449 3.39611,-5.99674 7.09644,-11.41022 11.81201,-16.45825 0.80824,-0.89847 1.61649,-1.79695 2.44922,-2.72265 10.66553,-11.31947 22.91732,-18.29232 37.55078,-23.27735 0.92555,-0.31711 1.8511,-0.63422 2.80468,-0.96093 33.10892,-9.69275 72.96763,-4.03249 99.46878,18.4375 z m -93.27344,24.52343 c -0.84047,0.43313 -1.68094,0.86625 -2.54688,1.3125 -14.82856,8.26805 -22.5771,21.86929 -27.39452,37.80078 -1.59317,6.0571 -2.35567,11.56033 -3.0586,17.88672 37.95,0 75.9,0 115,0 -0.81321,-14.37269 -0.81321,-14.37269 -4,-28 -0.27715,-0.87269 -0.5543,-1.74539 -0.83985,-2.64453 -3.85594,-10.77348 -11.89417,-20.32336 -21.93359,-25.89453 -17.01699,-7.97234 -38.16064,-9.28414 -55.22656,-0.46094 z"
     fill="#0064bc"
     id="path10" />
  <path
     d="m 430.31658,426.74374 c 13.35426,12.48348 20.89581,27.98258 25.625,45.4375 0.19505,0.71825 0.3901,1.43649 0.59106,2.17651 3.29902,13.12767 3.9009,26.16162 3.80225,39.61572 -0.0185,2.60386 -0.0205,5.20736 -0.0203,7.81128 -0.005,1.68295 -0.0107,3.36589 -0.0176,5.04883 -0.001,0.76474 -0.002,1.52947 -0.003,2.31737 -0.006,0.73179 -0.0128,1.46358 -0.0193,2.21755 -0.004,0.62982 -0.008,1.25964 -0.0115,1.90855 -0.1977,3.46224 -0.70358,6.90059 -1.13372,10.34169 -50.49,0 -100.98,0 -152.99999,0 5.88175,20.58612 14.35234,35.44673 33.21679,46.0542 28.70484,15.22488 66.74367,11.57299 97.37427,5.32617 2.50826,-0.39605 4.87388,-0.44535 7.40893,-0.38037 0.71648,5.03479 1.42843,10.07019 2.13623,15.1062 0.24128,1.71209 0.48378,3.42401 0.72754,5.13574 0.35074,2.46448 0.69703,4.92955 1.04248,7.39478 0.10937,0.76165 0.21874,1.5233 0.33142,2.30803 0.51585,3.71217 0.89196,7.30577 0.76233,11.05525 -46.05255,8.86345 -101.37038,13.01851 -142.99999,-13 -3.47669,-2.51474 -6.74413,-5.20842 -10,-8 -0.88365,-0.66709 -0.88365,-0.66709 -1.78516,-1.34766 -20.74365,-16.03587 -29.28953,-42.86078 -33.21484,-67.65234 -0.19465,-1.2143 -0.3893,-2.42859 -0.58984,-3.67969 -4.02449,-34.22938 1.09854,-72.8761 21.58984,-101.32031 3.42131,-4.24191 7.15183,-8.14615 11,-12 0.65613,-0.66774 1.31227,-1.33547 1.98828,-2.02344 34.3975,-32.55607 100.53019,-30.65862 135.19924,0.14844 z M 322.85564,459.6617 c -12.4678,12.70184 -18.72656,30.37799 -18.72656,47.95704 37.62,0 75.24,0 114,0 0,-16.74462 -2.58499,-33.04242 -14,-46 -0.53497,-0.61618 -1.06993,-1.23235 -1.6211,-1.86719 -9.47663,-10.19887 -23.01047,-14.56108 -36.66797,-15.16406 -16.15946,0.13608 -30.7278,4.06014 -42.98437,15.07421 z"
     fill="#0064bc"
     id="path12" />
  <path
     d="m 1758.1291,427.61874 c 20.4164,19.80493 28.7309,48.81998 29.2136,76.6896 0.023,3.09154 0.017,6.18202 -0.01,9.27353 -0.018,2.36461 -0.021,4.72883 -0.02,7.09351 -0,1.53971 -0.011,3.07943 -0.018,4.61914 -0,0.68878 -0,1.37757 -0,2.08723 -0.052,5.51182 -0.6095,10.68561 -1.1646,16.23699 -50.49,0.33 -100.98,0.66 -153,1 6.1969,20.13994 14.6275,34.6943 33.2329,45.07031 28.6043,15.04908 66.8845,11.84895 97.3581,5.2124 2.6967,-0.31648 4.7894,0.0569 7.409,0.71729 0.7156,5.05322 1.4275,10.10694 2.1362,15.16113 0.2415,1.71889 0.484,3.43764 0.7275,5.15625 0.3501,2.47198 0.6967,4.94443 1.0425,7.41699 0.1094,0.76682 0.2188,1.53363 0.3314,2.32367 0.4675,3.36407 0.7624,6.53703 0.7624,9.94196 -46.0669,8.86621 -101.3547,13.00775 -143,-13 -3.4839,-2.50758 -6.7534,-5.19482 -10,-8 -1.0461,-0.84691 -1.0461,-0.84691 -2.1133,-1.71094 -8.4682,-7.00473 -14.6118,-15.71876 -19.8867,-25.28906 -0.6458,-1.15049 -0.6458,-1.15049 -1.3047,-2.32422 -10.3154,-19.38131 -12.9205,-41.10049 -12.8828,-62.73828 9e-4,-0.69269 0,-1.38538 0,-2.09906 0.03,-10.07953 0.2272,-19.90839 2.1846,-29.83844 0.156,-0.80019 0.312,-1.60038 0.4727,-2.42481 4.6506,-23.19357 13.6726,-42.69567 30.5272,-59.57519 0.6561,-0.66774 1.3122,-1.33547 1.9883,-2.02344 35.0678,-33.19054 101.0933,-30.20759 136.0117,1.02344 z m -108.2735,32.04296 c -12.4678,12.70184 -18.7265,30.37799 -18.7265,47.95704 37.62,0 75.24,0 114,0 0,-16.8025 -2.6161,-32.97357 -14,-46 -0.477,-0.59297 -0.9539,-1.18594 -1.4453,-1.79688 -7.9848,-9.06813 -21.1989,-13.9904 -32.9922,-14.95312 -17.4109,-0.99914 -33.6092,2.90707 -46.836,14.79296 z"
     fill="#0064bc"
     id="path14" />
  <path
     d="m 2278.5041,406.05624 c 1.1351,0.12213 2.2702,0.24427 3.4397,0.37011 7.7937,0.93136 7.7937,0.93136 11.1853,3.19239 -2.475,19.305 -2.475,19.305 -5,39 -3.1969,-0.14438 -6.3938,-0.28875 -9.6875,-0.4375 -1.0828,-0.0482 -2.1656,-0.0964 -3.2813,-0.146 -4.7411,-0.21247 -9.4805,-0.4356 -14.2187,-0.70557 -49.6359,-3.92212 -49.6359,-3.92212 -95.625,11.16407 -4.4155,4.28936 -5.8795,9.06698 -6.1875,15.125 0.3786,4.78175 1.1916,8.03867 4.3125,11.75 7.3489,5.13368 16.587,7.32024 25.1601,9.53515 0.8151,0.21266 1.6302,0.42532 2.4699,0.64443 6.5453,1.69928 13.1051,3.33863 19.6669,4.97276 3.0269,0.75697 6.0538,1.51443 9.0805,2.27222 2.0464,0.5102 4.0936,1.01702 6.1416,1.5205 19.9207,4.90494 40.366,10.55036 56.1685,24.30494 0.6149,0.49758 1.2297,0.99516 1.8633,1.50781 7.3689,6.503 12.895,17.73589 14.1367,27.49219 0.1315,0.97711 0.2629,1.95422 0.3984,2.96094 1.8616,18.07854 -0.6587,36.92328 -12.1914,51.51562 -18.8809,21.58776 -48.3184,26.83151 -75.6853,28.95679 -33.3934,2.20362 -69.8773,2.27803 -102.5217,-5.43335 -0.33,-0.33 -0.66,-0.66 -1,-1 0.06,-8.88845 1.4084,-17.81754 2.5,-26.625 0.1305,-1.05518 0.261,-2.11036 0.3955,-3.19751 1.0605,-8.32738 1.0605,-8.32738 2.1045,-12.17749 0.8846,0.11275 0.8846,0.11275 1.7871,0.22778 7.7316,0.9768 15.4701,1.8884 23.2129,2.77222 1.2517,0.14405 2.5033,0.28811 3.7929,0.43652 52.4192,7.00398 52.4192,7.00398 101.2071,-7.43652 4.1741,-3.87371 6.7036,-8.17514 7.3008,-13.86719 0.042,-8.51869 0.042,-8.51869 -3.3008,-16.13281 -5.2553,-4.93492 -10.6297,-7.26241 -17.5313,-9.00391 -1.3601,-0.36576 -1.3601,-0.36576 -2.7477,-0.7389 -2.902,-0.77337 -5.8101,-1.51828 -8.721,-2.25719 -0.9528,-0.24514 -1.9056,-0.49029 -2.8872,-0.74286 -7.8565,-2.01986 -15.7256,-3.9894 -23.6016,-5.9317 -10.757,-2.65889 -21.4111,-5.46678 -31.9331,-8.95435 -1.2564,-0.41523 -1.2564,-0.41523 -2.5382,-0.83885 -15.6417,-5.32746 -31.9857,-13.23881 -40.5126,-28.09865 -7.9663,-16.32744 -7.1982,-35.52716 -1.4961,-52.50391 7.5959,-18.01447 20.9942,-28.14394 38.5352,-35.40625 10.5305,-3.76834 21.4174,-5.75155 32.4336,-7.52343 1.0622,-0.17209 1.0622,-0.17209 2.146,-0.34766 29.7655,-4.61414 61.3354,-3.44527 91.229,-0.21484 z"
     fill="#0064bc"
     id="path16" />
  <path
     d="m 2018.1291,425.61874 c 16.8558,17.73981 20.1718,41.28121 20.1135,64.77929 -3e-4,1.59722 -10e-5,3.19444 4e-4,4.79166 3e-4,4.31758 -0.01,8.63513 -0.013,12.95271 -0.01,4.51901 -0.01,9.03801 -0.01,13.55702 -0,8.54916 -0.011,17.0983 -0.021,25.64745 -0.011,9.7364 -0.017,19.47279 -0.022,29.20919 -0.01,20.0209 -0.029,40.04179 -0.05,60.06268 -15.18,0 -30.36,0 -46,0 -0.02,-4.50616 -0.04,-9.01232 -0.06,-13.65503 -0.067,-14.91181 -0.1445,-29.82355 -0.2275,-44.73528 -0.05,-9.03825 -0.096,-18.0765 -0.1343,-27.11482 -0.033,-7.88263 -0.073,-15.76519 -0.1209,-23.64774 -0.025,-4.16935 -0.047,-8.33866 -0.061,-12.50806 -0.013,-3.9341 -0.035,-7.86804 -0.064,-11.80206 -0.01,-1.43453 -0.015,-2.86909 -0.017,-4.30366 -0.026,-15.07732 -0.4522,-30.9315 -11.3236,-42.47945 -8.6726,-7.63527 -19.6751,-10.13716 -30.9961,-9.96484 -13.7612,0.96884 -27.5152,4.20311 -37.1836,14.75781 -11.2503,15.22661 -12.9339,32.78651 -13.0178,51.14282 -0.01,1.36092 -0.02,2.72184 -0.03,4.08275 -0.027,3.66875 -0.048,7.33752 -0.068,11.00632 -0.022,3.8437 -0.049,7.68737 -0.076,11.53104 -0.05,7.26704 -0.095,14.53409 -0.1381,21.80117 -0.049,8.27819 -0.1043,16.55634 -0.1596,24.83449 -0.1136,17.01815 -0.2198,34.03633 -0.323,51.05454 -15.18,0 -30.36,0 -46,0 0,-75.24 0,-150.48 0,-228 13.86,0 27.72,0 42,0 0.495,4.90875 0.99,9.8175 1.5,14.875 0.1567,1.52737 0.3133,3.05475 0.4746,4.62841 0.7103,7.19348 1.1954,14.26016 1.0254,21.49659 1.65,0 3.3,0 5,0 -0.082,-0.88688 -0.165,-1.77375 -0.25,-2.6875 0.062,-10.16402 4.5723,-19.84609 11.25,-27.3125 2.8267,-2.64367 5.7636,-4.88212 9,-7 0.5904,-0.38801 1.1808,-0.77602 1.7891,-1.17579 28.8186,-16.44053 71.658,-8.56231 94.211,14.17579 z"
     fill="#0064bc"
     id="path18" />
  <path
     d="m 818.12908,339.61874 c 15.51,0 31.02,0 47,0 0,22.77 0,45.54 0,69 34.32,0 68.64,0 104,0 0,12.54 0,25.08 0,38 -34.32,0 -68.64,0 -104,0 0.091,19.36241 0.091,19.36241 0.20898,38.72461 0.0542,7.90647 0.10527,15.81288 0.13745,23.71948 0.0262,6.38031 0.0667,12.76039 0.11675,19.14055 0.0166,2.42419 0.0281,4.84842 0.0344,7.27266 -0.46985,26.89403 -0.46985,26.89403 11.38911,50.23254 14.70274,13.66287 35.47683,13.47354 54.38232,13.06836 9.1573,-0.38829 18.26045,-1.47605 27.36377,-2.50195 4.49822,-0.49908 8.84555,-0.81726 13.36719,-0.65625 1.4924,7.74268 2.661,15.48739 3.625,23.3125 0.13406,1.04479 0.26812,2.08957 0.40625,3.16602 0.60643,4.86694 1.1549,9.60538 0.96875,14.52148 -29.45414,4.8873 -60.35142,8.01735 -90,3 -0.73864,-0.12359 -1.47727,-0.24718 -2.23828,-0.37451 -21.0516,-3.69838 -39.74695,-12.01688 -52.41016,-29.96143 -15.64256,-24.53578 -14.51587,-54.34381 -14.44922,-82.29297 0.002,-2.32982 0.003,-4.65965 0.004,-6.98948 0.004,-6.07432 0.0136,-12.14861 0.0247,-18.22292 0.0121,-7.31912 0.0166,-14.63826 0.0224,-21.95739 0.01,-11.06712 0.0288,-22.13418 0.0462,-33.2013 -18.81,0 -37.62,0 -57,0 0,-12.54 0,-25.08 0,-38 18.81,0 37.62,0 57,0 0,-22.77 0,-45.54 0,-69 z"
     fill="#0064bc"
     id="path20" />
  <path
     d="m 1165.5041,2.1187355 c 5.1434,2.9958329 8.7604,7.9061535 10.625,13.4999995 0.2632,4.942627 0.1932,9.902403 0.1875,14.851562 10e-5,1.204352 10e-5,1.204352 2e-4,2.433033 -0.03,28.48397 -1.15,56.966399 -2.042,85.43373 -0.3624,11.57033 -0.7196,23.14081 -1.0696,34.71151 -0.1093,3.60751 -0.2203,7.21496 -0.3353,10.82229 -0.2464,7.7316 -0.4693,15.46322 -0.6511,23.19666 -0.06,2.36155 -0.1286,4.72288 -0.2068,7.08388 -0.1078,3.30103 -0.1829,6.6013 -0.2501,9.90338 -0.039,0.95888 -0.077,1.91776 -0.117,2.9057 -0.098,7.6339 2.3407,12.21471 7.4253,17.78472 0.606,0.52288 1.2119,1.04576 1.8362,1.58448 0.6758,0.59949 1.3516,1.19899 2.0479,1.81665 0.697,0.60964 1.3941,1.21929 2.1123,1.84741 12.2132,11.12957 18.3036,23.76381 19.2236,40.56812 0.3739,27.74122 -2.1099,54.74925 -7.1611,82.05688 -3.96,-0.66 -7.92,-1.32 -12,-2 -0.01,-1.00811 -0.016,-2.01622 -0.025,-3.05489 -0.077,-9.49109 -0.1652,-18.98204 -0.2631,-28.47294 -0.05,-4.87961 -0.096,-9.7592 -0.1343,-14.63892 -0.037,-4.7074 -0.083,-9.41463 -0.1362,-14.12188 -0.019,-1.79773 -0.034,-3.59551 -0.045,-5.39331 -0.017,-2.51417 -0.046,-5.02792 -0.078,-7.54194 -0,-0.74662 -0,-1.49324 -0.01,-2.26249 -0.06,-3.71096 -0.1991,-5.34387 -2.3123,-8.51363 -1.98,0 -3.96,0 -6,0 -0.33,27.06 -0.66,54.12 -1,82 -4.95,-0.33 -9.9,-0.66 -15,-1 -0.33,-26.4 -0.66,-52.8 -1,-80 -4.6053,-1.45315 -4.6053,-1.45315 -7,0 -0.33,26.4 -0.66,52.8 -1,80 -4.62,0.33 -9.24,0.66 -14,1 -0.012,-1.47458 -0.012,-1.47458 -0.025,-2.97896 -0.077,-9.25563 -0.1651,-18.51112 -0.263,-27.76657 -0.05,-4.75854 -0.096,-9.51706 -0.1344,-14.27571 -0.037,-4.5907 -0.083,-9.18121 -0.1362,-13.77175 -0.018,-1.75308 -0.034,-3.5062 -0.045,-5.25934 -0.017,-2.45191 -0.046,-4.90339 -0.078,-7.35514 -0,-0.72792 -0,-1.45585 -0.01,-2.20583 -0.061,-3.67422 -0.2176,-5.24464 -2.3123,-8.3867 -1.98,0 -3.96,0 -6,0 -0.33,27.39 -0.66,54.78 -1,83 -4.4913,1.2832 -8.4528,2.33456 -13,3 -13.3456,-89.94875 -13.3456,-89.94875 4.3671,-116.01172 3.4802,-4.37479 7.8141,-7.65395 12.2657,-10.99609 4.0683,-3.42388 6.7712,-6.9135 8.3672,-11.99219 0.1555,-2.76997 0.2116,-5.426 0.1566,-8.19067 -0.01,-0.7924 -0.016,-1.58479 -0.025,-2.40119 -0.031,-2.46982 -0.078,-4.93873 -0.1317,-7.40814 -0.024,-1.10974 -0.024,-1.10974 -0.047,-2.24191 -0.1182,-5.23696 -0.286,-10.47192 -0.4592,-15.70731 -0.054,-1.71054 -0.1086,-3.42108 -0.1624,-5.13164 -0.115,-3.64201 -0.2314,-7.28398 -0.3487,-10.92591 -0.1852,-5.76728 -0.3631,-11.53476 -0.5394,-17.30231 -0.03,-0.9789 -0.06,-1.9578 -0.091,-2.96636 -0.061,-1.99907 -0.1223,-3.99815 -0.1834,-5.99722 -0.4098,-13.39821 -0.8241,-26.79623 -1.2588,-40.193654 -0.2947,-9.081013 -0.5776,-18.162309 -0.8471,-27.244105 -0.1426,-4.791389 -0.2911,-9.582429 -0.4541,-14.373174 -0.1529,-4.497771 -0.2903,-8.995755 -0.4161,-13.494363 -0.049,-1.64403 -0.1029,-3.287906 -0.1634,-4.931546 -0.7288,-20.015221 -0.7288,-20.015221 5.7832,-28.4280025 6.782,-6.99651133 16.5456,-8.4640302 25.5625,-4.5625 z"
     fill="#649fc7"
     id="path22" />
</svg>
