<svg width="1618" height="851.5" xmlns="http://www.w3.org/2000/svg" xmlns:xlink="http://www.w3.org/1999/xlink" fill="#ffffff"><defs><style>
  text {
    fill: #212529;
    font-family: Helvetica Neue, Helvetica, Arial, sans-serif;
    font-size: 16px;
  }

  marker, text {
    fill-opacity: 1;
  }

  * {
    overflow: visible;
  }
</style></defs><svg x="92" y="15" width="500" height="310" class="User" fill="#ffffff"><g><rect width="100%" height="40" stroke="none" fill="white" class="sc-fqkvVR eDtKfR"></rect><rect y="40" width="100%" height="270" stroke="none" fill="white" class="sc-fqkvVR eDtKfR"></rect><svg height="40"><text x="50%" y="50%" dominant-baseline="middle" text-anchor="middle" font-weight="bold" pointer-events="none">User</text></svg><svg x="0" y="40.5" width="499" height="30" class="- userID: UUID" fill="#ffffff"><g><rect width="100%" height="100%" stroke="none" fill="white" class="sc-fqkvVR eDtKfR"></rect><text x="10" y="50%" dominant-baseline="middle" text-anchor="start" font-weight="normal" pointer-events="none">- userID: UUID</text></g></svg><svg x="0" y="70.5" width="499" height="30" class="- name: String" fill="#ffffff"><g><rect width="100%" height="100%" stroke="none" fill="white" class="sc-fqkvVR eDtKfR"></rect><text x="10" y="50%" dominant-baseline="middle" text-anchor="start" font-weight="normal" pointer-events="none">- name: String</text></g></svg><svg x="0" y="100.5" width="499" height="30" class="- gender: ProfileAttributes" fill="#ffffff"><g><rect width="100%" height="100%" stroke="none" fill="white" class="sc-fqkvVR eDtKfR"></rect><text x="10" y="50%" dominant-baseline="middle" text-anchor="start" font-weight="normal" pointer-events="none">- gender: ProfileAttributes</text></g></svg><svg x="0" y="130.5" width="499" height="30" class="- degree: String" fill="#ffffff"><g><rect width="100%" height="100%" stroke="none" fill="white" class="sc-fqkvVR eDtKfR"></rect><text x="10" y="50%" dominant-baseline="middle" text-anchor="start" font-weight="normal" pointer-events="none">- degree: String</text></g></svg><svg x="0" y="160.5" width="499" height="30" class="- birthday: LocalDate" fill="#ffffff"><g><rect width="100%" height="100%" stroke="none" fill="white" class="sc-fqkvVR eDtKfR"></rect><text x="10" y="50%" dominant-baseline="middle" text-anchor="start" font-weight="normal" pointer-events="none">- birthday: LocalDate</text></g></svg><svg x="0" y="190.5" width="499" height="30" class="- interests: ListInterest" fill="#ffffff"><g><rect width="100%" height="100%" stroke="none" fill="white" class="sc-fqkvVR eDtKfR"></rect><text x="10" y="50%" dominant-baseline="middle" text-anchor="start" font-weight="normal" pointer-events="none">- interests: List&lt;Interest&gt;</text></g></svg><svg x="0" y="220.5" width="499" height="30" class="- semester: Integer" fill="#ffffff"><g><rect width="100%" height="100%" stroke="none" fill="white" class="sc-fqkvVR eDtKfR"></rect><text x="10" y="50%" dominant-baseline="middle" text-anchor="start" font-weight="normal" pointer-events="none">- semester: Integer</text></g></svg><svg x="0" y="250.5" width="499" height="30" class="- bio: String" fill="#ffffff"><g><rect width="100%" height="100%" stroke="none" fill="white" class="sc-fqkvVR eDtKfR"></rect><text x="10" y="50%" dominant-baseline="middle" text-anchor="start" font-weight="normal" pointer-events="none">- bio: String</text></g></svg><svg x="0" y="280.5" width="499" height="30" class="+ register: User" fill="#ffffff"><g><rect width="100%" height="100%" stroke="none" fill="white" class="sc-fqkvVR eDtKfR"></rect><text x="10" y="50%" dominant-baseline="middle" text-anchor="start" font-weight="normal" pointer-events="none">+ register: User</text></g></svg><rect width="100%" height="100%" stroke="black" fill="none" class="sc-fqkvVR jAaomD"></rect><path d="M 0 40 H 500" stroke="black" fill="white" class="sc-gEvEer fkqzOi"></path><path d="M 0 280 H 500" stroke="black" fill="white" class="sc-gEvEer fkqzOi"></path></g></svg><svg x="822" y="15" width="780" height="250" class="MatchRequest" fill="#ffffff"><g><rect width="100%" height="40" stroke="none" fill="white" class="sc-fqkvVR eDtKfR"></rect><rect y="40" width="100%" height="210" stroke="none" fill="white" class="sc-fqkvVR eDtKfR"></rect><svg height="40"><text x="50%" y="50%" dominant-baseline="middle" text-anchor="middle" font-weight="bold" pointer-events="none">MatchRequest</text></svg><svg x="0" y="40.5" width="779" height="30" class="- requestID: UUID" fill="#ffffff"><g><rect width="100%" height="100%" stroke="none" fill="white" class="sc-fqkvVR eDtKfR"></rect><text x="10" y="50%" dominant-baseline="middle" text-anchor="start" font-weight="normal" pointer-events="none">- requestID: UUID</text></g></svg><svg x="0" y="70.5" width="779" height="30" class="- owner: User" fill="#ffffff"><g><rect width="100%" height="100%" stroke="none" fill="white" class="sc-fqkvVR eDtKfR"></rect><text x="10" y="50%" dominant-baseline="middle" text-anchor="start" font-weight="normal" pointer-events="none">- owner: User</text></g></svg><svg x="0" y="100.5" width="779" height="30" class="- date: LocalDate" fill="#ffffff"><g><rect width="100%" height="100%" stroke="none" fill="white" class="sc-fqkvVR eDtKfR"></rect><text x="10" y="50%" dominant-baseline="middle" text-anchor="start" font-weight="normal" pointer-events="none">- date: LocalDate</text></g></svg><svg x="0" y="130.5" width="779" height="30" class="- timeslot: ListInteger" fill="#ffffff"><g><rect width="100%" height="100%" stroke="none" fill="white" class="sc-fqkvVR eDtKfR"></rect><text x="10" y="50%" dominant-baseline="middle" text-anchor="start" font-weight="normal" pointer-events="none">- timeslot: List&lt;Integer&gt;</text></g></svg><svg x="0" y="160.5" width="779" height="30" class="- locataion: Mensa" fill="#ffffff"><g><rect width="100%" height="100%" stroke="none" fill="white" class="sc-fqkvVR eDtKfR"></rect><text x="10" y="50%" dominant-baseline="middle" text-anchor="start" font-weight="normal" pointer-events="none">- locataion: Mensa</text></g></svg><svg x="0" y="190.5" width="779" height="30" class="- preferences: matchPreferences" fill="#ffffff"><g><rect width="100%" height="100%" stroke="none" fill="white" class="sc-fqkvVR eDtKfR"></rect><text x="10" y="50%" dominant-baseline="middle" text-anchor="start" font-weight="normal" pointer-events="none">- preferences: matchPreferences</text></g></svg><svg x="0" y="220.5" width="779" height="30" class="- status: requestStatus" fill="#ffffff"><g><rect width="100%" height="100%" stroke="none" fill="white" class="sc-fqkvVR eDtKfR"></rect><text x="10" y="50%" dominant-baseline="middle" text-anchor="start" font-weight="normal" pointer-events="none">- status: requestStatus</text></g></svg><rect width="100%" height="100%" stroke="black" fill="none" class="sc-fqkvVR jAaomD"></rect><path d="M 0 40 H 780" stroke="black" fill="white" class="sc-gEvEer fkqzOi"></path></g></svg><svg x="962" y="335" width="160" height="110" class="Mensa" fill="#ffffff"><g><rect width="100%" height="50" stroke="none" fill="white" class="sc-fqkvVR eDtKfR"></rect><rect y="50" width="100%" height="60" stroke="none" fill="white" class="sc-fqkvVR eDtKfR"></rect><svg height="50"><text x="50%" y="50%" dominant-baseline="middle" text-anchor="middle" font-weight="bold" pointer-events="none"><tspan x="50%" dy="-8" text-anchor="middle" font-size="85%">«enumeration»</tspan><tspan x="50%" dy="18" text-anchor="middle">Mensa</tspan></text></svg><svg x="0" y="50.5" width="159" height="30" class="GARCHING" fill="#ffffff"><g><rect width="100%" height="100%" stroke="none" fill="white" class="sc-fqkvVR eDtKfR"></rect><text x="10" y="50%" dominant-baseline="middle" text-anchor="start" font-weight="normal" pointer-events="none">GARCHING</text></g></svg><svg x="0" y="80.5" width="159" height="30" class="ARCISSTR" fill="#ffffff"><g><rect width="100%" height="100%" stroke="none" fill="white" class="sc-fqkvVR eDtKfR"></rect><text x="10" y="50%" dominant-baseline="middle" text-anchor="start" font-weight="normal" pointer-events="none">ARCISSTR</text></g></svg><rect width="100%" height="100%" stroke="black" fill="none" class="sc-fqkvVR jAaomD"></rect><path d="M 0 50 H 160" stroke="black" fill="white" class="sc-gEvEer fkqzOi"></path></g></svg><svg x="492" y="415" width="420" height="130" class="Match" fill="#ffffff"><g><rect width="100%" height="40" stroke="none" fill="white" class="sc-fqkvVR eDtKfR"></rect><rect y="40" width="100%" height="90" stroke="none" fill="white" class="sc-fqkvVR eDtKfR"></rect><svg height="40"><text x="50%" y="50%" dominant-baseline="middle" text-anchor="middle" font-weight="bold" pointer-events="none">Match</text></svg><svg x="0" y="40.5" width="419" height="30" class="- matchID: UUID" fill="#ffffff"><g><rect width="100%" height="100%" stroke="none" fill="white" class="sc-fqkvVR eDtKfR"></rect><text x="10" y="50%" dominant-baseline="middle" text-anchor="start" font-weight="normal" pointer-events="none">- matchID: UUID</text></g></svg><svg x="0" y="70.5" width="419" height="30" class="- userID: UUID" fill="#ffffff"><g><rect width="100%" height="100%" stroke="none" fill="white" class="sc-fqkvVR eDtKfR"></rect><text x="10" y="50%" dominant-baseline="middle" text-anchor="start" font-weight="normal" pointer-events="none">- userID: UUID</text></g></svg><svg x="0" y="100.5" width="419" height="30" class="- group: Group" fill="#ffffff"><g><rect width="100%" height="100%" stroke="none" fill="white" class="sc-fqkvVR eDtKfR"></rect><text x="10" y="50%" dominant-baseline="middle" text-anchor="start" font-weight="normal" pointer-events="none">- group: Group</text></g></svg><rect width="100%" height="100%" stroke="black" fill="none" class="sc-fqkvVR jAaomD"></rect><path d="M 0 40 H 420" stroke="black" fill="white" class="sc-gEvEer fkqzOi"></path></g></svg><svg x="1162" y="735" width="420" height="100" class="AIConversationStarter" fill="#ffffff"><g><rect width="100%" height="40" stroke="none" fill="white" class="sc-fqkvVR eDtKfR"></rect><rect y="40" width="100%" height="60" stroke="none" fill="white" class="sc-fqkvVR eDtKfR"></rect><svg height="40"><text x="50%" y="50%" dominant-baseline="middle" text-anchor="middle" font-weight="bold" pointer-events="none">AIConversationStarter</text></svg><svg x="0" y="40.5" width="419" height="30" class="- userBios: ListString" fill="#ffffff"><g><rect width="100%" height="100%" stroke="none" fill="white" class="sc-fqkvVR eDtKfR"></rect><text x="10" y="50%" dominant-baseline="middle" text-anchor="start" font-weight="normal" pointer-events="none">- userBios: List&lt;String&gt;</text></g></svg><svg x="0" y="70.5" width="419" height="30" class="+ genConversationStarters(input: ListString): String" fill="#ffffff"><g><rect width="100%" height="100%" stroke="none" fill="white" class="sc-fqkvVR eDtKfR"></rect><text x="10" y="50%" dominant-baseline="middle" text-anchor="start" font-weight="normal" pointer-events="none">+ genConversationStarters(input: List&lt;String&gt;): String</text></g></svg><rect width="100%" height="100%" stroke="black" fill="none" class="sc-fqkvVR jAaomD"></rect><path d="M 0 40 H 420" stroke="black" fill="white" class="sc-gEvEer fkqzOi"></path><path d="M 0 70 H 420" stroke="black" fill="white" class="sc-gEvEer fkqzOi"></path></g></svg><svg x="472" y="645" width="330" height="190" class="Group" fill="#ffffff"><g><rect width="100%" height="40" stroke="none" fill="white" class="sc-fqkvVR eDtKfR"></rect><rect y="40" width="100%" height="150" stroke="none" fill="white" class="sc-fqkvVR eDtKfR"></rect><svg height="40"><text x="50%" y="50%" dominant-baseline="middle" text-anchor="middle" font-weight="bold" pointer-events="none">Group</text></svg><svg x="0" y="40.5" width="329" height="30" class="- groupID: UUID" fill="#ffffff"><g><rect width="100%" height="100%" stroke="none" fill="white" class="sc-fqkvVR eDtKfR"></rect><text x="10" y="50%" dominant-baseline="middle" text-anchor="start" font-weight="normal" pointer-events="none">- groupID: UUID</text></g></svg><svg x="0" y="70.5" width="329" height="30" class="- time: Integer" fill="#ffffff"><g><rect width="100%" height="100%" stroke="none" fill="white" class="sc-fqkvVR eDtKfR"></rect><text x="10" y="50%" dominant-baseline="middle" text-anchor="start" font-weight="normal" pointer-events="none">- time: Integer</text></g></svg><svg x="0" y="100.5" width="329" height="30" class="- date: LocalDate" fill="#ffffff"><g><rect width="100%" height="100%" stroke="none" fill="white" class="sc-fqkvVR eDtKfR"></rect><text x="10" y="50%" dominant-baseline="middle" text-anchor="start" font-weight="normal" pointer-events="none">- date: LocalDate</text></g></svg><svg x="0" y="130.5" width="329" height="30" class="- conversationStarters: ListString" fill="#ffffff"><g><rect width="100%" height="100%" stroke="none" fill="white" class="sc-fqkvVR eDtKfR"></rect><text x="10" y="50%" dominant-baseline="middle" text-anchor="start" font-weight="normal" pointer-events="none">- conversationStarters: List&lt;String&gt;</text></g></svg><svg x="0" y="160.5" width="329" height="30" class="- users: ListUser" fill="#ffffff"><g><rect width="100%" height="100%" stroke="none" fill="white" class="sc-fqkvVR eDtKfR"></rect><text x="10" y="50%" dominant-baseline="middle" text-anchor="start" font-weight="normal" pointer-events="none">- users: List&lt;User&gt;</text></g></svg><rect width="100%" height="100%" stroke="black" fill="none" class="sc-fqkvVR jAaomD"></rect><path d="M 0 40 H 330" stroke="black" fill="white" class="sc-gEvEer fkqzOi"></path></g></svg><svg x="1162" y="335" width="250" height="130" class="PreferenceFilters" fill="#ffffff"><g><rect width="100%" height="40" stroke="none" fill="white" class="sc-fqkvVR eDtKfR"></rect><rect y="40" width="100%" height="90" stroke="none" fill="white" class="sc-fqkvVR eDtKfR"></rect><svg height="40"><text x="50%" y="50%" dominant-baseline="middle" text-anchor="middle" font-weight="bold" pointer-events="none">PreferenceFilters</text></svg><svg x="0" y="40.5" width="249" height="30" class="+ sameDegree: boolean" fill="#ffffff"><g><rect width="100%" height="100%" stroke="none" fill="white" class="sc-fqkvVR eDtKfR"></rect><text x="10" y="50%" dominant-baseline="middle" text-anchor="start" font-weight="normal" pointer-events="none">+ sameDegree: boolean</text></g></svg><svg x="0" y="70.5" width="249" height="30" class="+ sameGender: boolean" fill="#ffffff"><g><rect width="100%" height="100%" stroke="none" fill="white" class="sc-fqkvVR eDtKfR"></rect><text x="10" y="50%" dominant-baseline="middle" text-anchor="start" font-weight="normal" pointer-events="none">+ sameGender: boolean</text></g></svg><svg x="0" y="100.5" width="249" height="30" class="+ sameAge: boolean" fill="#ffffff"><g><rect width="100%" height="100%" stroke="none" fill="white" class="sc-fqkvVR eDtKfR"></rect><text x="10" y="50%" dominant-baseline="middle" text-anchor="start" font-weight="normal" pointer-events="none">+ sameAge: boolean</text></g></svg><rect width="100%" height="100%" stroke="black" fill="none" class="sc-fqkvVR jAaomD"></rect><path d="M 0 40 H 250" stroke="black" fill="white" class="sc-gEvEer fkqzOi"></path></g></svg><svg x="1442" y="335" width="160" height="230" class="requestStatus" fill="#ffffff"><g><rect width="100%" height="50" stroke="none" fill="white" class="sc-fqkvVR eDtKfR"></rect><rect y="50" width="100%" height="180" stroke="none" fill="white" class="sc-fqkvVR eDtKfR"></rect><svg height="50"><text x="50%" y="50%" dominant-baseline="middle" text-anchor="middle" font-weight="bold" pointer-events="none"><tspan x="50%" dy="-8" text-anchor="middle" font-size="85%">«enumeration»</tspan><tspan x="50%" dy="18" text-anchor="middle">requestStatus</tspan></text></svg><svg x="0" y="50.5" width="159" height="30" class="PENDING" fill="#ffffff"><g><rect width="100%" height="100%" stroke="none" fill="white" class="sc-fqkvVR eDtKfR"></rect><text x="10" y="50%" dominant-baseline="middle" text-anchor="start" font-weight="normal" pointer-events="none">PENDING</text></g></svg><svg x="0" y="80.5" width="159" height="30" class="MATCHED" fill="#ffffff"><g><rect width="100%" height="100%" stroke="none" fill="white" class="sc-fqkvVR eDtKfR"></rect><text x="10" y="50%" dominant-baseline="middle" text-anchor="start" font-weight="normal" pointer-events="none">MATCHED</text></g></svg><svg x="0" y="110.5" width="159" height="30" class="UNMATCHABLE" fill="#ffffff"><g><rect width="100%" height="100%" stroke="none" fill="white" class="sc-fqkvVR eDtKfR"></rect><text x="10" y="50%" dominant-baseline="middle" text-anchor="start" font-weight="normal" pointer-events="none">UNMATCHABLE</text></g></svg><svg x="0" y="140.5" width="159" height="30" class="CANCELED" fill="#ffffff"><g><rect width="100%" height="100%" stroke="none" fill="white" class="sc-fqkvVR eDtKfR"></rect><text x="10" y="50%" dominant-baseline="middle" text-anchor="start" font-weight="normal" pointer-events="none">CANCELED</text></g></svg><svg x="0" y="170.5" width="159" height="30" class="REMATCH" fill="#ffffff"><g><rect width="100%" height="100%" stroke="none" fill="white" class="sc-fqkvVR eDtKfR"></rect><text x="10" y="50%" dominant-baseline="middle" text-anchor="start" font-weight="normal" pointer-events="none">REMATCH</text></g></svg><svg x="0" y="200.5" width="159" height="30" class="EXPIRED" fill="#ffffff"><g><rect width="100%" height="100%" stroke="none" fill="white" class="sc-fqkvVR eDtKfR"></rect><text x="10" y="50%" dominant-baseline="middle" text-anchor="start" font-weight="normal" pointer-events="none">EXPIRED</text></g></svg><rect width="100%" height="100%" stroke="black" fill="none" class="sc-fqkvVR jAaomD"></rect><path d="M 0 50 H 160" stroke="black" fill="white" class="sc-gEvEer fkqzOi"></path></g></svg><svg x="1162" y="505" width="160" height="200" class="MatchStatus" fill="#ffffff"><g><rect width="100%" height="50" stroke="none" fill="white" class="sc-fqkvVR eDtKfR"></rect><rect y="50" width="100%" height="150" stroke="none" fill="white" class="sc-fqkvVR eDtKfR"></rect><svg height="50"><text x="50%" y="50%" dominant-baseline="middle" text-anchor="middle" font-weight="bold" pointer-events="none"><tspan x="50%" dy="-8" text-anchor="middle" font-size="85%">«enumeration»</tspan><tspan x="50%" dy="18" text-anchor="middle">MatchStatus</tspan></text></svg><svg x="0" y="50.5" width="159" height="30" class="UNSENT" fill="#ffffff"><g><rect width="100%" height="100%" stroke="none" fill="white" class="sc-fqkvVR eDtKfR"></rect><text x="10" y="50%" dominant-baseline="middle" text-anchor="start" font-weight="normal" pointer-events="none">UNSENT</text></g></svg><svg x="0" y="80.5" width="159" height="30" class="SENT" fill="#ffffff"><g><rect width="100%" height="100%" stroke="none" fill="white" class="sc-fqkvVR eDtKfR"></rect><text x="10" y="50%" dominant-baseline="middle" text-anchor="start" font-weight="normal" pointer-events="none">SENT</text></g></svg><svg x="0" y="110.5" width="159" height="30" class="CONFIRMED" fill="#ffffff"><g><rect width="100%" height="100%" stroke="none" fill="white" class="sc-fqkvVR eDtKfR"></rect><text x="10" y="50%" dominant-baseline="middle" text-anchor="start" font-weight="normal" pointer-events="none">CONFIRMED</text></g></svg><svg x="0" y="140.5" width="159" height="30" class="REJECTED" fill="#ffffff"><g><rect width="100%" height="100%" stroke="none" fill="white" class="sc-fqkvVR eDtKfR"></rect><text x="10" y="50%" dominant-baseline="middle" text-anchor="start" font-weight="normal" pointer-events="none">REJECTED</text></g></svg><svg x="0" y="170.5" width="159" height="30" class="EXPIRED" fill="#ffffff"><g><rect width="100%" height="100%" stroke="none" fill="white" class="sc-fqkvVR eDtKfR"></rect><text x="10" y="50%" dominant-baseline="middle" text-anchor="start" font-weight="normal" pointer-events="none">EXPIRED</text></g></svg><rect width="100%" height="100%" stroke="black" fill="none" class="sc-fqkvVR jAaomD"></rect><path d="M 0 50 H 160" stroke="black" fill="white" class="sc-gEvEer fkqzOi"></path></g></svg><svg x="592" y="130" width="230" height="48" class="" fill="#ffffff"><g><marker id="marker-91058fb1-1508-4f0f-9ce9-71e8bc29f848" viewBox="0 0 30 30" markerWidth="22" markerHeight="30" refX="30" refY="15" orient="auto" markerUnits="strokeWidth"><path d="M0,29 L30,15 L0,1" stroke="black" fill="none" class="sc-gEvEer bFSwyf"></path></marker><polyline points="0 10,230 10" stroke-width="1" marker-end="url(#marker-91058fb1-1508-4f0f-9ce9-71e8bc29f848)" stroke="black" fill="none" class="sc-aXZVg eMElBf"></polyline><text x="8" y="10" dy="21" text-anchor="start" pointer-events="none">1</text><text x="199" y="10" dy="21" text-anchor="end" pointer-events="none">0...*</text><text x="8" y="10" dy="-10" text-anchor="start" pointer-events="none"></text><text x="199" y="10" dy="-10" text-anchor="end" pointer-events="none">submit</text></g></svg><svg x="1517" y="265" width="18.899999618530273" height="79" class="" fill="#ffffff"><g><marker id="marker-28ceb54b-663e-4534-9eef-53f856980f99" viewBox="0 0 30 30" markerWidth="30" markerHeight="30" refX="30" refY="15" orient="auto" markerUnits="strokeWidth"><path d="M0,15 L15,22 L30,15 L15,8 z" stroke="white" fill="black" class="sc-eqUAAy dLsBSg"></path></marker><polyline points="5 70,5 0" stroke-width="1" marker-end="url(#marker-28ceb54b-663e-4534-9eef-53f856980f99)" stroke="black" fill="none" class="sc-aXZVg eMElBf"></polyline><text x="5" y="62" dx="5" text-anchor="start" pointer-events="none">1</text><text x="5" y="31" dx="5" dy="10" text-anchor="start" pointer-events="none"></text><text x="5" y="62" dx="-5" text-anchor="end" pointer-events="none"></text><text x="5" y="31" dx="-5" dy="10" text-anchor="end" pointer-events="none"></text></g></svg><svg x="1282" y="265" width="18.899999618530273" height="79" class="" fill="#ffffff"><g><marker id="marker-98d39955-0187-477a-8356-bd72e3d74450" viewBox="0 0 30 30" markerWidth="30" markerHeight="30" refX="30" refY="15" orient="auto" markerUnits="strokeWidth"><path d="M0,15 L15,22 L30,15 L15,8 z" stroke="white" fill="black" class="sc-eqUAAy dLsBSg"></path></marker><polyline points="5 70,5 0" stroke-width="1" marker-end="url(#marker-98d39955-0187-477a-8356-bd72e3d74450)" stroke="black" fill="none" class="sc-aXZVg eMElBf"></polyline><text x="5" y="62" dx="5" text-anchor="start" pointer-events="none">1</text><text x="5" y="31" dx="5" dy="10" text-anchor="start" pointer-events="none"></text><text x="5" y="62" dx="-5" text-anchor="end" pointer-events="none"></text><text x="5" y="31" dx="-5" dy="10" text-anchor="end" pointer-events="none"></text></g></svg><svg x="1037" y="265" width="38.483333587646484" height="79" class="" fill="#ffffff"><g><marker id="marker-70a81883-1291-4df2-9b7b-02eeb51bd4db" viewBox="0 0 30 30" markerWidth="30" markerHeight="30" refX="30" refY="15" orient="auto" markerUnits="strokeWidth"><path d="M0,15 L15,22 L30,15 L15,8 z" stroke="white" fill="black" class="sc-eqUAAy dLsBSg"></path></marker><polyline points="5 70,5 0" stroke-width="1" marker-end="url(#marker-70a81883-1291-4df2-9b7b-02eeb51bd4db)" stroke="black" fill="none" class="sc-aXZVg eMElBf"></polyline><text x="5" y="62" dx="5" text-anchor="start" pointer-events="none">1...*</text><text x="5" y="31" dx="5" dy="10" text-anchor="start" pointer-events="none"></text><text x="5" y="62" dx="-5" text-anchor="end" pointer-events="none"></text><text x="5" y="31" dx="-5" dy="10" text-anchor="end" pointer-events="none"></text></g></svg><svg x="337" y="325" width="155" height="193" class="" fill="#ffffff"><g><marker id="marker-0e20744e-e93f-48b8-a989-d7f534d08682" viewBox="0 0 30 30" markerWidth="22" markerHeight="30" refX="30" refY="15" orient="auto" markerUnits="strokeWidth"><path d="M0,29 L30,15 L0,1" stroke="black" fill="none" class="sc-gEvEer bFSwyf"></path></marker><polyline points="5 0,5 155,155 155" stroke-width="1" marker-end="url(#marker-0e20744e-e93f-48b8-a989-d7f534d08682)" stroke="black" fill="none" class="sc-aXZVg eMElBf"></polyline><text x="5" y="8" dx="5" dy="10" text-anchor="start" pointer-events="none"></text><text x="124" y="155" dy="21" text-anchor="end" pointer-events="none">is matched</text><text x="5" y="8" dx="-5" dy="10" text-anchor="end" pointer-events="none"></text><text x="124" y="155" dy="-10" text-anchor="end" pointer-events="none"></text></g></svg><svg x="797.966667175293" y="265" width="82.9333324432373" height="159" class="" fill="#ffffff"><g><polyline points="69.03333282470703 150,69.03333282470703 0" stroke-width="1" marker-end="url(#marker-f0eee103-52d3-4951-a459-99dc0387198e)" stroke="black" fill="none" class="sc-aXZVg eMElBf"></polyline><text x="69.03333282470703" y="142" dx="5" text-anchor="start" pointer-events="none">1</text><text x="69.03333282470703" y="8" dx="5" dy="10" text-anchor="start" pointer-events="none">1</text><text x="69.03333282470703" y="142" dx="-5" text-anchor="end" pointer-events="none">results in</text><text x="69.03333282470703" y="8" dx="-5" dy="10" text-anchor="end" pointer-events="none">fullfills</text></g></svg><svg x="581.5166664123535" y="545" width="70.48333358764648" height="109" class="" fill="#ffffff"><g><marker id="marker-dd1a329f-239c-4b1f-8550-84ad5019b855" viewBox="0 0 30 30" markerWidth="30" markerHeight="30" refX="30" refY="15" orient="auto" markerUnits="strokeWidth"><path d="M0,15 L15,22 L30,15 L15,8 z" stroke="black" fill="white" class="sc-gEvEer fkqzOi"></path></marker><polyline points="65.48333358764648 100,65.48333358764648 0" stroke-width="1" marker-end="url(#marker-dd1a329f-239c-4b1f-8550-84ad5019b855)" stroke="black" fill="none" class="sc-aXZVg eMElBf"></polyline><text x="65.48333358764648" y="92" dx="5" text-anchor="start" pointer-events="none"></text><text x="65.48333358764648" y="31" dx="5" dy="10" text-anchor="start" pointer-events="none"></text><text x="65.48333358764648" y="92" dx="-5" text-anchor="end" pointer-events="none">1</text><text x="65.48333358764648" y="31" dx="-5" dy="10" text-anchor="end" pointer-events="none">Matches</text></g></svg><svg x="24.400001525878906" y="160" width="460" height="580" class="" fill="#ffffff"><g><marker id="marker-cceb5d70-ca74-47e3-82fa-39d312b8e985" viewBox="0 0 30 30" markerWidth="30" markerHeight="30" refX="30" refY="15" orient="auto" markerUnits="strokeWidth"><path d="M0,15 L15,22 L30,15 L15,8 z" stroke="black" fill="white" class="sc-gEvEer fkqzOi"></path></marker><polyline points="67.5999984741211 10,-9.400001525878906 10,-9.400001525878906 580,447.5999984741211 580" stroke-width="1" marker-end="url(#marker-cceb5d70-ca74-47e3-82fa-39d312b8e985)" stroke="black" fill="none" class="sc-aXZVg eMElBf"></polyline><text x="59.599998474121094" y="10" dy="21" text-anchor="end" pointer-events="none">contains</text><text x="416.5999984741211" y="580" dy="21" text-anchor="end" pointer-events="none">is part of</text><text x="59.599998474121094" y="10" dy="-10" text-anchor="end" pointer-events="none">2...*</text><text x="416.5999984741211" y="580" dy="-10" text-anchor="end" pointer-events="none">1</text></g></svg><svg x="802" y="775" width="360" height="48" class="" fill="#ffffff"><g><marker id="marker-d7025410-af75-4200-ad37-b0c5a095bc47" viewBox="0 0 30 30" markerWidth="22" markerHeight="30" refX="30" refY="15" orient="auto" markerUnits="strokeWidth"><path d="M0,29 L30,15 L0,1" stroke="black" fill="none" class="sc-gEvEer bFSwyf"></path></marker><polyline points="360 10,0 10" stroke-width="1" marker-end="url(#marker-d7025410-af75-4200-ad37-b0c5a095bc47)" stroke="black" fill="none" class="sc-aXZVg eMElBf"></polyline><text x="352" y="10" dy="21" text-anchor="end" pointer-events="none"></text><text x="31" y="10" dy="21" text-anchor="start" pointer-events="none">generates promps</text><text x="352" y="10" dy="-10" text-anchor="end" pointer-events="none"></text><text x="31" y="10" dy="-10" text-anchor="start" pointer-events="none"></text></g></svg><svg x="912" y="515" width="250" height="48" class="" fill="#ffffff"><g><marker id="marker-77494d38-1ef5-4dac-8fe2-f6a980de0b7a" viewBox="0 0 30 30" markerWidth="30" markerHeight="30" refX="30" refY="15" orient="auto" markerUnits="strokeWidth"><path d="M0,15 L15,22 L30,15 L15,8 z" stroke="white" fill="black" class="sc-eqUAAy dLsBSg"></path></marker><polyline points="250 10,0 10" stroke-width="1" marker-end="url(#marker-77494d38-1ef5-4dac-8fe2-f6a980de0b7a)" stroke="black" fill="none" class="sc-aXZVg eMElBf"></polyline><text x="242" y="10" dy="21" text-anchor="end" pointer-events="none">1</text><text x="31" y="10" dy="21" text-anchor="start" pointer-events="none"></text><text x="242" y="10" dy="-10" text-anchor="end" pointer-events="none"></text><text x="31" y="10" dy="-10" text-anchor="start" pointer-events="none"></text></g></svg></svg>