<svg width="1361" height="1041" xmlns="http://www.w3.org/2000/svg" xmlns:xlink="http://www.w3.org/1999/xlink" fill="#ffffff"><defs><style>
  text {
    fill: #212529;
    font-family: Helvetica Neue, Helvetica, Arial, sans-serif;
    font-size: 16px;
  }

  marker, text {
    fill-opacity: 1;
  }

  * {
    overflow: visible;
  }
</style></defs><svg x="15" y="15" width="1330" height="1010" class="MeetAtMensa Object Model" fill="#ffffff"><g><path d="M 0 10 V 0 H 40 V 10" stroke="black" fill="white" class="sc-gEvEer fkqzOi"></path><rect y="10" width="100%" height="1000" stroke="black" fill="white" class="sc-fqkvVR uHYUy"></rect><text x="50%" y="20" dy="10" text-anchor="middle" font-weight="bold" pointer-events="none">MeetAtMensa Object Model</text></g></svg><svg x="35" y="75" width="190" height="320" class="UserObject" fill="#ffffff"><g><rect width="100%" height="50" stroke="none" fill="white" class="sc-fqkvVR eDtKfR"></rect><rect y="50" width="100%" height="270" stroke="none" fill="white" class="sc-fqkvVR eDtKfR"></rect><svg height="50"><text x="50%" y="50%" dominant-baseline="middle" text-anchor="middle" font-weight="bold" pointer-events="none"><tspan x="50%" dy="-8" text-anchor="middle" font-size="85%">«abstract»</tspan><tspan x="50%" dy="18" text-anchor="middle" font-style="italic">UserObject</tspan></text></svg><svg x="0" y="50.5" width="189" height="30" class="+ email: String" fill="#ffffff"><g><rect width="100%" height="100%" stroke="none" fill="white" class="sc-fqkvVR eDtKfR"></rect><text x="10" y="50%" dominant-baseline="middle" text-anchor="start" font-weight="normal" pointer-events="none">+ email: String</text></g></svg><svg x="0" y="80.5" width="189" height="30" class="+ firstname: String" fill="#ffffff"><g><rect width="100%" height="100%" stroke="none" fill="white" class="sc-fqkvVR eDtKfR"></rect><text x="10" y="50%" dominant-baseline="middle" text-anchor="start" font-weight="normal" pointer-events="none">+ firstname: String</text></g></svg><svg x="0" y="110.5" width="189" height="30" class="+ lastname: String" fill="#ffffff"><g><rect width="100%" height="100%" stroke="none" fill="white" class="sc-fqkvVR eDtKfR"></rect><text x="10" y="50%" dominant-baseline="middle" text-anchor="start" font-weight="normal" pointer-events="none">+ lastname: String</text></g></svg><svg x="0" y="140.5" width="189" height="30" class="+ birthday: LocalDate" fill="#ffffff"><g><rect width="100%" height="100%" stroke="none" fill="white" class="sc-fqkvVR eDtKfR"></rect><text x="10" y="50%" dominant-baseline="middle" text-anchor="start" font-weight="normal" pointer-events="none">+ birthday: LocalDate</text></g></svg><svg x="0" y="170.5" width="189" height="30" class="+ gender: String" fill="#ffffff"><g><rect width="100%" height="100%" stroke="none" fill="white" class="sc-fqkvVR eDtKfR"></rect><text x="10" y="50%" dominant-baseline="middle" text-anchor="start" font-weight="normal" pointer-events="none">+ gender: String</text></g></svg><svg x="0" y="200.5" width="189" height="30" class="+ degree: String" fill="#ffffff"><g><rect width="100%" height="100%" stroke="none" fill="white" class="sc-fqkvVR eDtKfR"></rect><text x="10" y="50%" dominant-baseline="middle" text-anchor="start" font-weight="normal" pointer-events="none">+ degree: String</text></g></svg><svg x="0" y="230.5" width="189" height="30" class="+ degreeStart: Integer" fill="#ffffff"><g><rect width="100%" height="100%" stroke="none" fill="white" class="sc-fqkvVR eDtKfR"></rect><text x="10" y="50%" dominant-baseline="middle" text-anchor="start" font-weight="normal" pointer-events="none">+ degreeStart: Integer</text></g></svg><svg x="0" y="260.5" width="189" height="30" class="+ bio: String" fill="#ffffff"><g><rect width="100%" height="100%" stroke="none" fill="white" class="sc-fqkvVR eDtKfR"></rect><text x="10" y="50%" dominant-baseline="middle" text-anchor="start" font-weight="normal" pointer-events="none">+ bio: String</text></g></svg><svg x="0" y="290.5" width="189" height="30" class="+ interests: ListString" fill="#ffffff"><g><rect width="100%" height="100%" stroke="none" fill="white" class="sc-fqkvVR eDtKfR"></rect><text x="10" y="50%" dominant-baseline="middle" text-anchor="start" font-weight="normal" pointer-events="none">+ interests: List&lt;String&gt;</text></g></svg><rect width="100%" height="100%" stroke="black" fill="none" class="sc-fqkvVR jAaomD"></rect><path d="M 0 50 H 190" stroke="black" fill="white" class="sc-gEvEer fkqzOi"></path></g></svg><svg x="175" y="495" width="160" height="70" class="UserNew" fill="#ffffff"><g><rect width="100%" height="40" stroke="none" fill="white" class="sc-fqkvVR eDtKfR"></rect><rect y="40" width="100%" height="30" stroke="none" fill="white" class="sc-fqkvVR eDtKfR"></rect><svg height="40"><text x="50%" y="50%" dominant-baseline="middle" text-anchor="middle" font-weight="bold" pointer-events="none">UserNew</text></svg><svg x="0" y="40.5" width="159" height="30" class="- authID: String" fill="#ffffff"><g><rect width="100%" height="100%" stroke="none" fill="white" class="sc-fqkvVR eDtKfR"></rect><text x="10" y="50%" dominant-baseline="middle" text-anchor="start" font-weight="normal" pointer-events="none">- authID: String</text></g></svg><rect width="100%" height="100%" stroke="black" fill="none" class="sc-fqkvVR jAaomD"></rect><path d="M 0 40 H 160" stroke="black" fill="white" class="sc-gEvEer fkqzOi"></path></g></svg><svg x="175" y="435" width="160" height="40" class="UserUpdate" fill="#ffffff"><g><rect width="100%" height="40" stroke="none" fill="white" class="sc-fqkvVR eDtKfR"></rect><rect y="40" width="100%" height="0" stroke="none" fill="white" class="sc-fqkvVR eDtKfR"></rect><svg height="40"><text x="50%" y="50%" dominant-baseline="middle" text-anchor="middle" font-weight="bold" pointer-events="none">UserUpdate</text></svg><rect width="100%" height="100%" stroke="black" fill="none" class="sc-fqkvVR jAaomD"></rect></g></svg><svg x="175" y="865" width="160" height="70" class="User" fill="#ffffff"><g><rect width="100%" height="40" stroke="none" fill="white" class="sc-fqkvVR eDtKfR"></rect><rect y="40" width="100%" height="30" stroke="none" fill="white" class="sc-fqkvVR eDtKfR"></rect><svg height="40"><text x="50%" y="50%" dominant-baseline="middle" text-anchor="middle" font-weight="bold" pointer-events="none">User</text></svg><svg x="0" y="40.5" width="159" height="30" class="+ userID: UUID" fill="#ffffff"><g><rect width="100%" height="100%" stroke="none" fill="white" class="sc-fqkvVR eDtKfR"></rect><text x="10" y="50%" dominant-baseline="middle" text-anchor="start" font-weight="normal" pointer-events="none">+ userID: UUID</text></g></svg><rect width="100%" height="100%" stroke="black" fill="none" class="sc-fqkvVR jAaomD"></rect><path d="M 0 40 H 160" stroke="black" fill="white" class="sc-gEvEer fkqzOi"></path></g></svg><svg x="175" y="615" width="160" height="70" class="UserCollection" fill="#ffffff"><g><rect width="100%" height="40" stroke="none" fill="white" class="sc-fqkvVR eDtKfR"></rect><rect y="40" width="100%" height="30" stroke="none" fill="white" class="sc-fqkvVR eDtKfR"></rect><svg height="40"><text x="50%" y="50%" dominant-baseline="middle" text-anchor="middle" font-weight="bold" pointer-events="none">UserCollection</text></svg><svg x="0" y="40.5" width="159" height="30" class="+ users: ListUser" fill="#ffffff"><g><rect width="100%" height="100%" stroke="none" fill="white" class="sc-fqkvVR eDtKfR"></rect><text x="10" y="50%" dominant-baseline="middle" text-anchor="start" font-weight="normal" pointer-events="none">+ users: List&lt;User&gt;</text></g></svg><rect width="100%" height="100%" stroke="black" fill="none" class="sc-fqkvVR jAaomD"></rect><path d="M 0 40 H 160" stroke="black" fill="white" class="sc-gEvEer fkqzOi"></path></g></svg><svg x="435" y="615" width="210" height="70" class="MatchRequestCollection" fill="#ffffff"><g><rect width="100%" height="40" stroke="none" fill="white" class="sc-fqkvVR eDtKfR"></rect><rect y="40" width="100%" height="30" stroke="none" fill="white" class="sc-fqkvVR eDtKfR"></rect><svg height="40"><text x="50%" y="50%" dominant-baseline="middle" text-anchor="middle" font-weight="bold" pointer-events="none">MatchRequestCollection</text></svg><svg x="0" y="40.5" width="209" height="30" class="+ users: ListUser" fill="#ffffff"><g><rect width="100%" height="100%" stroke="none" fill="white" class="sc-fqkvVR eDtKfR"></rect><text x="10" y="50%" dominant-baseline="middle" text-anchor="start" font-weight="normal" pointer-events="none">+ users: List&lt;User&gt;</text></g></svg><rect width="100%" height="100%" stroke="black" fill="none" class="sc-fqkvVR jAaomD"></rect><path d="M 0 40 H 210" stroke="black" fill="white" class="sc-gEvEer fkqzOi"></path></g></svg><svg x="435" y="805" width="190" height="130" class="MatchRequest" fill="#ffffff"><g><rect width="100%" height="40" stroke="none" fill="white" class="sc-fqkvVR eDtKfR"></rect><rect y="40" width="100%" height="90" stroke="none" fill="white" class="sc-fqkvVR eDtKfR"></rect><svg height="40"><text x="50%" y="50%" dominant-baseline="middle" text-anchor="middle" font-weight="bold" pointer-events="none">MatchRequest</text></svg><svg x="0" y="40.5" width="189" height="30" class="+ userID: UUID" fill="#ffffff"><g><rect width="100%" height="100%" stroke="none" fill="white" class="sc-fqkvVR eDtKfR"></rect><text x="10" y="50%" dominant-baseline="middle" text-anchor="start" font-weight="normal" pointer-events="none">+ userID: UUID</text></g></svg><svg x="0" y="70.5" width="189" height="30" class="+ requestID: UUID" fill="#ffffff"><g><rect width="100%" height="100%" stroke="none" fill="white" class="sc-fqkvVR eDtKfR"></rect><text x="10" y="50%" dominant-baseline="middle" text-anchor="start" font-weight="normal" pointer-events="none">+ requestID: UUID</text></g></svg><svg x="0" y="100.5" width="189" height="30" class="+ status: RequestStatus" fill="#ffffff"><g><rect width="100%" height="100%" stroke="none" fill="white" class="sc-fqkvVR eDtKfR"></rect><text x="10" y="50%" dominant-baseline="middle" text-anchor="start" font-weight="normal" pointer-events="none">+ status: RequestStatus</text></g></svg><rect width="100%" height="100%" stroke="black" fill="none" class="sc-fqkvVR jAaomD"></rect><path d="M 0 40 H 190" stroke="black" fill="white" class="sc-gEvEer fkqzOi"></path></g></svg><svg x="435" y="435" width="180" height="40" class="MatchRequestUpdate" fill="#ffffff"><g><rect width="100%" height="40" stroke="none" fill="white" class="sc-fqkvVR eDtKfR"></rect><rect y="40" width="100%" height="0" stroke="none" fill="white" class="sc-fqkvVR eDtKfR"></rect><svg height="40"><text x="50%" y="50%" dominant-baseline="middle" text-anchor="middle" font-weight="bold" pointer-events="none">MatchRequestUpdate</text></svg><rect width="100%" height="100%" stroke="black" fill="none" class="sc-fqkvVR jAaomD"></rect></g></svg><svg x="265" y="75" width="260" height="230" class="MatchRequestObject" fill="#ffffff"><g><rect width="100%" height="50" stroke="none" fill="white" class="sc-fqkvVR eDtKfR"></rect><rect y="50" width="100%" height="180" stroke="none" fill="white" class="sc-fqkvVR eDtKfR"></rect><svg height="50"><text x="50%" y="50%" dominant-baseline="middle" text-anchor="middle" font-weight="bold" pointer-events="none"><tspan x="50%" dy="-8" text-anchor="middle" font-size="85%">«abstract»</tspan><tspan x="50%" dy="18" text-anchor="middle" font-style="italic">MatchRequestObject</tspan></text></svg><svg x="0" y="50.5" width="259" height="30" class="+ date: LocalDate" fill="#ffffff"><g><rect width="100%" height="100%" stroke="none" fill="white" class="sc-fqkvVR eDtKfR"></rect><text x="10" y="50%" dominant-baseline="middle" text-anchor="start" font-weight="normal" pointer-events="none">+ date: LocalDate</text></g></svg><svg x="0" y="80.5" width="259" height="30" class="+ location: Location" fill="#ffffff"><g><rect width="100%" height="100%" stroke="none" fill="white" class="sc-fqkvVR eDtKfR"></rect><text x="10" y="50%" dominant-baseline="middle" text-anchor="start" font-weight="normal" pointer-events="none">+ location: Location</text></g></svg><svg x="0" y="110.5" width="259" height="30" class="+ timeslots: ListInteger" fill="#ffffff"><g><rect width="100%" height="100%" stroke="none" fill="white" class="sc-fqkvVR eDtKfR"></rect><text x="10" y="50%" dominant-baseline="middle" text-anchor="start" font-weight="normal" pointer-events="none">+ timeslots: List&lt;Integer&gt;</text></g></svg><svg x="0" y="140.5" width="259" height="30" class="+ agePref: Boolean" fill="#ffffff"><g><rect width="100%" height="100%" stroke="none" fill="white" class="sc-fqkvVR eDtKfR"></rect><text x="10" y="50%" dominant-baseline="middle" text-anchor="start" font-weight="normal" pointer-events="none">+ agePref: Boolean</text></g></svg><svg x="0" y="170.5" width="259" height="30" class="+ degreePref: Boolean" fill="#ffffff"><g><rect width="100%" height="100%" stroke="none" fill="white" class="sc-fqkvVR eDtKfR"></rect><text x="10" y="50%" dominant-baseline="middle" text-anchor="start" font-weight="normal" pointer-events="none">+ degreePref: Boolean</text></g></svg><svg x="0" y="200.5" width="259" height="30" class="+ genderPref: Boolean" fill="#ffffff"><g><rect width="100%" height="100%" stroke="none" fill="white" class="sc-fqkvVR eDtKfR"></rect><text x="10" y="50%" dominant-baseline="middle" text-anchor="start" font-weight="normal" pointer-events="none">+ genderPref: Boolean</text></g></svg><rect width="100%" height="100%" stroke="black" fill="none" class="sc-fqkvVR jAaomD"></rect><path d="M 0 50 H 260" stroke="black" fill="white" class="sc-gEvEer fkqzOi"></path></g></svg><svg x="435" y="495" width="160" height="70" class="MatchRequestNew" fill="#ffffff"><g><rect width="100%" height="40" stroke="none" fill="white" class="sc-fqkvVR eDtKfR"></rect><rect y="40" width="100%" height="30" stroke="none" fill="white" class="sc-fqkvVR eDtKfR"></rect><svg height="40"><text x="50%" y="50%" dominant-baseline="middle" text-anchor="middle" font-weight="bold" pointer-events="none">MatchRequestNew</text></svg><svg x="0" y="40.5" width="159" height="30" class="+ userID: UUID" fill="#ffffff"><g><rect width="100%" height="100%" stroke="none" fill="white" class="sc-fqkvVR eDtKfR"></rect><text x="10" y="50%" dominant-baseline="middle" text-anchor="start" font-weight="normal" pointer-events="none">+ userID: UUID</text></g></svg><rect width="100%" height="100%" stroke="black" fill="none" class="sc-fqkvVR jAaomD"></rect><path d="M 0 40 H 160" stroke="black" fill="white" class="sc-gEvEer fkqzOi"></path></g></svg><svg x="695" y="375" width="170" height="160" class="Match" fill="#ffffff"><g><rect width="100%" height="40" stroke="none" fill="white" class="sc-fqkvVR eDtKfR"></rect><rect y="40" width="100%" height="120" stroke="none" fill="white" class="sc-fqkvVR eDtKfR"></rect><svg height="40"><text x="50%" y="50%" dominant-baseline="middle" text-anchor="middle" font-weight="bold" pointer-events="none">Match</text></svg><svg x="0" y="40.5" width="169" height="30" class="+ matchID: UUID" fill="#ffffff"><g><rect width="100%" height="100%" stroke="none" fill="white" class="sc-fqkvVR eDtKfR"></rect><text x="10" y="50%" dominant-baseline="middle" text-anchor="start" font-weight="normal" pointer-events="none">+ matchID: UUID</text></g></svg><svg x="0" y="70.5" width="169" height="30" class="+ userID: UUID" fill="#ffffff"><g><rect width="100%" height="100%" stroke="none" fill="white" class="sc-fqkvVR eDtKfR"></rect><text x="10" y="50%" dominant-baseline="middle" text-anchor="start" font-weight="normal" pointer-events="none">+ userID: UUID</text></g></svg><svg x="0" y="100.5" width="169" height="30" class="+ status: InviteStatus" fill="#ffffff"><g><rect width="100%" height="100%" stroke="none" fill="white" class="sc-fqkvVR eDtKfR"></rect><text x="10" y="50%" dominant-baseline="middle" text-anchor="start" font-weight="normal" pointer-events="none">+ status: InviteStatus</text></g></svg><svg x="0" y="130.5" width="169" height="30" class="+ group: Group" fill="#ffffff"><g><rect width="100%" height="100%" stroke="none" fill="white" class="sc-fqkvVR eDtKfR"></rect><text x="10" y="50%" dominant-baseline="middle" text-anchor="start" font-weight="normal" pointer-events="none">+ group: Group</text></g></svg><rect width="100%" height="100%" stroke="black" fill="none" class="sc-fqkvVR jAaomD"></rect><path d="M 0 40 H 170" stroke="black" fill="white" class="sc-gEvEer fkqzOi"></path></g></svg><svg x="815" y="75" width="400" height="220" class="Group" fill="#ffffff"><g><rect width="100%" height="40" stroke="none" fill="white" class="sc-fqkvVR eDtKfR"></rect><rect y="40" width="100%" height="180" stroke="none" fill="white" class="sc-fqkvVR eDtKfR"></rect><svg height="40"><text x="50%" y="50%" dominant-baseline="middle" text-anchor="middle" font-weight="bold" pointer-events="none">Group</text></svg><svg x="0" y="40.5" width="399" height="30" class="+ groupID: UUID" fill="#ffffff"><g><rect width="100%" height="100%" stroke="none" fill="white" class="sc-fqkvVR eDtKfR"></rect><text x="10" y="50%" dominant-baseline="middle" text-anchor="start" font-weight="normal" pointer-events="none">+ groupID: UUID</text></g></svg><svg x="0" y="70.5" width="399" height="30" class="+ date: LocalDate" fill="#ffffff"><g><rect width="100%" height="100%" stroke="none" fill="white" class="sc-fqkvVR eDtKfR"></rect><text x="10" y="50%" dominant-baseline="middle" text-anchor="start" font-weight="normal" pointer-events="none">+ date: LocalDate</text></g></svg><svg x="0" y="100.5" width="399" height="30" class="+ time: Integer" fill="#ffffff"><g><rect width="100%" height="100%" stroke="none" fill="white" class="sc-fqkvVR eDtKfR"></rect><text x="10" y="50%" dominant-baseline="middle" text-anchor="start" font-weight="normal" pointer-events="none">+ time: Integer</text></g></svg><svg x="0" y="130.5" width="399" height="30" class="+ location: Location" fill="#ffffff"><g><rect width="100%" height="100%" stroke="none" fill="white" class="sc-fqkvVR eDtKfR"></rect><text x="10" y="50%" dominant-baseline="middle" text-anchor="start" font-weight="normal" pointer-events="none">+ location: Location</text></g></svg><svg x="0" y="160.5" width="399" height="30" class="+ conversationStarters: ConversationStarterCollection" fill="#ffffff"><g><rect width="100%" height="100%" stroke="none" fill="white" class="sc-fqkvVR eDtKfR"></rect><text x="10" y="50%" dominant-baseline="middle" text-anchor="start" font-weight="normal" pointer-events="none">+ conversationStarters: ConversationStarterCollection</text></g></svg><svg x="0" y="190.5" width="399" height="30" class="+ groupStatus: ListInviteStatus" fill="#ffffff"><g><rect width="100%" height="100%" stroke="none" fill="white" class="sc-fqkvVR eDtKfR"></rect><text x="10" y="50%" dominant-baseline="middle" text-anchor="start" font-weight="normal" pointer-events="none">+ groupStatus: List&lt;InviteStatus&gt;</text></g></svg><rect width="100%" height="100%" stroke="black" fill="none" class="sc-fqkvVR jAaomD"></rect><path d="M 0 40 H 400" stroke="black" fill="white" class="sc-gEvEer fkqzOi"></path></g></svg><svg x="695" y="615" width="210" height="70" class="MatchCollection" fill="#ffffff"><g><rect width="100%" height="40" stroke="none" fill="white" class="sc-fqkvVR eDtKfR"></rect><rect y="40" width="100%" height="30" stroke="none" fill="white" class="sc-fqkvVR eDtKfR"></rect><svg height="40"><text x="50%" y="50%" dominant-baseline="middle" text-anchor="middle" font-weight="bold" pointer-events="none">MatchCollection</text></svg><svg x="0" y="40.5" width="209" height="30" class="+ matches: ListMatch" fill="#ffffff"><g><rect width="100%" height="100%" stroke="none" fill="white" class="sc-fqkvVR eDtKfR"></rect><text x="10" y="50%" dominant-baseline="middle" text-anchor="start" font-weight="normal" pointer-events="none">+ matches: List&lt;Match&gt;</text></g></svg><rect width="100%" height="100%" stroke="black" fill="none" class="sc-fqkvVR jAaomD"></rect><path d="M 0 40 H 210" stroke="black" fill="white" class="sc-gEvEer fkqzOi"></path></g></svg><svg x="1045" y="875" width="170" height="70" class="ConversationStarter" fill="#ffffff"><g><rect width="100%" height="40" stroke="none" fill="white" class="sc-fqkvVR eDtKfR"></rect><rect y="40" width="100%" height="30" stroke="none" fill="white" class="sc-fqkvVR eDtKfR"></rect><svg height="40"><text x="50%" y="50%" dominant-baseline="middle" text-anchor="middle" font-weight="bold" pointer-events="none">ConversationStarter</text></svg><svg x="0" y="40.5" width="169" height="30" class="+ prompt: String" fill="#ffffff"><g><rect width="100%" height="100%" stroke="none" fill="white" class="sc-fqkvVR eDtKfR"></rect><text x="10" y="50%" dominant-baseline="middle" text-anchor="start" font-weight="normal" pointer-events="none">+ prompt: String</text></g></svg><rect width="100%" height="100%" stroke="black" fill="none" class="sc-fqkvVR jAaomD"></rect><path d="M 0 40 H 170" stroke="black" fill="white" class="sc-gEvEer fkqzOi"></path></g></svg><svg x="955" y="615" width="290" height="70" class="ConversationStarterCollection" fill="#ffffff"><g><rect width="100%" height="40" stroke="none" fill="white" class="sc-fqkvVR eDtKfR"></rect><rect y="40" width="100%" height="30" stroke="none" fill="white" class="sc-fqkvVR eDtKfR"></rect><svg height="40"><text x="50%" y="50%" dominant-baseline="middle" text-anchor="middle" font-weight="bold" pointer-events="none">ConversationStarterCollection</text></svg><svg x="0" y="40.5" width="289" height="30" class="+ prompts: ListConversationStarter" fill="#ffffff"><g><rect width="100%" height="100%" stroke="none" fill="white" class="sc-fqkvVR eDtKfR"></rect><text x="10" y="50%" dominant-baseline="middle" text-anchor="start" font-weight="normal" pointer-events="none">+ prompts: List&lt;ConversationStarter&gt;</text></g></svg><rect width="100%" height="100%" stroke="black" fill="none" class="sc-fqkvVR jAaomD"></rect><path d="M 0 40 H 290" stroke="black" fill="white" class="sc-gEvEer fkqzOi"></path></g></svg><svg x="985" y="355" width="160" height="200" class="InviteStatus" fill="#ffffff"><g><rect width="100%" height="50" stroke="none" fill="white" class="sc-fqkvVR eDtKfR"></rect><rect y="50" width="100%" height="150" stroke="none" fill="white" class="sc-fqkvVR eDtKfR"></rect><svg height="50"><text x="50%" y="50%" dominant-baseline="middle" text-anchor="middle" font-weight="bold" pointer-events="none"><tspan x="50%" dy="-8" text-anchor="middle" font-size="85%">«enumeration»</tspan><tspan x="50%" dy="18" text-anchor="middle">InviteStatus</tspan></text></svg><svg x="0" y="50.5" width="159" height="30" class="UNSENT" fill="#ffffff"><g><rect width="100%" height="100%" stroke="none" fill="white" class="sc-fqkvVR eDtKfR"></rect><text x="10" y="50%" dominant-baseline="middle" text-anchor="start" font-weight="normal" pointer-events="none">UNSENT</text></g></svg><svg x="0" y="80.5" width="159" height="30" class="SENT" fill="#ffffff"><g><rect width="100%" height="100%" stroke="none" fill="white" class="sc-fqkvVR eDtKfR"></rect><text x="10" y="50%" dominant-baseline="middle" text-anchor="start" font-weight="normal" pointer-events="none">SENT</text></g></svg><svg x="0" y="110.5" width="159" height="30" class="ACCEPTED" fill="#ffffff"><g><rect width="100%" height="100%" stroke="none" fill="white" class="sc-fqkvVR eDtKfR"></rect><text x="10" y="50%" dominant-baseline="middle" text-anchor="start" font-weight="normal" pointer-events="none">ACCEPTED</text></g></svg><svg x="0" y="140.5" width="159" height="30" class="REJECTED" fill="#ffffff"><g><rect width="100%" height="100%" stroke="none" fill="white" class="sc-fqkvVR eDtKfR"></rect><text x="10" y="50%" dominant-baseline="middle" text-anchor="start" font-weight="normal" pointer-events="none">REJECTED</text></g></svg><svg x="0" y="170.5" width="159" height="30" class="EXPIRED" fill="#ffffff"><g><rect width="100%" height="100%" stroke="none" fill="white" class="sc-fqkvVR eDtKfR"></rect><text x="10" y="50%" dominant-baseline="middle" text-anchor="start" font-weight="normal" pointer-events="none">EXPIRED</text></g></svg><rect width="100%" height="100%" stroke="black" fill="none" class="sc-fqkvVR jAaomD"></rect><path d="M 0 50 H 160" stroke="black" fill="white" class="sc-gEvEer fkqzOi"></path></g></svg><svg x="735" y="745" width="160" height="200" class="RequestStatus" fill="#ffffff"><g><rect width="100%" height="50" stroke="none" fill="white" class="sc-fqkvVR eDtKfR"></rect><rect y="50" width="100%" height="150" stroke="none" fill="white" class="sc-fqkvVR eDtKfR"></rect><svg height="50"><text x="50%" y="50%" dominant-baseline="middle" text-anchor="middle" font-weight="bold" pointer-events="none"><tspan x="50%" dy="-8" text-anchor="middle" font-size="85%">«enumeration»</tspan><tspan x="50%" dy="18" text-anchor="middle">RequestStatus</tspan></text></svg><svg x="0" y="50.5" width="159" height="30" class="PENDING" fill="#ffffff"><g><rect width="100%" height="100%" stroke="none" fill="white" class="sc-fqkvVR eDtKfR"></rect><text x="10" y="50%" dominant-baseline="middle" text-anchor="start" font-weight="normal" pointer-events="none">PENDING</text></g></svg><svg x="0" y="80.5" width="159" height="30" class="MATCHED" fill="#ffffff"><g><rect width="100%" height="100%" stroke="none" fill="white" class="sc-fqkvVR eDtKfR"></rect><text x="10" y="50%" dominant-baseline="middle" text-anchor="start" font-weight="normal" pointer-events="none">MATCHED</text></g></svg><svg x="0" y="110.5" width="159" height="30" class="UNMATCHABLE" fill="#ffffff"><g><rect width="100%" height="100%" stroke="none" fill="white" class="sc-fqkvVR eDtKfR"></rect><text x="10" y="50%" dominant-baseline="middle" text-anchor="start" font-weight="normal" pointer-events="none">UNMATCHABLE</text></g></svg><svg x="0" y="140.5" width="159" height="30" class="REMATCH" fill="#ffffff"><g><rect width="100%" height="100%" stroke="none" fill="white" class="sc-fqkvVR eDtKfR"></rect><text x="10" y="50%" dominant-baseline="middle" text-anchor="start" font-weight="normal" pointer-events="none">REMATCH</text></g></svg><svg x="0" y="170.5" width="159" height="30" class="EXPIRED" fill="#ffffff"><g><rect width="100%" height="100%" stroke="none" fill="white" class="sc-fqkvVR eDtKfR"></rect><text x="10" y="50%" dominant-baseline="middle" text-anchor="start" font-weight="normal" pointer-events="none">EXPIRED</text></g></svg><rect width="100%" height="100%" stroke="black" fill="none" class="sc-fqkvVR jAaomD"></rect><path d="M 0 50 H 160" stroke="black" fill="white" class="sc-gEvEer fkqzOi"></path></g></svg><svg x="595" y="115" width="160" height="110" class="Location" fill="#ffffff"><g><rect width="100%" height="50" stroke="none" fill="white" class="sc-fqkvVR eDtKfR"></rect><rect y="50" width="100%" height="60" stroke="none" fill="white" class="sc-fqkvVR eDtKfR"></rect><svg height="50"><text x="50%" y="50%" dominant-baseline="middle" text-anchor="middle" font-weight="bold" pointer-events="none"><tspan x="50%" dy="-8" text-anchor="middle" font-size="85%">«enumeration»</tspan><tspan x="50%" dy="18" text-anchor="middle">Location</tspan></text></svg><svg x="0" y="50.5" width="159" height="30" class="GARCHING" fill="#ffffff"><g><rect width="100%" height="100%" stroke="none" fill="white" class="sc-fqkvVR eDtKfR"></rect><text x="10" y="50%" dominant-baseline="middle" text-anchor="start" font-weight="normal" pointer-events="none">GARCHING</text></g></svg><svg x="0" y="80.5" width="159" height="30" class="ARCISSTR" fill="#ffffff"><g><rect width="100%" height="100%" stroke="none" fill="white" class="sc-fqkvVR eDtKfR"></rect><text x="10" y="50%" dominant-baseline="middle" text-anchor="start" font-weight="normal" pointer-events="none">ARCISSTR</text></g></svg><rect width="100%" height="100%" stroke="black" fill="none" class="sc-fqkvVR jAaomD"></rect><path d="M 0 50 H 160" stroke="black" fill="white" class="sc-gEvEer fkqzOi"></path></g></svg><svg x="125" y="395" width="50" height="526" class="" fill="#ffffff"><g><marker id="marker-57daf80c-5349-4e03-b1d2-8c3a33d407b3" viewBox="0 0 30 30" markerWidth="22" markerHeight="30" refX="30" refY="15" orient="auto" markerUnits="strokeWidth"><path d="M0,1 L0,29 L30,15 z" stroke="black" fill="white" class="sc-gEvEer fkqzOi"></path></marker><polyline points="50 505,5 505,5 0" stroke-width="1" marker-end="url(#marker-57daf80c-5349-4e03-b1d2-8c3a33d407b3)" stroke="black" fill="none" class="sc-aXZVg eMElBf"></polyline><text x="42" y="505" dy="21" text-anchor="end" pointer-events="none"></text><text x="5" y="31" dx="5" dy="10" text-anchor="start" pointer-events="none"></text><text x="42" y="505" dy="-10" text-anchor="end" pointer-events="none"></text><text x="5" y="31" dx="-5" dy="10" text-anchor="end" pointer-events="none"></text></g></svg><svg x="125" y="395" width="50" height="156" class="" fill="#ffffff"><g><marker id="marker-af183dbb-96af-46c2-9f05-b66927b9a7e5" viewBox="0 0 30 30" markerWidth="22" markerHeight="30" refX="30" refY="15" orient="auto" markerUnits="strokeWidth"><path d="M0,1 L0,29 L30,15 z" stroke="black" fill="white" class="sc-gEvEer fkqzOi"></path></marker><polyline points="50 135,5 135,5 0" stroke-width="1" marker-end="url(#marker-af183dbb-96af-46c2-9f05-b66927b9a7e5)" stroke="black" fill="none" class="sc-aXZVg eMElBf"></polyline><text x="42" y="135" dy="21" text-anchor="end" pointer-events="none"></text><text x="5" y="31" dx="5" dy="10" text-anchor="start" pointer-events="none"></text><text x="42" y="135" dy="-10" text-anchor="end" pointer-events="none"></text><text x="5" y="31" dx="-5" dy="10" text-anchor="end" pointer-events="none"></text></g></svg><svg x="125" y="395" width="50" height="81" class="" fill="#ffffff"><g><marker id="marker-cf3a9925-0520-4ece-890f-8e5cd2081806" viewBox="0 0 30 30" markerWidth="22" markerHeight="30" refX="30" refY="15" orient="auto" markerUnits="strokeWidth"><path d="M0,1 L0,29 L30,15 z" stroke="black" fill="white" class="sc-gEvEer fkqzOi"></path></marker><polyline points="50 60,5 60,5 0" stroke-width="1" marker-end="url(#marker-cf3a9925-0520-4ece-890f-8e5cd2081806)" stroke="black" fill="none" class="sc-aXZVg eMElBf"></polyline><text x="42" y="60" dy="21" text-anchor="end" pointer-events="none"></text><text x="5" y="31" dx="5" dy="10" text-anchor="start" pointer-events="none"></text><text x="42" y="60" dy="-10" text-anchor="end" pointer-events="none"></text><text x="5" y="31" dx="-5" dy="10" text-anchor="end" pointer-events="none"></text></g></svg><svg x="250" y="685" width="27.799999237060547" height="189" class="" fill="#ffffff"><g><marker id="marker-8d92770b-06ef-420c-8da0-8229f7731c0f" viewBox="0 0 30 30" markerWidth="30" markerHeight="30" refX="30" refY="15" orient="auto" markerUnits="strokeWidth"><path d="M0,15 L15,22 L30,15 L15,8 z" stroke="white" fill="black" class="sc-eqUAAy dLsBSg"></path></marker><polyline points="5 180,5 0" stroke-width="1" marker-end="url(#marker-8d92770b-06ef-420c-8da0-8229f7731c0f)" stroke="black" fill="none" class="sc-aXZVg eMElBf"></polyline><text x="5" y="172" dx="5" text-anchor="start" pointer-events="none">1..</text><text x="5" y="31" dx="5" dy="10" text-anchor="start" pointer-events="none"></text><text x="5" y="172" dx="-5" text-anchor="end" pointer-events="none"></text><text x="5" y="31" dx="-5" dy="10" text-anchor="end" pointer-events="none"></text></g></svg><svg x="525" y="685" width="27.799999237060547" height="129" class="" fill="#ffffff"><g><marker id="marker-8b09aac8-b92f-49ff-bf55-583b545b425a" viewBox="0 0 30 30" markerWidth="30" markerHeight="30" refX="30" refY="15" orient="auto" markerUnits="strokeWidth"><path d="M0,15 L15,22 L30,15 L15,8 z" stroke="white" fill="black" class="sc-eqUAAy dLsBSg"></path></marker><polyline points="5 120,5 0" stroke-width="1" marker-end="url(#marker-8b09aac8-b92f-49ff-bf55-583b545b425a)" stroke="black" fill="none" class="sc-aXZVg eMElBf"></polyline><text x="5" y="112" dx="5" text-anchor="start" pointer-events="none">1..</text><text x="5" y="31" dx="5" dy="10" text-anchor="start" pointer-events="none"></text><text x="5" y="112" dx="-5" text-anchor="end" pointer-events="none"></text><text x="5" y="31" dx="-5" dy="10" text-anchor="end" pointer-events="none"></text></g></svg><svg x="390" y="305" width="45" height="171" class="" fill="#ffffff"><g><marker id="marker-301a6742-c659-498d-afbb-50b15539f816" viewBox="0 0 30 30" markerWidth="22" markerHeight="30" refX="30" refY="15" orient="auto" markerUnits="strokeWidth"><path d="M0,1 L0,29 L30,15 z" stroke="black" fill="white" class="sc-gEvEer fkqzOi"></path></marker><polyline points="45 150,5 150,5 0" stroke-width="1" marker-end="url(#marker-301a6742-c659-498d-afbb-50b15539f816)" stroke="black" fill="none" class="sc-aXZVg eMElBf"></polyline><text x="37" y="150" dy="21" text-anchor="end" pointer-events="none"></text><text x="5" y="31" dx="5" dy="10" text-anchor="start" pointer-events="none"></text><text x="37" y="150" dy="-10" text-anchor="end" pointer-events="none"></text><text x="5" y="31" dx="-5" dy="10" text-anchor="end" pointer-events="none"></text></g></svg><svg x="390" y="305" width="45" height="246" class="" fill="#ffffff"><g><marker id="marker-80edf6a5-884a-4bac-b3a4-2937ffd61b05" viewBox="0 0 30 30" markerWidth="22" markerHeight="30" refX="30" refY="15" orient="auto" markerUnits="strokeWidth"><path d="M0,1 L0,29 L30,15 z" stroke="black" fill="white" class="sc-gEvEer fkqzOi"></path></marker><polyline points="45 225,5 225,5 0" stroke-width="1" marker-end="url(#marker-80edf6a5-884a-4bac-b3a4-2937ffd61b05)" stroke="black" fill="none" class="sc-aXZVg eMElBf"></polyline><text x="37" y="225" dy="21" text-anchor="end" pointer-events="none"></text><text x="5" y="31" dx="5" dy="10" text-anchor="start" pointer-events="none"></text><text x="37" y="225" dy="-10" text-anchor="end" pointer-events="none"></text><text x="5" y="31" dx="-5" dy="10" text-anchor="end" pointer-events="none"></text></g></svg><svg x="390" y="305" width="45" height="586" class="" fill="#ffffff"><g><marker id="marker-0d7019d4-0762-4a8c-8836-11d6d4861e0e" viewBox="0 0 30 30" markerWidth="22" markerHeight="30" refX="30" refY="15" orient="auto" markerUnits="strokeWidth"><path d="M0,1 L0,29 L30,15 z" stroke="black" fill="white" class="sc-gEvEer fkqzOi"></path></marker><polyline points="45 565,5 565,5 0" stroke-width="1" marker-end="url(#marker-0d7019d4-0762-4a8c-8836-11d6d4861e0e)" stroke="black" fill="none" class="sc-aXZVg eMElBf"></polyline><text x="37" y="565" dy="21" text-anchor="end" pointer-events="none"></text><text x="5" y="31" dx="5" dy="10" text-anchor="start" pointer-events="none"></text><text x="37" y="565" dy="-10" text-anchor="end" pointer-events="none"></text><text x="5" y="31" dx="-5" dy="10" text-anchor="end" pointer-events="none"></text></g></svg><svg x="625" y="860" width="110" height="31" class="" fill="#ffffff"><g><marker id="marker-cd003c28-c5c5-44cc-bfad-a5f1f24cd2a0" viewBox="0 0 30 30" markerWidth="30" markerHeight="30" refX="30" refY="15" orient="auto" markerUnits="strokeWidth"><path d="M0,15 L15,22 L30,15 L15,8 z" stroke="black" fill="white" class="sc-gEvEer fkqzOi"></path></marker><polyline points="110 10,0 10" stroke-width="1" marker-end="url(#marker-cd003c28-c5c5-44cc-bfad-a5f1f24cd2a0)" stroke="black" fill="none" class="sc-aXZVg eMElBf"></polyline><text x="102" y="10" dy="21" text-anchor="end" pointer-events="none"></text><text x="31" y="10" dy="21" text-anchor="start" pointer-events="none"></text><text x="102" y="10" dy="-10" text-anchor="end" pointer-events="none"></text><text x="31" y="10" dy="-10" text-anchor="start" pointer-events="none"></text></g></svg><svg x="525" y="160" width="70" height="31" class="" fill="#ffffff"><g><marker id="marker-ab493ae3-2c96-43b2-8e42-6841eb406566" viewBox="0 0 30 30" markerWidth="30" markerHeight="30" refX="30" refY="15" orient="auto" markerUnits="strokeWidth"><path d="M0,15 L15,22 L30,15 L15,8 z" stroke="black" fill="white" class="sc-gEvEer fkqzOi"></path></marker><polyline points="70 10,0 10" stroke-width="1" marker-end="url(#marker-ab493ae3-2c96-43b2-8e42-6841eb406566)" stroke="black" fill="none" class="sc-aXZVg eMElBf"></polyline><text x="62" y="10" dy="21" text-anchor="end" pointer-events="none"></text><text x="31" y="10" dy="21" text-anchor="start" pointer-events="none"></text><text x="62" y="10" dy="-10" text-anchor="end" pointer-events="none"></text><text x="31" y="10" dy="-10" text-anchor="start" pointer-events="none"></text></g></svg><svg x="755" y="160" width="60" height="31" class="" fill="#ffffff"><g><marker id="marker-3596a3a8-a3bd-4e8a-be74-33dcdf9c73e8" viewBox="0 0 30 30" markerWidth="30" markerHeight="30" refX="30" refY="15" orient="auto" markerUnits="strokeWidth"><path d="M0,15 L15,22 L30,15 L15,8 z" stroke="black" fill="white" class="sc-gEvEer fkqzOi"></path></marker><polyline points="0 10,60 10" stroke-width="1" marker-end="url(#marker-3596a3a8-a3bd-4e8a-be74-33dcdf9c73e8)" stroke="black" fill="none" class="sc-aXZVg eMElBf"></polyline><text x="8" y="10" dy="21" text-anchor="start" pointer-events="none"></text><text x="29" y="10" dy="21" text-anchor="end" pointer-events="none"></text><text x="8" y="10" dy="-10" text-anchor="start" pointer-events="none"></text><text x="29" y="10" dy="-10" text-anchor="end" pointer-events="none"></text></g></svg><svg x="775" y="535" width="27.799999237060547" height="80" class="" fill="#ffffff"><g><marker id="marker-b3a8cd23-bad2-4817-b7ec-8f7b5e3acd70" viewBox="0 0 30 30" markerWidth="30" markerHeight="30" refX="30" refY="15" orient="auto" markerUnits="strokeWidth"><path d="M0,15 L15,22 L30,15 L15,8 z" stroke="white" fill="black" class="sc-eqUAAy dLsBSg"></path></marker><polyline points="5 0,5 80" stroke-width="1" marker-end="url(#marker-b3a8cd23-bad2-4817-b7ec-8f7b5e3acd70)" stroke="black" fill="none" class="sc-aXZVg eMElBf"></polyline><text x="5" y="8" dx="5" dy="10" text-anchor="start" pointer-events="none">1..</text><text x="5" y="49" dx="5" text-anchor="start" pointer-events="none"></text><text x="5" y="8" dx="-5" dy="10" text-anchor="end" pointer-events="none"></text><text x="5" y="49" dx="-5" text-anchor="end" pointer-events="none"></text></g></svg><svg x="865" y="445" width="120" height="31" class="" fill="#ffffff"><g><marker id="marker-710439c4-ce42-4ff1-bb4a-5d0b33cc1d3e" viewBox="0 0 30 30" markerWidth="30" markerHeight="30" refX="30" refY="15" orient="auto" markerUnits="strokeWidth"><path d="M0,15 L15,22 L30,15 L15,8 z" stroke="black" fill="white" class="sc-gEvEer fkqzOi"></path></marker><polyline points="120 10,0 10" stroke-width="1" marker-end="url(#marker-710439c4-ce42-4ff1-bb4a-5d0b33cc1d3e)" stroke="black" fill="none" class="sc-aXZVg eMElBf"></polyline><text x="112" y="10" dy="21" text-anchor="end" pointer-events="none"></text><text x="31" y="10" dy="21" text-anchor="start" pointer-events="none"></text><text x="112" y="10" dy="-10" text-anchor="end" pointer-events="none"></text><text x="31" y="10" dy="-10" text-anchor="start" pointer-events="none"></text></g></svg><svg x="1125" y="685" width="10" height="190" class="" fill="#ffffff"><g><polyline points="5 190,5 0" stroke-width="1" marker-end="url(#marker-bbb33d3b-56eb-4683-8ad8-913b1885bf66)" stroke="black" fill="none" class="sc-aXZVg eMElBf"></polyline><text x="5" y="182" dx="5" text-anchor="start" pointer-events="none"></text><text x="5" y="8" dx="5" dy="10" text-anchor="start" pointer-events="none"></text><text x="5" y="182" dx="-5" text-anchor="end" pointer-events="none"></text><text x="5" y="8" dx="-5" dy="10" text-anchor="end" pointer-events="none"></text></g></svg><svg x="835" y="295" width="10" height="80" class="" fill="#ffffff"><g><marker id="marker-09f1f970-b42f-4881-8c1b-a9cf87169f30" viewBox="0 0 30 30" markerWidth="30" markerHeight="30" refX="30" refY="15" orient="auto" markerUnits="strokeWidth"><path d="M0,15 L15,22 L30,15 L15,8 z" stroke="white" fill="black" class="sc-eqUAAy dLsBSg"></path></marker><polyline points="5 0,5 80" stroke-width="1" marker-end="url(#marker-09f1f970-b42f-4881-8c1b-a9cf87169f30)" stroke="black" fill="none" class="sc-aXZVg eMElBf"></polyline><text x="5" y="8" dx="5" dy="10" text-anchor="start" pointer-events="none"></text><text x="5" y="49" dx="5" text-anchor="start" pointer-events="none"></text><text x="5" y="8" dx="-5" dy="10" text-anchor="end" pointer-events="none"></text><text x="5" y="49" dx="-5" text-anchor="end" pointer-events="none"></text></g></svg><svg x="1215" y="120" width="70" height="568" class="" fill="#ffffff"><g><marker id="marker-f1524f6d-d6c6-4991-a3e1-860b3057acd9" viewBox="0 0 30 30" markerWidth="30" markerHeight="30" refX="30" refY="15" orient="auto" markerUnits="strokeWidth"><path d="M0,15 L15,22 L30,15 L15,8 z" stroke="white" fill="black" class="sc-eqUAAy dLsBSg"></path></marker><polyline points="30 530,70 530,70 10,0 10" stroke-width="1" marker-end="url(#marker-f1524f6d-d6c6-4991-a3e1-860b3057acd9)" stroke="black" fill="none" class="sc-aXZVg eMElBf"></polyline><text x="38" y="530" dy="21" text-anchor="start" pointer-events="none">1</text><text x="31" y="10" dy="21" text-anchor="start" pointer-events="none"></text><text x="38" y="530" dy="-10" text-anchor="start" pointer-events="none"></text><text x="31" y="10" dy="-10" text-anchor="start" pointer-events="none"></text></g></svg><svg x="1060" y="295" width="10" height="60" class="" fill="#ffffff"><g><marker id="marker-90e3f527-ef1f-40f4-87f6-bb8871df34ce" viewBox="0 0 30 30" markerWidth="30" markerHeight="30" refX="30" refY="15" orient="auto" markerUnits="strokeWidth"><path d="M0,15 L15,22 L30,15 L15,8 z" stroke="black" fill="white" class="sc-gEvEer fkqzOi"></path></marker><polyline points="5 60,5 0" stroke-width="1" marker-end="url(#marker-90e3f527-ef1f-40f4-87f6-bb8871df34ce)" stroke="black" fill="none" class="sc-aXZVg eMElBf"></polyline><text x="5" y="52" dx="5" text-anchor="start" pointer-events="none"></text><text x="5" y="31" dx="5" dy="10" text-anchor="start" pointer-events="none"></text><text x="5" y="52" dx="-5" text-anchor="end" pointer-events="none"></text><text x="5" y="31" dx="-5" dy="10" text-anchor="end" pointer-events="none"></text></g></svg></svg>