<svg width="1531" height="1391" xmlns="http://www.w3.org/2000/svg" xmlns:xlink="http://www.w3.org/1999/xlink" fill="#ffffff"><defs><style>
  text {
    fill: #212529;
    font-family: Helvetica Neue, Helvetica, Arial, sans-serif;
    font-size: 16px;
  }

  marker, text {
    fill-opacity: 1;
  }

  * {
    overflow: visible;
  }
</style></defs><svg x="15" y="15" width="1500" height="1360" class="MeetAtMensa Matching Microservice" fill="#ffffff"><g><path d="M 0 10 V 0 H 40 V 10" stroke="black" fill="white" class="sc-gEvEer fkqzOi"></path><rect y="10" width="100%" height="1350" stroke="black" fill="white" class="sc-fqkvVR uHYUy"></rect><text x="50%" y="20" dy="10" text-anchor="middle" font-weight="bold" pointer-events="none">MeetAtMensa Matching Microservice</text></g></svg><svg x="535" y="775" width="310" height="280" class="MatchService" fill="#ffffff"><g><rect width="100%" height="40" stroke="none" fill="white" class="sc-fqkvVR eDtKfR"></rect><rect y="40" width="100%" height="240" stroke="none" fill="white" class="sc-fqkvVR eDtKfR"></rect><svg height="40"><text x="50%" y="50%" dominant-baseline="middle" text-anchor="middle" font-weight="bold" pointer-events="none">MatchService</text></svg><svg x="0" y="40.5" width="309" height="30" class="- matchRepository: MatchRepository" fill="#ffffff"><g><rect width="100%" height="100%" stroke="none" fill="white" class="sc-fqkvVR eDtKfR"></rect><text x="10" y="50%" dominant-baseline="middle" text-anchor="start" font-weight="normal" pointer-events="none">- matchRepository: MatchRepository</text></g></svg><svg x="0" y="70.5" width="309" height="30" class="- groupService: GroupService" fill="#ffffff"><g><rect width="100%" height="100%" stroke="none" fill="white" class="sc-fqkvVR eDtKfR"></rect><text x="10" y="50%" dominant-baseline="middle" text-anchor="start" font-weight="normal" pointer-events="none">- groupService: GroupService</text></g></svg><svg x="0" y="100.5" width="309" height="30" class="+ getMatch()" fill="#ffffff"><g><rect width="100%" height="100%" stroke="none" fill="white" class="sc-fqkvVR eDtKfR"></rect><text x="10" y="50%" dominant-baseline="middle" text-anchor="start" font-weight="normal" pointer-events="none">+ getMatch()</text></g></svg><svg x="0" y="130.5" width="309" height="30" class="+ getMatches()" fill="#ffffff"><g><rect width="100%" height="100%" stroke="none" fill="white" class="sc-fqkvVR eDtKfR"></rect><text x="10" y="50%" dominant-baseline="middle" text-anchor="start" font-weight="normal" pointer-events="none">+ getMatches()</text></g></svg><svg x="0" y="160.5" width="309" height="30" class="+ getMatchesByGroup()" fill="#ffffff"><g><rect width="100%" height="100%" stroke="none" fill="white" class="sc-fqkvVR eDtKfR"></rect><text x="10" y="50%" dominant-baseline="middle" text-anchor="start" font-weight="normal" pointer-events="none">+ getMatchesByGroup()</text></g></svg><svg x="0" y="190.5" width="309" height="30" class="+ registerMatch()" fill="#ffffff"><g><rect width="100%" height="100%" stroke="none" fill="white" class="sc-fqkvVR eDtKfR"></rect><text x="10" y="50%" dominant-baseline="middle" text-anchor="start" font-weight="normal" pointer-events="none">+ registerMatch()</text></g></svg><svg x="0" y="220.5" width="309" height="30" class="+ updateStatus()" fill="#ffffff"><g><rect width="100%" height="100%" stroke="none" fill="white" class="sc-fqkvVR eDtKfR"></rect><text x="10" y="50%" dominant-baseline="middle" text-anchor="start" font-weight="normal" pointer-events="none">+ updateStatus()</text></g></svg><svg x="0" y="250.5" width="309" height="30" class="+ removeMatch()" fill="#ffffff"><g><rect width="100%" height="100%" stroke="none" fill="white" class="sc-fqkvVR eDtKfR"></rect><text x="10" y="50%" dominant-baseline="middle" text-anchor="start" font-weight="normal" pointer-events="none">+ removeMatch()</text></g></svg><rect width="100%" height="100%" stroke="black" fill="none" class="sc-fqkvVR jAaomD"></rect><path d="M 0 40 H 310" stroke="black" fill="white" class="sc-gEvEer fkqzOi"></path><path d="M 0 100 H 310" stroke="black" fill="white" class="sc-gEvEer fkqzOi"></path></g></svg><svg x="55" y="75" width="330" height="290" class="MatchingAPI" fill="#ffffff"><g><rect width="100%" height="50" stroke="none" fill="white" class="sc-fqkvVR eDtKfR"></rect><rect y="50" width="100%" height="240" stroke="none" fill="white" class="sc-fqkvVR eDtKfR"></rect><svg height="50"><text x="50%" y="50%" dominant-baseline="middle" text-anchor="middle" font-weight="bold" pointer-events="none"><tspan x="50%" dy="-8" text-anchor="middle" font-size="85%">«interface»</tspan><tspan x="50%" dy="18" text-anchor="middle">MatchingAPI</tspan></text></svg><svg x="0" y="50.5" width="329" height="30" class="+ deleteApiV2MatchingRequestRequestId()" fill="#ffffff"><g><rect width="100%" height="100%" stroke="none" fill="white" class="sc-fqkvVR eDtKfR"></rect><text x="10" y="50%" dominant-baseline="middle" text-anchor="start" font-weight="normal" pointer-events="none">+ deleteApiV2MatchingRequestRequestId()</text></g></svg><svg x="0" y="80.5" width="329" height="30" class="+ getApiV2MatchingMatchesUserID()" fill="#ffffff"><g><rect width="100%" height="100%" stroke="none" fill="white" class="sc-fqkvVR eDtKfR"></rect><text x="10" y="50%" dominant-baseline="middle" text-anchor="start" font-weight="normal" pointer-events="none">+ getApiV2MatchingMatchesUserID()</text></g></svg><svg x="0" y="110.5" width="329" height="30" class="+ getApiV2MatchingRequestsUserID()" fill="#ffffff"><g><rect width="100%" height="100%" stroke="none" fill="white" class="sc-fqkvVR eDtKfR"></rect><text x="10" y="50%" dominant-baseline="middle" text-anchor="start" font-weight="normal" pointer-events="none">+ getApiV2MatchingRequestsUserID()</text></g></svg><svg x="0" y="140.5" width="329" height="30" class="+ getApiV2MatchingRsvpMatchIdAccept()" fill="#ffffff"><g><rect width="100%" height="100%" stroke="none" fill="white" class="sc-fqkvVR eDtKfR"></rect><text x="10" y="50%" dominant-baseline="middle" text-anchor="start" font-weight="normal" pointer-events="none">+ getApiV2MatchingRsvpMatchIdAccept()</text></g></svg><svg x="0" y="170.5" width="329" height="30" class="+ getApiV2MatchingRsvpMatchIdReject()" fill="#ffffff"><g><rect width="100%" height="100%" stroke="none" fill="white" class="sc-fqkvVR eDtKfR"></rect><text x="10" y="50%" dominant-baseline="middle" text-anchor="start" font-weight="normal" pointer-events="none">+ getApiV2MatchingRsvpMatchIdReject()</text></g></svg><svg x="0" y="200.5" width="329" height="30" class="+ postApiV2MatchingRequestSubmit()" fill="#ffffff"><g><rect width="100%" height="100%" stroke="none" fill="white" class="sc-fqkvVR eDtKfR"></rect><text x="10" y="50%" dominant-baseline="middle" text-anchor="start" font-weight="normal" pointer-events="none">+ postApiV2MatchingRequestSubmit()</text></g></svg><svg x="0" y="230.5" width="329" height="30" class="+ putApiV2MatchingRequestRequestId()" fill="#ffffff"><g><rect width="100%" height="100%" stroke="none" fill="white" class="sc-fqkvVR eDtKfR"></rect><text x="10" y="50%" dominant-baseline="middle" text-anchor="start" font-weight="normal" pointer-events="none">+ putApiV2MatchingRequestRequestId()</text></g></svg><svg x="0" y="260.5" width="329" height="30" class="+ postApiV2MatchingDemo()" fill="#ffffff"><g><rect width="100%" height="100%" stroke="none" fill="white" class="sc-fqkvVR eDtKfR"></rect><text x="10" y="50%" dominant-baseline="middle" text-anchor="start" font-weight="normal" pointer-events="none">+ postApiV2MatchingDemo()</text></g></svg><rect width="100%" height="100%" stroke="black" fill="none" class="sc-fqkvVR jAaomD"></rect><path d="M 0 50 H 330" stroke="black" fill="white" class="sc-gEvEer fkqzOi"></path></g></svg><svg x="65" y="465" width="310" height="130" class="MatchingController" fill="#ffffff"><g><rect width="100%" height="40" stroke="none" fill="white" class="sc-fqkvVR eDtKfR"></rect><rect y="40" width="100%" height="90" stroke="none" fill="white" class="sc-fqkvVR eDtKfR"></rect><svg height="40"><text x="50%" y="50%" dominant-baseline="middle" text-anchor="middle" font-weight="bold" pointer-events="none">MatchingController</text></svg><svg x="0" y="40.5" width="309" height="30" class="- requestService: MatchRequestService" fill="#ffffff"><g><rect width="100%" height="100%" stroke="none" fill="white" class="sc-fqkvVR eDtKfR"></rect><text x="10" y="50%" dominant-baseline="middle" text-anchor="start" font-weight="normal" pointer-events="none">- requestService: MatchRequestService</text></g></svg><svg x="0" y="70.5" width="309" height="30" class="- matchingService: MatchingService" fill="#ffffff"><g><rect width="100%" height="100%" stroke="none" fill="white" class="sc-fqkvVR eDtKfR"></rect><text x="10" y="50%" dominant-baseline="middle" text-anchor="start" font-weight="normal" pointer-events="none">- matchingService: MatchingService</text></g></svg><svg x="0" y="100.5" width="309" height="30" class="- matchService: MatchService" fill="#ffffff"><g><rect width="100%" height="100%" stroke="none" fill="white" class="sc-fqkvVR eDtKfR"></rect><text x="10" y="50%" dominant-baseline="middle" text-anchor="start" font-weight="normal" pointer-events="none">- matchService: MatchService</text></g></svg><rect width="100%" height="100%" stroke="black" fill="none" class="sc-fqkvVR jAaomD"></rect><path d="M 0 40 H 310" stroke="black" fill="white" class="sc-gEvEer fkqzOi"></path></g></svg><svg x="55" y="855" width="350" height="430" class="MatchRequestService" fill="#ffffff"><g><rect width="100%" height="40" stroke="none" fill="white" class="sc-fqkvVR eDtKfR"></rect><rect y="40" width="100%" height="390" stroke="none" fill="white" class="sc-fqkvVR eDtKfR"></rect><svg height="40"><text x="50%" y="50%" dominant-baseline="middle" text-anchor="middle" font-weight="bold" pointer-events="none">MatchRequestService</text></svg><svg x="0" y="40.5" width="349" height="30" class="- requestRepository: MatchRequestRepository" fill="#ffffff"><g><rect width="100%" height="100%" stroke="none" fill="white" class="sc-fqkvVR eDtKfR"></rect><text x="10" y="50%" dominant-baseline="middle" text-anchor="start" font-weight="normal" pointer-events="none">- requestRepository: MatchRequestRepository</text></g></svg><svg x="0" y="70.5" width="349" height="30" class="- timeslotService: TimeslotService" fill="#ffffff"><g><rect width="100%" height="100%" stroke="none" fill="white" class="sc-fqkvVR eDtKfR"></rect><text x="10" y="50%" dominant-baseline="middle" text-anchor="start" font-weight="normal" pointer-events="none">- timeslotService: TimeslotService</text></g></svg><svg x="0" y="100.5" width="349" height="30" class="+ getRequest()" fill="#ffffff"><g><rect width="100%" height="100%" stroke="none" fill="white" class="sc-fqkvVR eDtKfR"></rect><text x="10" y="50%" dominant-baseline="middle" text-anchor="start" font-weight="normal" pointer-events="none">+ getRequest()</text></g></svg><svg x="0" y="130.5" width="349" height="30" class="+ getUserRequests()" fill="#ffffff"><g><rect width="100%" height="100%" stroke="none" fill="white" class="sc-fqkvVR eDtKfR"></rect><text x="10" y="50%" dominant-baseline="middle" text-anchor="start" font-weight="normal" pointer-events="none">+ getUserRequests()</text></g></svg><svg x="0" y="160.5" width="349" height="30" class="+ getUnmatchedRequests()" fill="#ffffff"><g><rect width="100%" height="100%" stroke="none" fill="white" class="sc-fqkvVR eDtKfR"></rect><text x="10" y="50%" dominant-baseline="middle" text-anchor="start" font-weight="normal" pointer-events="none">+ getUnmatchedRequests()</text></g></svg><svg x="0" y="190.5" width="349" height="30" class="+ registerRequest()" fill="#ffffff"><g><rect width="100%" height="100%" stroke="none" fill="white" class="sc-fqkvVR eDtKfR"></rect><text x="10" y="50%" dominant-baseline="middle" text-anchor="start" font-weight="normal" pointer-events="none">+ registerRequest()</text></g></svg><svg x="0" y="220.5" width="349" height="30" class="+ userHasRequestOn()" fill="#ffffff"><g><rect width="100%" height="100%" stroke="none" fill="white" class="sc-fqkvVR eDtKfR"></rect><text x="10" y="50%" dominant-baseline="middle" text-anchor="start" font-weight="normal" pointer-events="none">+ userHasRequestOn()</text></g></svg><svg x="0" y="250.5" width="349" height="30" class="+ getUserRequestOn()" fill="#ffffff"><g><rect width="100%" height="100%" stroke="none" fill="white" class="sc-fqkvVR eDtKfR"></rect><text x="10" y="50%" dominant-baseline="middle" text-anchor="start" font-weight="normal" pointer-events="none">+ getUserRequestOn()</text></g></svg><svg x="0" y="280.5" width="349" height="30" class="+ removeRequest()" fill="#ffffff"><g><rect width="100%" height="100%" stroke="none" fill="white" class="sc-fqkvVR eDtKfR"></rect><text x="10" y="50%" dominant-baseline="middle" text-anchor="start" font-weight="normal" pointer-events="none">+ removeRequest()</text></g></svg><svg x="0" y="310.5" width="349" height="30" class="+ updateRequest()" fill="#ffffff"><g><rect width="100%" height="100%" stroke="none" fill="white" class="sc-fqkvVR eDtKfR"></rect><text x="10" y="50%" dominant-baseline="middle" text-anchor="start" font-weight="normal" pointer-events="none">+ updateRequest()</text></g></svg><svg x="0" y="340.5" width="349" height="30" class="+ updateRequestStatus()" fill="#ffffff"><g><rect width="100%" height="100%" stroke="none" fill="white" class="sc-fqkvVR eDtKfR"></rect><text x="10" y="50%" dominant-baseline="middle" text-anchor="start" font-weight="normal" pointer-events="none">+ updateRequestStatus()</text></g></svg><svg x="0" y="370.5" width="349" height="30" class="# expireRequest()" fill="#ffffff"><g><rect width="100%" height="100%" stroke="none" fill="white" class="sc-fqkvVR eDtKfR"></rect><text x="10" y="50%" dominant-baseline="middle" text-anchor="start" font-weight="normal" pointer-events="none"># expireRequest()</text></g></svg><svg x="0" y="400.5" width="349" height="30" class="# cleanupExpired()" fill="#ffffff"><g><rect width="100%" height="100%" stroke="none" fill="white" class="sc-fqkvVR eDtKfR"></rect><text x="10" y="50%" dominant-baseline="middle" text-anchor="start" font-weight="normal" pointer-events="none"># cleanupExpired()</text></g></svg><rect width="100%" height="100%" stroke="black" fill="none" class="sc-fqkvVR jAaomD"></rect><path d="M 0 40 H 350" stroke="black" fill="white" class="sc-gEvEer fkqzOi"></path><path d="M 0 100 H 350" stroke="black" fill="white" class="sc-gEvEer fkqzOi"></path></g></svg><svg x="535" y="1095" width="310" height="190" class="TimeslotService" fill="#ffffff"><g><rect width="100%" height="40" stroke="none" fill="white" class="sc-fqkvVR eDtKfR"></rect><rect y="40" width="100%" height="150" stroke="none" fill="white" class="sc-fqkvVR eDtKfR"></rect><svg height="40"><text x="50%" y="50%" dominant-baseline="middle" text-anchor="middle" font-weight="bold" pointer-events="none">TimeslotService</text></svg><svg x="0" y="40.5" width="309" height="30" class="- timeslotRepository: TimeslotRepository" fill="#ffffff"><g><rect width="100%" height="100%" stroke="none" fill="white" class="sc-fqkvVR eDtKfR"></rect><text x="10" y="50%" dominant-baseline="middle" text-anchor="start" font-weight="normal" pointer-events="none">- timeslotRepository: TimeslotRepository</text></g></svg><svg x="0" y="70.5" width="309" height="30" class="+ getTimeslots()" fill="#ffffff"><g><rect width="100%" height="100%" stroke="none" fill="white" class="sc-fqkvVR eDtKfR"></rect><text x="10" y="50%" dominant-baseline="middle" text-anchor="start" font-weight="normal" pointer-events="none">+ getTimeslots()</text></g></svg><svg x="0" y="100.5" width="309" height="30" class="+ registerTimeslots()" fill="#ffffff"><g><rect width="100%" height="100%" stroke="none" fill="white" class="sc-fqkvVR eDtKfR"></rect><text x="10" y="50%" dominant-baseline="middle" text-anchor="start" font-weight="normal" pointer-events="none">+ registerTimeslots()</text></g></svg><svg x="0" y="130.5" width="309" height="30" class="+ deleteTimeslots()" fill="#ffffff"><g><rect width="100%" height="100%" stroke="none" fill="white" class="sc-fqkvVR eDtKfR"></rect><text x="10" y="50%" dominant-baseline="middle" text-anchor="start" font-weight="normal" pointer-events="none">+ deleteTimeslots()</text></g></svg><svg x="0" y="160.5" width="309" height="30" class="+ updateTimeslots()" fill="#ffffff"><g><rect width="100%" height="100%" stroke="none" fill="white" class="sc-fqkvVR eDtKfR"></rect><text x="10" y="50%" dominant-baseline="middle" text-anchor="start" font-weight="normal" pointer-events="none">+ updateTimeslots()</text></g></svg><rect width="100%" height="100%" stroke="black" fill="none" class="sc-fqkvVR jAaomD"></rect><path d="M 0 40 H 310" stroke="black" fill="white" class="sc-gEvEer fkqzOi"></path><path d="M 0 70 H 310" stroke="black" fill="white" class="sc-gEvEer fkqzOi"></path></g></svg><svg x="935" y="775" width="430" height="280" class="GroupService" fill="#ffffff"><g><rect width="100%" height="40" stroke="none" fill="white" class="sc-fqkvVR eDtKfR"></rect><rect y="40" width="100%" height="240" stroke="none" fill="white" class="sc-fqkvVR eDtKfR"></rect><svg height="40"><text x="50%" y="50%" dominant-baseline="middle" text-anchor="middle" font-weight="bold" pointer-events="none">GroupService</text></svg><svg x="0" y="40.5" width="429" height="30" class="- groupRepository: GroupRepository" fill="#ffffff"><g><rect width="100%" height="100%" stroke="none" fill="white" class="sc-fqkvVR eDtKfR"></rect><text x="10" y="50%" dominant-baseline="middle" text-anchor="start" font-weight="normal" pointer-events="none">- groupRepository: GroupRepository</text></g></svg><svg x="0" y="70.5" width="429" height="30" class="- conversationStarterService: ConversationStarterService" fill="#ffffff"><g><rect width="100%" height="100%" stroke="none" fill="white" class="sc-fqkvVR eDtKfR"></rect><text x="10" y="50%" dominant-baseline="middle" text-anchor="start" font-weight="normal" pointer-events="none">- conversationStarterService: ConversationStarterService</text></g></svg><svg x="0" y="100.5" width="429" height="30" class="+ getGroup()" fill="#ffffff"><g><rect width="100%" height="100%" stroke="none" fill="white" class="sc-fqkvVR eDtKfR"></rect><text x="10" y="50%" dominant-baseline="middle" text-anchor="start" font-weight="normal" pointer-events="none">+ getGroup()</text></g></svg><svg x="0" y="130.5" width="429" height="30" class="+ getGroupsOnDate()" fill="#ffffff"><g><rect width="100%" height="100%" stroke="none" fill="white" class="sc-fqkvVR eDtKfR"></rect><text x="10" y="50%" dominant-baseline="middle" text-anchor="start" font-weight="normal" pointer-events="none">+ getGroupsOnDate()</text></g></svg><svg x="0" y="160.5" width="429" height="30" class="+ getGroupsOlderThan()" fill="#ffffff"><g><rect width="100%" height="100%" stroke="none" fill="white" class="sc-fqkvVR eDtKfR"></rect><text x="10" y="50%" dominant-baseline="middle" text-anchor="start" font-weight="normal" pointer-events="none">+ getGroupsOlderThan()</text></g></svg><svg x="0" y="190.5" width="429" height="30" class="+ registerGroup()" fill="#ffffff"><g><rect width="100%" height="100%" stroke="none" fill="white" class="sc-fqkvVR eDtKfR"></rect><text x="10" y="50%" dominant-baseline="middle" text-anchor="start" font-weight="normal" pointer-events="none">+ registerGroup()</text></g></svg><svg x="0" y="220.5" width="429" height="30" class="+ getGroupStatus" fill="#ffffff"><g><rect width="100%" height="100%" stroke="none" fill="white" class="sc-fqkvVR eDtKfR"></rect><text x="10" y="50%" dominant-baseline="middle" text-anchor="start" font-weight="normal" pointer-events="none">+ getGroupStatus</text></g></svg><svg x="0" y="250.5" width="429" height="30" class="+ removeGroup" fill="#ffffff"><g><rect width="100%" height="100%" stroke="none" fill="white" class="sc-fqkvVR eDtKfR"></rect><text x="10" y="50%" dominant-baseline="middle" text-anchor="start" font-weight="normal" pointer-events="none">+ removeGroup</text></g></svg><rect width="100%" height="100%" stroke="black" fill="none" class="sc-fqkvVR jAaomD"></rect><path d="M 0 40 H 430" stroke="black" fill="white" class="sc-gEvEer fkqzOi"></path><path d="M 0 100 H 430" stroke="black" fill="white" class="sc-gEvEer fkqzOi"></path></g></svg><svg x="1085" y="335" width="280" height="280" class="ConversationStarterService" fill="#ffffff"><g><rect width="100%" height="40" stroke="none" fill="white" class="sc-fqkvVR eDtKfR"></rect><rect y="40" width="100%" height="240" stroke="none" fill="white" class="sc-fqkvVR eDtKfR"></rect><svg height="40"><text x="50%" y="50%" dominant-baseline="middle" text-anchor="middle" font-weight="bold" pointer-events="none">ConversationStarterService</text></svg><svg x="0" y="40.5" width="279" height="30" class="prompRepository: PromptRepository" fill="#ffffff"><g><rect width="100%" height="100%" stroke="none" fill="white" class="sc-fqkvVR eDtKfR"></rect><text x="10" y="50%" dominant-baseline="middle" text-anchor="start" font-weight="normal" pointer-events="none">prompRepository: PromptRepository</text></g></svg><svg x="0" y="70.5" width="279" height="30" class="genAiClient: GenAiClient" fill="#ffffff"><g><rect width="100%" height="100%" stroke="none" fill="white" class="sc-fqkvVR eDtKfR"></rect><text x="10" y="50%" dominant-baseline="middle" text-anchor="start" font-weight="normal" pointer-events="none">genAiClient: GenAiClient</text></g></svg><svg x="0" y="100.5" width="279" height="30" class="+ generatePrompts()" fill="#ffffff"><g><rect width="100%" height="100%" stroke="none" fill="white" class="sc-fqkvVR eDtKfR"></rect><text x="10" y="50%" dominant-baseline="middle" text-anchor="start" font-weight="normal" pointer-events="none">+ generatePrompts()</text></g></svg><svg x="0" y="130.5" width="279" height="30" class="+ getPrompts()" fill="#ffffff"><g><rect width="100%" height="100%" stroke="none" fill="white" class="sc-fqkvVR eDtKfR"></rect><text x="10" y="50%" dominant-baseline="middle" text-anchor="start" font-weight="normal" pointer-events="none">+ getPrompts()</text></g></svg><svg x="0" y="160.5" width="279" height="30" class="+ registerPrompts()" fill="#ffffff"><g><rect width="100%" height="100%" stroke="none" fill="white" class="sc-fqkvVR eDtKfR"></rect><text x="10" y="50%" dominant-baseline="middle" text-anchor="start" font-weight="normal" pointer-events="none">+ registerPrompts()</text></g></svg><svg x="0" y="190.5" width="279" height="30" class="+ removePrompts()" fill="#ffffff"><g><rect width="100%" height="100%" stroke="none" fill="white" class="sc-fqkvVR eDtKfR"></rect><text x="10" y="50%" dominant-baseline="middle" text-anchor="start" font-weight="normal" pointer-events="none">+ removePrompts()</text></g></svg><svg x="0" y="220.5" width="279" height="30" class="+ updatePrompts()" fill="#ffffff"><g><rect width="100%" height="100%" stroke="none" fill="white" class="sc-fqkvVR eDtKfR"></rect><text x="10" y="50%" dominant-baseline="middle" text-anchor="start" font-weight="normal" pointer-events="none">+ updatePrompts()</text></g></svg><svg x="0" y="250.5" width="279" height="30" class="- generateDummyPrompts()" fill="#ffffff"><g><rect width="100%" height="100%" stroke="none" fill="white" class="sc-fqkvVR eDtKfR"></rect><text x="10" y="50%" dominant-baseline="middle" text-anchor="start" font-weight="normal" pointer-events="none">- generateDummyPrompts()</text></g></svg><rect width="100%" height="100%" stroke="black" fill="none" class="sc-fqkvVR jAaomD"></rect><path d="M 0 40 H 280" stroke="black" fill="white" class="sc-gEvEer fkqzOi"></path><path d="M 0 100 H 280" stroke="black" fill="white" class="sc-gEvEer fkqzOi"></path></g></svg><svg x="535" y="75" width="430" height="520" class="MatchingService" fill="#ffffff"><g><rect width="100%" height="40" stroke="none" fill="white" class="sc-fqkvVR eDtKfR"></rect><rect y="40" width="100%" height="480" stroke="none" fill="white" class="sc-fqkvVR eDtKfR"></rect><svg height="40"><text x="50%" y="50%" dominant-baseline="middle" text-anchor="middle" font-weight="bold" pointer-events="none">MatchingService</text></svg><svg x="0" y="40.5" width="429" height="30" class="- requestService: MatchRequestService" fill="#ffffff"><g><rect width="100%" height="100%" stroke="none" fill="white" class="sc-fqkvVR eDtKfR"></rect><text x="10" y="50%" dominant-baseline="middle" text-anchor="start" font-weight="normal" pointer-events="none">- requestService: MatchRequestService</text></g></svg><svg x="0" y="70.5" width="429" height="30" class="- matchService: MatchService" fill="#ffffff"><g><rect width="100%" height="100%" stroke="none" fill="white" class="sc-fqkvVR eDtKfR"></rect><text x="10" y="50%" dominant-baseline="middle" text-anchor="start" font-weight="normal" pointer-events="none">- matchService: MatchService</text></g></svg><svg x="0" y="100.5" width="429" height="30" class="- groupService: GroupService" fill="#ffffff"><g><rect width="100%" height="100%" stroke="none" fill="white" class="sc-fqkvVR eDtKfR"></rect><text x="10" y="50%" dominant-baseline="middle" text-anchor="start" font-weight="normal" pointer-events="none">- groupService: GroupService</text></g></svg><svg x="0" y="130.5" width="429" height="30" class="- conversationStarterService: ConversationStarterService" fill="#ffffff"><g><rect width="100%" height="100%" stroke="none" fill="white" class="sc-fqkvVR eDtKfR"></rect><text x="10" y="50%" dominant-baseline="middle" text-anchor="start" font-weight="normal" pointer-events="none">- conversationStarterService: ConversationStarterService</text></g></svg><svg x="0" y="160.5" width="429" height="30" class="- userClient: UserClient" fill="#ffffff"><g><rect width="100%" height="100%" stroke="none" fill="white" class="sc-fqkvVR eDtKfR"></rect><text x="10" y="50%" dominant-baseline="middle" text-anchor="start" font-weight="normal" pointer-events="none">- userClient: UserClient</text></g></svg><svg x="0" y="190.5" width="429" height="30" class="- algorithm: MatchingAlgoritm" fill="#ffffff"><g><rect width="100%" height="100%" stroke="none" fill="white" class="sc-fqkvVR eDtKfR"></rect><text x="10" y="50%" dominant-baseline="middle" text-anchor="start" font-weight="normal" pointer-events="none">- algorithm: MatchingAlgoritm</text></g></svg><svg x="0" y="220.5" width="429" height="30" class="+ sendInvite()" fill="#ffffff"><g><rect width="100%" height="100%" stroke="none" fill="white" class="sc-fqkvVR eDtKfR"></rect><text x="10" y="50%" dominant-baseline="middle" text-anchor="start" font-weight="normal" pointer-events="none">+ sendInvite()</text></g></svg><svg x="0" y="250.5" width="429" height="30" class="+ respondInvite()" fill="#ffffff"><g><rect width="100%" height="100%" stroke="none" fill="white" class="sc-fqkvVR eDtKfR"></rect><text x="10" y="50%" dominant-baseline="middle" text-anchor="start" font-weight="normal" pointer-events="none">+ respondInvite()</text></g></svg><svg x="0" y="280.5" width="429" height="30" class="+ createGroup()" fill="#ffffff"><g><rect width="100%" height="100%" stroke="none" fill="white" class="sc-fqkvVR eDtKfR"></rect><text x="10" y="50%" dominant-baseline="middle" text-anchor="start" font-weight="normal" pointer-events="none">+ createGroup()</text></g></svg><svg x="0" y="310.5" width="429" height="30" class="+ groupHealthCheck()" fill="#ffffff"><g><rect width="100%" height="100%" stroke="none" fill="white" class="sc-fqkvVR eDtKfR"></rect><text x="10" y="50%" dominant-baseline="middle" text-anchor="start" font-weight="normal" pointer-events="none">+ groupHealthCheck()</text></g></svg><svg x="0" y="340.5" width="429" height="30" class="+ rematchGroup()" fill="#ffffff"><g><rect width="100%" height="100%" stroke="none" fill="white" class="sc-fqkvVR eDtKfR"></rect><text x="10" y="50%" dominant-baseline="middle" text-anchor="start" font-weight="normal" pointer-events="none">+ rematchGroup()</text></g></svg><svg x="0" y="370.5" width="429" height="30" class="+ match()" fill="#ffffff"><g><rect width="100%" height="100%" stroke="none" fill="white" class="sc-fqkvVR eDtKfR"></rect><text x="10" y="50%" dominant-baseline="middle" text-anchor="start" font-weight="normal" pointer-events="none">+ match()</text></g></svg><svg x="0" y="400.5" width="429" height="30" class="+ implementSolution()" fill="#ffffff"><g><rect width="100%" height="100%" stroke="none" fill="white" class="sc-fqkvVR eDtKfR"></rect><text x="10" y="50%" dominant-baseline="middle" text-anchor="start" font-weight="normal" pointer-events="none">+ implementSolution()</text></g></svg><svg x="0" y="430.5" width="429" height="30" class="# expireMatches()" fill="#ffffff"><g><rect width="100%" height="100%" stroke="none" fill="white" class="sc-fqkvVR eDtKfR"></rect><text x="10" y="50%" dominant-baseline="middle" text-anchor="start" font-weight="normal" pointer-events="none"># expireMatches()</text></g></svg><svg x="0" y="460.5" width="429" height="30" class="# cleanupExpired()" fill="#ffffff"><g><rect width="100%" height="100%" stroke="none" fill="white" class="sc-fqkvVR eDtKfR"></rect><text x="10" y="50%" dominant-baseline="middle" text-anchor="start" font-weight="normal" pointer-events="none"># cleanupExpired()</text></g></svg><svg x="0" y="490.5" width="429" height="30" class="+ createDemoMatch()" fill="#ffffff"><g><rect width="100%" height="100%" stroke="none" fill="white" class="sc-fqkvVR eDtKfR"></rect><text x="10" y="50%" dominant-baseline="middle" text-anchor="start" font-weight="normal" pointer-events="none">+ createDemoMatch()</text></g></svg><rect width="100%" height="100%" stroke="black" fill="none" class="sc-fqkvVR jAaomD"></rect><path d="M 0 40 H 430" stroke="black" fill="white" class="sc-gEvEer fkqzOi"></path><path d="M 0 220 H 430" stroke="black" fill="white" class="sc-gEvEer fkqzOi"></path></g></svg><svg x="215" y="365" width="10" height="100" class="" fill="#ffffff"><g><marker id="marker-e7e3e7d2-4ee0-466c-abcd-ac08dd374995" viewBox="0 0 30 30" markerWidth="22" markerHeight="30" refX="30" refY="15" orient="auto" markerUnits="strokeWidth"><path d="M0,1 L0,29 L30,15 z" stroke="black" fill="white" class="sc-gEvEer fkqzOi"></path></marker><polyline points="5 100,5 0" stroke-width="1" marker-end="url(#marker-e7e3e7d2-4ee0-466c-abcd-ac08dd374995)" stroke-dasharray="7" stroke="black" fill="none" class="sc-aXZVg eMElBf"></polyline><text x="5" y="92" dx="5" text-anchor="start" pointer-events="none"></text><text x="5" y="31" dx="5" dy="10" text-anchor="start" pointer-events="none"></text><text x="5" y="92" dx="-5" text-anchor="end" pointer-events="none"></text><text x="5" y="31" dx="-5" dy="10" text-anchor="end" pointer-events="none"></text></g></svg><svg x="375" y="520" width="160" height="48" class="" fill="#ffffff"><g><marker id="marker-4d737336-7390-4934-b40d-fc54907d8d10" viewBox="0 0 30 30" markerWidth="30" markerHeight="30" refX="30" refY="15" orient="auto" markerUnits="strokeWidth"><path d="M0,15 L15,22 L30,15 L15,8 z" stroke="black" fill="white" class="sc-gEvEer fkqzOi"></path></marker><polyline points="160 10,0 10" stroke-width="1" marker-end="url(#marker-4d737336-7390-4934-b40d-fc54907d8d10)" stroke="black" fill="none" class="sc-aXZVg eMElBf"></polyline><text x="152" y="10" dy="21" text-anchor="end" pointer-events="none">1</text><text x="31" y="10" dy="21" text-anchor="start" pointer-events="none"></text><text x="152" y="10" dy="-10" text-anchor="end" pointer-events="none"></text><text x="31" y="10" dy="-10" text-anchor="start" pointer-events="none"></text></g></svg><svg x="215" y="595" width="18.899999618530273" height="269" class="" fill="#ffffff"><g><marker id="marker-c87f07b4-2f83-4a7f-9293-07cab9463f54" viewBox="0 0 30 30" markerWidth="30" markerHeight="30" refX="30" refY="15" orient="auto" markerUnits="strokeWidth"><path d="M0,15 L15,22 L30,15 L15,8 z" stroke="black" fill="white" class="sc-gEvEer fkqzOi"></path></marker><polyline points="5 260,5 0" stroke-width="1" marker-end="url(#marker-c87f07b4-2f83-4a7f-9293-07cab9463f54)" stroke="black" fill="none" class="sc-aXZVg eMElBf"></polyline><text x="5" y="252" dx="5" text-anchor="start" pointer-events="none">1</text><text x="5" y="31" dx="5" dy="10" text-anchor="start" pointer-events="none"></text><text x="5" y="252" dx="-5" text-anchor="end" pointer-events="none"></text><text x="5" y="31" dx="-5" dy="10" text-anchor="end" pointer-events="none"></text></g></svg><svg x="215" y="595" width="488.8999996185303" height="189" class="" fill="#ffffff"><g><marker id="marker-67414f14-6aba-40e8-b36e-c4dc7e3b50de" viewBox="0 0 30 30" markerWidth="30" markerHeight="30" refX="30" refY="15" orient="auto" markerUnits="strokeWidth"><path d="M0,15 L15,22 L30,15 L15,8 z" stroke="black" fill="white" class="sc-gEvEer fkqzOi"></path></marker><polyline points="475 180,475 90,5 90,5 0" stroke-width="1" marker-end="url(#marker-67414f14-6aba-40e8-b36e-c4dc7e3b50de)" stroke="black" fill="none" class="sc-aXZVg eMElBf"></polyline><text x="475" y="172" dx="5" text-anchor="start" pointer-events="none">1</text><text x="5" y="31" dx="5" dy="10" text-anchor="start" pointer-events="none"></text><text x="475" y="172" dx="-5" text-anchor="end" pointer-events="none"></text><text x="5" y="31" dx="-5" dy="10" text-anchor="end" pointer-events="none"></text></g></svg><svg x="405" y="1180" width="130" height="48" class="" fill="#ffffff"><g><marker id="marker-fb8fe560-6ad8-42a7-95d1-2c66a8ef66a6" viewBox="0 0 30 30" markerWidth="30" markerHeight="30" refX="30" refY="15" orient="auto" markerUnits="strokeWidth"><path d="M0,15 L15,22 L30,15 L15,8 z" stroke="black" fill="white" class="sc-gEvEer fkqzOi"></path></marker><polyline points="130 10,0 10" stroke-width="1" marker-end="url(#marker-fb8fe560-6ad8-42a7-95d1-2c66a8ef66a6)" stroke="black" fill="none" class="sc-aXZVg eMElBf"></polyline><text x="122" y="10" dy="21" text-anchor="end" pointer-events="none">1</text><text x="31" y="10" dy="21" text-anchor="start" pointer-events="none"></text><text x="122" y="10" dy="-10" text-anchor="end" pointer-events="none"></text><text x="31" y="10" dy="-10" text-anchor="start" pointer-events="none"></text></g></svg><svg x="1220" y="615" width="18.899999618530273" height="160" class="" fill="#ffffff"><g><marker id="marker-893434b1-54ac-46c5-b43b-3488f0a010c2" viewBox="0 0 30 30" markerWidth="30" markerHeight="30" refX="30" refY="15" orient="auto" markerUnits="strokeWidth"><path d="M0,15 L15,22 L30,15 L15,8 z" stroke="black" fill="white" class="sc-gEvEer fkqzOi"></path></marker><polyline points="5 0,5 160" stroke-width="1" marker-end="url(#marker-893434b1-54ac-46c5-b43b-3488f0a010c2)" stroke="black" fill="none" class="sc-aXZVg eMElBf"></polyline><text x="5" y="8" dx="5" dy="10" text-anchor="start" pointer-events="none">1</text><text x="5" y="129" dx="5" text-anchor="start" pointer-events="none"></text><text x="5" y="8" dx="-5" dy="10" text-anchor="end" pointer-events="none"></text><text x="5" y="129" dx="-5" text-anchor="end" pointer-events="none"></text></g></svg><svg x="965" y="455" width="120" height="48" class="" fill="#ffffff"><g><marker id="marker-e77b2d35-5df0-4b20-b7d2-73d0364275e5" viewBox="0 0 30 30" markerWidth="30" markerHeight="30" refX="30" refY="15" orient="auto" markerUnits="strokeWidth"><path d="M0,15 L15,22 L30,15 L15,8 z" stroke="black" fill="white" class="sc-gEvEer fkqzOi"></path></marker><polyline points="120 10,0 10" stroke-width="1" marker-end="url(#marker-e77b2d35-5df0-4b20-b7d2-73d0364275e5)" stroke="black" fill="none" class="sc-aXZVg eMElBf"></polyline><text x="112" y="10" dy="21" text-anchor="end" pointer-events="none">1</text><text x="31" y="10" dy="21" text-anchor="start" pointer-events="none"></text><text x="112" y="10" dy="-10" text-anchor="end" pointer-events="none"></text><text x="31" y="10" dy="-10" text-anchor="start" pointer-events="none"></text></g></svg><svg x="745" y="595" width="418.8999996185303" height="189" class="" fill="#ffffff"><g><marker id="marker-1402772d-06ed-4cf7-b057-23bd8a659466" viewBox="0 0 30 30" markerWidth="30" markerHeight="30" refX="30" refY="15" orient="auto" markerUnits="strokeWidth"><path d="M0,15 L15,22 L30,15 L15,8 z" stroke="black" fill="white" class="sc-gEvEer fkqzOi"></path></marker><polyline points="405 180,405 90,5 90,5 0" stroke-width="1" marker-end="url(#marker-1402772d-06ed-4cf7-b057-23bd8a659466)" stroke="black" fill="none" class="sc-aXZVg eMElBf"></polyline><text x="405" y="172" dx="5" text-anchor="start" pointer-events="none">1</text><text x="5" y="31" dx="5" dy="10" text-anchor="start" pointer-events="none"></text><text x="405" y="172" dx="-5" text-anchor="end" pointer-events="none"></text><text x="5" y="31" dx="-5" dy="10" text-anchor="end" pointer-events="none"></text></g></svg><svg x="685" y="595" width="18.899999618530273" height="189" class="" fill="#ffffff"><g><marker id="marker-e5bc23dc-40b9-44ef-9b52-c5dda5526133" viewBox="0 0 30 30" markerWidth="30" markerHeight="30" refX="30" refY="15" orient="auto" markerUnits="strokeWidth"><path d="M0,15 L15,22 L30,15 L15,8 z" stroke="black" fill="white" class="sc-gEvEer fkqzOi"></path></marker><polyline points="5 180,5 0" stroke-width="1" marker-end="url(#marker-e5bc23dc-40b9-44ef-9b52-c5dda5526133)" stroke="black" fill="none" class="sc-aXZVg eMElBf"></polyline><text x="5" y="172" dx="5" text-anchor="start" pointer-events="none">1</text><text x="5" y="31" dx="5" dy="10" text-anchor="start" pointer-events="none"></text><text x="5" y="172" dx="-5" text-anchor="end" pointer-events="none"></text><text x="5" y="31" dx="-5" dy="10" text-anchor="end" pointer-events="none"></text></g></svg></svg>