<svg width="1471" height="841" xmlns="http://www.w3.org/2000/svg" xmlns:xlink="http://www.w3.org/1999/xlink" fill="#ffffff"><defs><style>
  text {
    fill: #212529;
    font-family: Helvetica Neue, Helvetica, Arial, sans-serif;
    font-size: 16px;
  }

  marker, text {
    fill-opacity: 1;
  }

  * {
    overflow: visible;
  }
</style></defs><svg x="15" y="15" width="1440" height="810" class="Meet@Mensa" fill="#ffffff"><g data-cy="uml-subsystem"><rect width="100%" height="100%" stroke="black" fill="white" class="sc-fqkvVR uHYUy"></rect><g transform="translate(1409, 7)"><path d="M 4.8 0 L 24 0 L 24 24 L 4.8 24 L 4.8 19.2 L 0 19.2 L 0 14.4 L 4.8 14.4 L 4.8 9.6 L 0 9.6 L 0 4.8 L 4.8 4.8 Z" stroke-width="1.2" stroke-miterlimit="10" stroke="black" fill="white" class="sc-gEvEer fkqzOi"></path><path d="M 4.8 4.8 L 9.6 4.8 L 9.6 9.6 L 4.8 9.6 M 4.8 14.4 L 9.6 14.4 L 9.6 19.2 L 4.8 19.2" stroke-width="1.2" stroke-miterlimit="10" stroke="black" fill="none" class="sc-gEvEer bFSwyf"></path></g><text x="50%" y="25px" dominant-baseline="middle" text-anchor="middle" font-weight="bold" pointer-events="none"><tspan x="50%" dy="0" text-anchor="middle">Meet@Mensa</tspan></text></g></svg><svg x="55" y="75" width="260" height="160" class="Client" fill="#ffffff"><g data-cy="uml-subsystem"><rect width="100%" height="100%" stroke="black" fill="white" class="sc-fqkvVR uHYUy"></rect><g transform="translate(229, 7)"><path d="M 4.8 0 L 24 0 L 24 24 L 4.8 24 L 4.8 19.2 L 0 19.2 L 0 14.4 L 4.8 14.4 L 4.8 9.6 L 0 9.6 L 0 4.8 L 4.8 4.8 Z" stroke-width="1.2" stroke-miterlimit="10" stroke="black" fill="white" class="sc-gEvEer fkqzOi"></path><path d="M 4.8 4.8 L 9.6 4.8 L 9.6 9.6 L 4.8 9.6 M 4.8 14.4 L 9.6 14.4 L 9.6 19.2 L 4.8 19.2" stroke-width="1.2" stroke-miterlimit="10" stroke="black" fill="none" class="sc-gEvEer bFSwyf"></path></g><text x="50%" y="25px" dominant-baseline="middle" text-anchor="middle" font-weight="bold" pointer-events="none"><tspan x="50%" dy="-8" text-anchor="middle" font-size="85%">«subsystem»</tspan><tspan x="50%" dy="18" text-anchor="middle">Client</tspan></text></g></svg><svg x="105" y="135" width="170" height="70" class="Web UI" fill="#ffffff"><g data-cy="uml-component"><rect width="100%" height="100%" stroke="#2bcbba" fill="white" class="sc-fqkvVR fhA-dKu"></rect><g transform="translate(139, 7)"><path d="M 4.8 0 L 24 0 L 24 24 L 4.8 24 L 4.8 19.2 L 0 19.2 L 0 14.4 L 4.8 14.4 L 4.8 9.6 L 0 9.6 L 0 4.8 L 4.8 4.8 Z" stroke-width="1.2" stroke-miterlimit="10" stroke="#2bcbba" fill="white" class="sc-gEvEer gLAHBW"></path><path d="M 4.8 4.8 L 9.6 4.8 L 9.6 9.6 L 4.8 9.6 M 4.8 14.4 L 9.6 14.4 L 9.6 19.2 L 4.8 19.2" stroke-width="1.2" stroke-miterlimit="10" stroke="#2bcbba" fill="none" class="sc-gEvEer elQKCX"></path></g><text x="50%" y="50%" dominant-baseline="middle" text-anchor="middle" font-weight="bold" pointer-events="none"><tspan x="50%" dy="-8" text-anchor="middle" font-size="85%">«component»</tspan><tspan x="50%" dy="18" text-anchor="middle">Web UI</tspan></text></g></svg><svg x="625" y="75" width="500" height="360" class="Server" fill="#ffffff"><g data-cy="uml-subsystem"><rect width="100%" height="100%" stroke="black" fill="white" class="sc-fqkvVR uHYUy"></rect><g transform="translate(469, 7)"><path d="M 4.8 0 L 24 0 L 24 24 L 4.8 24 L 4.8 19.2 L 0 19.2 L 0 14.4 L 4.8 14.4 L 4.8 9.6 L 0 9.6 L 0 4.8 L 4.8 4.8 Z" stroke-width="1.2" stroke-miterlimit="10" stroke="black" fill="white" class="sc-gEvEer fkqzOi"></path><path d="M 4.8 4.8 L 9.6 4.8 L 9.6 9.6 L 4.8 9.6 M 4.8 14.4 L 9.6 14.4 L 9.6 19.2 L 4.8 19.2" stroke-width="1.2" stroke-miterlimit="10" stroke="black" fill="none" class="sc-gEvEer bFSwyf"></path></g><text x="50%" y="25px" dominant-baseline="middle" text-anchor="middle" font-weight="bold" pointer-events="none"><tspan x="50%" dy="-8" text-anchor="middle" font-size="85%">«subsystem»</tspan><tspan x="50%" dy="18" text-anchor="middle">Server</tspan></text></g></svg><svg x="665" y="135" width="170" height="70" class="API Gateway" fill="#ffffff"><g data-cy="uml-component"><rect width="100%" height="100%" stroke="#fd9644" fill="white" class="sc-fqkvVR cciWmB"></rect><g transform="translate(139, 7)"><path d="M 4.8 0 L 24 0 L 24 24 L 4.8 24 L 4.8 19.2 L 0 19.2 L 0 14.4 L 4.8 14.4 L 4.8 9.6 L 0 9.6 L 0 4.8 L 4.8 4.8 Z" stroke-width="1.2" stroke-miterlimit="10" stroke="#fd9644" fill="white" class="sc-gEvEer eZbOPp"></path><path d="M 4.8 4.8 L 9.6 4.8 L 9.6 9.6 L 4.8 9.6 M 4.8 14.4 L 9.6 14.4 L 9.6 19.2 L 4.8 19.2" stroke-width="1.2" stroke-miterlimit="10" stroke="#fd9644" fill="none" class="sc-gEvEer fEgMFs"></path></g><text x="50%" y="50%" dominant-baseline="middle" text-anchor="middle" font-weight="bold" pointer-events="none"><tspan x="50%" dy="-8" text-anchor="middle" font-size="85%">«component»</tspan><tspan x="50%" dy="18" text-anchor="middle">API Gateway</tspan></text></g></svg><svg x="925" y="135" width="170" height="70" class="Matching Service" fill="#ffffff"><g data-cy="uml-component"><rect width="100%" height="100%" stroke="#a55eea" fill="white" class="sc-fqkvVR eRYTco"></rect><g transform="translate(139, 7)"><path d="M 4.8 0 L 24 0 L 24 24 L 4.8 24 L 4.8 19.2 L 0 19.2 L 0 14.4 L 4.8 14.4 L 4.8 9.6 L 0 9.6 L 0 4.8 L 4.8 4.8 Z" stroke-width="1.2" stroke-miterlimit="10" stroke="#a55eea" fill="white" class="sc-gEvEer gvYvNY"></path><path d="M 4.8 4.8 L 9.6 4.8 L 9.6 9.6 L 4.8 9.6 M 4.8 14.4 L 9.6 14.4 L 9.6 19.2 L 4.8 19.2" stroke-width="1.2" stroke-miterlimit="10" stroke="#a55eea" fill="none" class="sc-gEvEer eWdBUR"></path></g><text x="50%" y="50%" dominant-baseline="middle" text-anchor="middle" font-weight="bold" pointer-events="none"><tspan x="50%" dy="-8" text-anchor="middle" font-size="85%">«component»</tspan><tspan x="50%" dy="18" text-anchor="middle">Matching Service</tspan></text></g></svg><svg x="925" y="325" width="170" height="70" class="User Service" fill="#ffffff"><g data-cy="uml-component"><rect width="100%" height="100%" stroke="#a55eea" fill="white" class="sc-fqkvVR eRYTco"></rect><g transform="translate(139, 7)"><path d="M 4.8 0 L 24 0 L 24 24 L 4.8 24 L 4.8 19.2 L 0 19.2 L 0 14.4 L 4.8 14.4 L 4.8 9.6 L 0 9.6 L 0 4.8 L 4.8 4.8 Z" stroke-width="1.2" stroke-miterlimit="10" stroke="#a55eea" fill="white" class="sc-gEvEer gvYvNY"></path><path d="M 4.8 4.8 L 9.6 4.8 L 9.6 9.6 L 4.8 9.6 M 4.8 14.4 L 9.6 14.4 L 9.6 19.2 L 4.8 19.2" stroke-width="1.2" stroke-miterlimit="10" stroke="#a55eea" fill="none" class="sc-gEvEer eWdBUR"></path></g><text x="50%" y="50%" dominant-baseline="middle" text-anchor="middle" font-weight="bold" pointer-events="none"><tspan x="50%" dy="-8" text-anchor="middle" font-size="85%">«component»</tspan><tspan x="50%" dy="18" text-anchor="middle">User Service</tspan></text></g></svg><svg x="665" y="325" width="170" height="70" class="GenAI Service" fill="#ffffff"><g data-cy="uml-component"><rect width="100%" height="100%" stroke="#fd9644" fill="white" class="sc-fqkvVR cciWmB"></rect><g transform="translate(139, 7)"><path d="M 4.8 0 L 24 0 L 24 24 L 4.8 24 L 4.8 19.2 L 0 19.2 L 0 14.4 L 4.8 14.4 L 4.8 9.6 L 0 9.6 L 0 4.8 L 4.8 4.8 Z" stroke-width="1.2" stroke-miterlimit="10" stroke="#fd9644" fill="white" class="sc-gEvEer eZbOPp"></path><path d="M 4.8 4.8 L 9.6 4.8 L 9.6 9.6 L 4.8 9.6 M 4.8 14.4 L 9.6 14.4 L 9.6 19.2 L 4.8 19.2" stroke-width="1.2" stroke-miterlimit="10" stroke="#fd9644" fill="none" class="sc-gEvEer fEgMFs"></path></g><text x="50%" y="50%" dominant-baseline="middle" text-anchor="middle" font-weight="bold" pointer-events="none"><tspan x="50%" dy="-8" text-anchor="middle" font-size="85%">«component»</tspan><tspan x="50%" dy="18" text-anchor="middle">GenAI Service</tspan></text></g></svg><svg x="1165" y="75" width="240" height="360" class="Database" fill="#ffffff"><g data-cy="uml-subsystem"><rect width="100%" height="100%" stroke="black" fill="white" class="sc-fqkvVR uHYUy"></rect><g transform="translate(209, 7)"><path d="M 4.8 0 L 24 0 L 24 24 L 4.8 24 L 4.8 19.2 L 0 19.2 L 0 14.4 L 4.8 14.4 L 4.8 9.6 L 0 9.6 L 0 4.8 L 4.8 4.8 Z" stroke-width="1.2" stroke-miterlimit="10" stroke="black" fill="white" class="sc-gEvEer fkqzOi"></path><path d="M 4.8 4.8 L 9.6 4.8 L 9.6 9.6 L 4.8 9.6 M 4.8 14.4 L 9.6 14.4 L 9.6 19.2 L 4.8 19.2" stroke-width="1.2" stroke-miterlimit="10" stroke="black" fill="none" class="sc-gEvEer bFSwyf"></path></g><text x="50%" y="25px" dominant-baseline="middle" text-anchor="middle" font-weight="bold" pointer-events="none"><tspan x="50%" dy="-8" text-anchor="middle" font-size="85%">«subsystem»</tspan><tspan x="50%" dy="18" text-anchor="middle">Database</tspan></text></g></svg><svg x="1205" y="135" width="170" height="70" class="Matching DB" fill="#ffffff"><g data-cy="uml-component"><rect width="100%" height="100%" stroke="#a55eea" fill="white" class="sc-fqkvVR eRYTco"></rect><g transform="translate(139, 7)"><path d="M 4.8 0 L 24 0 L 24 24 L 4.8 24 L 4.8 19.2 L 0 19.2 L 0 14.4 L 4.8 14.4 L 4.8 9.6 L 0 9.6 L 0 4.8 L 4.8 4.8 Z" stroke-width="1.2" stroke-miterlimit="10" stroke="#a55eea" fill="white" class="sc-gEvEer gvYvNY"></path><path d="M 4.8 4.8 L 9.6 4.8 L 9.6 9.6 L 4.8 9.6 M 4.8 14.4 L 9.6 14.4 L 9.6 19.2 L 4.8 19.2" stroke-width="1.2" stroke-miterlimit="10" stroke="#a55eea" fill="none" class="sc-gEvEer eWdBUR"></path></g><text x="50%" y="50%" dominant-baseline="middle" text-anchor="middle" font-weight="bold" pointer-events="none"><tspan x="50%" dy="-8" text-anchor="middle" font-size="85%">«component»</tspan><tspan x="50%" dy="18" text-anchor="middle">Matching DB</tspan></text></g></svg><svg x="1205" y="325" width="170" height="70" class="User DB" fill="#ffffff"><g data-cy="uml-component"><rect width="100%" height="100%" stroke="#a55eea" fill="white" class="sc-fqkvVR eRYTco"></rect><g transform="translate(139, 7)"><path d="M 4.8 0 L 24 0 L 24 24 L 4.8 24 L 4.8 19.2 L 0 19.2 L 0 14.4 L 4.8 14.4 L 4.8 9.6 L 0 9.6 L 0 4.8 L 4.8 4.8 Z" stroke-width="1.2" stroke-miterlimit="10" stroke="#a55eea" fill="white" class="sc-gEvEer gvYvNY"></path><path d="M 4.8 4.8 L 9.6 4.8 L 9.6 9.6 L 4.8 9.6 M 4.8 14.4 L 9.6 14.4 L 9.6 19.2 L 4.8 19.2" stroke-width="1.2" stroke-miterlimit="10" stroke="#a55eea" fill="none" class="sc-gEvEer eWdBUR"></path></g><text x="50%" y="50%" dominant-baseline="middle" text-anchor="middle" font-weight="bold" pointer-events="none"><tspan x="50%" dy="-8" text-anchor="middle" font-size="85%">«component»</tspan><tspan x="50%" dy="18" text-anchor="middle">User DB</tspan></text></g></svg><svg x="615" y="615" width="500" height="170" class="Monitoring" fill="#ffffff"><g data-cy="uml-subsystem"><rect width="100%" height="100%" stroke="black" fill="white" class="sc-fqkvVR uHYUy"></rect><g transform="translate(469, 7)"><path d="M 4.8 0 L 24 0 L 24 24 L 4.8 24 L 4.8 19.2 L 0 19.2 L 0 14.4 L 4.8 14.4 L 4.8 9.6 L 0 9.6 L 0 4.8 L 4.8 4.8 Z" stroke-width="1.2" stroke-miterlimit="10" stroke="black" fill="white" class="sc-gEvEer fkqzOi"></path><path d="M 4.8 4.8 L 9.6 4.8 L 9.6 9.6 L 4.8 9.6 M 4.8 14.4 L 9.6 14.4 L 9.6 19.2 L 4.8 19.2" stroke-width="1.2" stroke-miterlimit="10" stroke="black" fill="none" class="sc-gEvEer bFSwyf"></path></g><text x="50%" y="25px" dominant-baseline="middle" text-anchor="middle" font-weight="bold" pointer-events="none"><tspan x="50%" dy="-8" text-anchor="middle" font-size="85%">«subsystem»</tspan><tspan x="50%" dy="18" text-anchor="middle">Monitoring</tspan></text></g></svg><svg x="915" y="675" width="170" height="70" class="Grafana" fill="#ffffff"><g data-cy="uml-component"><rect width="100%" height="100%" stroke="#2bcbba" fill="white" class="sc-fqkvVR fhA-dKu"></rect><g transform="translate(139, 7)"><path d="M 4.8 0 L 24 0 L 24 24 L 4.8 24 L 4.8 19.2 L 0 19.2 L 0 14.4 L 4.8 14.4 L 4.8 9.6 L 0 9.6 L 0 4.8 L 4.8 4.8 Z" stroke-width="1.2" stroke-miterlimit="10" stroke="#2bcbba" fill="white" class="sc-gEvEer gLAHBW"></path><path d="M 4.8 4.8 L 9.6 4.8 L 9.6 9.6 L 4.8 9.6 M 4.8 14.4 L 9.6 14.4 L 9.6 19.2 L 4.8 19.2" stroke-width="1.2" stroke-miterlimit="10" stroke="#2bcbba" fill="none" class="sc-gEvEer elQKCX"></path></g><text x="50%" y="50%" dominant-baseline="middle" text-anchor="middle" font-weight="bold" pointer-events="none"><tspan x="50%" dy="-8" text-anchor="middle" font-size="85%">«component»</tspan><tspan x="50%" dy="18" text-anchor="middle">Grafana</tspan></text></g></svg><svg x="655" y="675" width="170" height="70" class="Prometheus" fill="#ffffff"><g data-cy="uml-component"><rect width="100%" height="100%" stroke="#2bcbba" fill="white" class="sc-fqkvVR fhA-dKu"></rect><g transform="translate(139, 7)"><path d="M 4.8 0 L 24 0 L 24 24 L 4.8 24 L 4.8 19.2 L 0 19.2 L 0 14.4 L 4.8 14.4 L 4.8 9.6 L 0 9.6 L 0 4.8 L 4.8 4.8 Z" stroke-width="1.2" stroke-miterlimit="10" stroke="#2bcbba" fill="white" class="sc-gEvEer gLAHBW"></path><path d="M 4.8 4.8 L 9.6 4.8 L 9.6 9.6 L 4.8 9.6 M 4.8 14.4 L 9.6 14.4 L 9.6 19.2 L 4.8 19.2" stroke-width="1.2" stroke-miterlimit="10" stroke="#2bcbba" fill="none" class="sc-gEvEer elQKCX"></path></g><text x="50%" y="50%" dominant-baseline="middle" text-anchor="middle" font-weight="bold" pointer-events="none"><tspan x="50%" dy="-8" text-anchor="middle" font-size="85%">«component»</tspan><tspan x="50%" dy="18" text-anchor="middle">Prometheus</tspan></text></g></svg><svg x="55" y="285" width="510" height="500" class="CI / CD" fill="#ffffff"><g data-cy="uml-subsystem"><rect width="100%" height="100%" stroke="black" fill="white" class="sc-fqkvVR uHYUy"></rect><g transform="translate(479, 7)"><path d="M 4.8 0 L 24 0 L 24 24 L 4.8 24 L 4.8 19.2 L 0 19.2 L 0 14.4 L 4.8 14.4 L 4.8 9.6 L 0 9.6 L 0 4.8 L 4.8 4.8 Z" stroke-width="1.2" stroke-miterlimit="10" stroke="black" fill="white" class="sc-gEvEer fkqzOi"></path><path d="M 4.8 4.8 L 9.6 4.8 L 9.6 9.6 L 4.8 9.6 M 4.8 14.4 L 9.6 14.4 L 9.6 19.2 L 4.8 19.2" stroke-width="1.2" stroke-miterlimit="10" stroke="black" fill="none" class="sc-gEvEer bFSwyf"></path></g><text x="50%" y="25px" dominant-baseline="middle" text-anchor="middle" font-weight="bold" pointer-events="none"><tspan x="50%" dy="-8" text-anchor="middle" font-size="85%">«subsystem»</tspan><tspan x="50%" dy="18" text-anchor="middle">CI / CD</tspan></text></g></svg><svg x="325" y="545" width="190" height="100" class="Rancher (Kubernetes)" fill="#ffffff"><g data-cy="uml-component"><rect width="100%" height="100%" stroke="#fd9644" fill="white" class="sc-fqkvVR cciWmB"></rect><g transform="translate(159, 7)"><path d="M 4.8 0 L 24 0 L 24 24 L 4.8 24 L 4.8 19.2 L 0 19.2 L 0 14.4 L 4.8 14.4 L 4.8 9.6 L 0 9.6 L 0 4.8 L 4.8 4.8 Z" stroke-width="1.2" stroke-miterlimit="10" stroke="#fd9644" fill="white" class="sc-gEvEer eZbOPp"></path><path d="M 4.8 4.8 L 9.6 4.8 L 9.6 9.6 L 4.8 9.6 M 4.8 14.4 L 9.6 14.4 L 9.6 19.2 L 4.8 19.2" stroke-width="1.2" stroke-miterlimit="10" stroke="#fd9644" fill="none" class="sc-gEvEer fEgMFs"></path></g><text x="50%" y="50%" dominant-baseline="middle" text-anchor="middle" font-weight="bold" pointer-events="none"><tspan x="50%" dy="-8" text-anchor="middle" font-size="85%">«component»</tspan><tspan x="50%" dy="18" text-anchor="middle">Rancher (Kubernetes)</tspan></text></g></svg><svg x="325" y="425" width="190" height="100" class="AWS (Compose)" fill="#ffffff"><g data-cy="uml-component"><rect width="100%" height="100%" stroke="#2bcbba" fill="white" class="sc-fqkvVR fhA-dKu"></rect><g transform="translate(159, 7)"><path d="M 4.8 0 L 24 0 L 24 24 L 4.8 24 L 4.8 19.2 L 0 19.2 L 0 14.4 L 4.8 14.4 L 4.8 9.6 L 0 9.6 L 0 4.8 L 4.8 4.8 Z" stroke-width="1.2" stroke-miterlimit="10" stroke="#2bcbba" fill="white" class="sc-gEvEer gLAHBW"></path><path d="M 4.8 4.8 L 9.6 4.8 L 9.6 9.6 L 4.8 9.6 M 4.8 14.4 L 9.6 14.4 L 9.6 19.2 L 4.8 19.2" stroke-width="1.2" stroke-miterlimit="10" stroke="#2bcbba" fill="none" class="sc-gEvEer elQKCX"></path></g><text x="50%" y="50%" dominant-baseline="middle" text-anchor="middle" font-weight="bold" pointer-events="none"><tspan x="50%" dy="-8" text-anchor="middle" font-size="85%">«component»</tspan><tspan x="50%" dy="18" text-anchor="middle">AWS (Compose)</tspan></text></g></svg><svg x="325" y="665" width="190" height="100" class="API Generation" fill="#ffffff"><g data-cy="uml-component"><rect width="100%" height="100%" stroke="#a55eea" fill="white" class="sc-fqkvVR eRYTco"></rect><g transform="translate(159, 7)"><path d="M 4.8 0 L 24 0 L 24 24 L 4.8 24 L 4.8 19.2 L 0 19.2 L 0 14.4 L 4.8 14.4 L 4.8 9.6 L 0 9.6 L 0 4.8 L 4.8 4.8 Z" stroke-width="1.2" stroke-miterlimit="10" stroke="#a55eea" fill="white" class="sc-gEvEer gvYvNY"></path><path d="M 4.8 4.8 L 9.6 4.8 L 9.6 9.6 L 4.8 9.6 M 4.8 14.4 L 9.6 14.4 L 9.6 19.2 L 4.8 19.2" stroke-width="1.2" stroke-miterlimit="10" stroke="#a55eea" fill="none" class="sc-gEvEer eWdBUR"></path></g><text x="50%" y="50%" dominant-baseline="middle" text-anchor="middle" font-weight="bold" pointer-events="none"><tspan x="50%" dy="-8" text-anchor="middle" font-size="85%">«component»</tspan><tspan x="50%" dy="18" text-anchor="middle">API Generation</tspan></text></g></svg><svg x="65" y="335" width="190" height="100" class="GitHub Actions" fill="#ffffff"><g data-cy="uml-component"><rect width="100%" height="100%" stroke="#a55eea" fill="white" class="sc-fqkvVR eRYTco"></rect><g transform="translate(159, 7)"><path d="M 4.8 0 L 24 0 L 24 24 L 4.8 24 L 4.8 19.2 L 0 19.2 L 0 14.4 L 4.8 14.4 L 4.8 9.6 L 0 9.6 L 0 4.8 L 4.8 4.8 Z" stroke-width="1.2" stroke-miterlimit="10" stroke="#a55eea" fill="white" class="sc-gEvEer gvYvNY"></path><path d="M 4.8 4.8 L 9.6 4.8 L 9.6 9.6 L 4.8 9.6 M 4.8 14.4 L 9.6 14.4 L 9.6 19.2 L 4.8 19.2" stroke-width="1.2" stroke-miterlimit="10" stroke="#a55eea" fill="none" class="sc-gEvEer eWdBUR"></path></g><text x="50%" y="50%" dominant-baseline="middle" text-anchor="middle" font-weight="bold" pointer-events="none"><tspan x="50%" dy="-8" text-anchor="middle" font-size="85%">«component»</tspan><tspan x="50%" dy="18" text-anchor="middle">GitHub Actions</tspan></text></g></svg><svg x="1225" y="615" width="160" height="50" class="E. Bausenhart" fill="#ffffff"><g><path d="M 0 0 L 145 0 L 160 15 L 160 50 L 0 50 L 0 0 Z" stroke-width="1.2" stroke-miterlimit="10" stroke="#2bcbba" fill="white" class="sc-gEvEer gLAHBW"></path><path d="M 145 0 L 145 15 L 160 15" stroke-width="1.2" stroke-miterlimit="10" stroke="#2bcbba" fill="none" class="sc-gEvEer elQKCX"></path><text x="80" y="25" text-anchor="middle" width="160" height="50" font-weight="bold" pointer-events="none"><tspan x="80" dy="5.5">E. Bausenhart</tspan></text></g></svg><svg x="1225" y="675" width="160" height="50" class="G. Stark" fill="#ffffff"><g><path d="M 0 0 L 145 0 L 160 15 L 160 50 L 0 50 L 0 0 Z" stroke-width="1.2" stroke-miterlimit="10" stroke="#a55eea" fill="white" class="sc-gEvEer gvYvNY"></path><path d="M 145 0 L 145 15 L 160 15" stroke-width="1.2" stroke-miterlimit="10" stroke="#a55eea" fill="none" class="sc-gEvEer eWdBUR"></path><text x="80" y="25" text-anchor="middle" width="160" height="50" font-weight="bold" pointer-events="none"><tspan x="80" dy="5.5">G. Stark</tspan></text></g></svg><svg x="1225" y="735" width="160" height="50" class="A. Korzhylova" fill="#ffffff"><g><path d="M 0 0 L 145 0 L 160 15 L 160 50 L 0 50 L 0 0 Z" stroke-width="1.2" stroke-miterlimit="10" stroke="#fd9644" fill="white" class="sc-gEvEer eZbOPp"></path><path d="M 145 0 L 145 15 L 160 15" stroke-width="1.2" stroke-miterlimit="10" stroke="#fd9644" fill="none" class="sc-gEvEer fEgMFs"></path><text x="80" y="25" text-anchor="middle" width="160" height="50" font-weight="bold" pointer-events="none"><tspan x="80" dy="5.5">A. Korzhylova</tspan></text></g></svg><svg x="275" y="170" width="390" height="1" class="" fill="#ffffff"><g><marker id="marker-f07eb39b-9ba0-4518-ae33-ad6e55194925" viewBox="0 0 30 30" markerWidth="22" markerHeight="30" refX="30" refY="15" orient="auto" markerUnits="strokeWidth"><path d="M0,29 L30,15 L0,1" stroke="black" fill="none" class="sc-gEvEer bFSwyf"></path></marker><polyline points="0 0,390 0" stroke-width="1" stroke-dasharray="7" marker-end="url(#marker-f07eb39b-9ba0-4518-ae33-ad6e55194925)" stroke="black" fill="none" class="sc-aXZVg eMElBf"></polyline></g></svg><svg x="1095" y="170" width="110" height="1" class="" fill="#ffffff"><g><marker id="marker-73254762-9c4d-4a5b-bf0d-d6e85c03ad3f" viewBox="0 0 30 30" markerWidth="22" markerHeight="30" refX="30" refY="15" orient="auto" markerUnits="strokeWidth"><path d="M0,29 L30,15 L0,1" stroke="black" fill="none" class="sc-gEvEer bFSwyf"></path></marker><polyline points="0 0,110 0" stroke-width="1" stroke-dasharray="7" marker-end="url(#marker-73254762-9c4d-4a5b-bf0d-d6e85c03ad3f)" stroke="black" fill="none" class="sc-aXZVg eMElBf"></polyline></g></svg><svg x="1095" y="360" width="110" height="1" class="" fill="#ffffff"><g><marker id="marker-feea505b-f7ef-4618-9afe-9fd7a02bf69c" viewBox="0 0 30 30" markerWidth="22" markerHeight="30" refX="30" refY="15" orient="auto" markerUnits="strokeWidth"><path d="M0,29 L30,15 L0,1" stroke="black" fill="none" class="sc-gEvEer bFSwyf"></path></marker><polyline points="0 0,110 0" stroke-width="1" stroke-dasharray="7" marker-end="url(#marker-feea505b-f7ef-4618-9afe-9fd7a02bf69c)" stroke="black" fill="none" class="sc-aXZVg eMElBf"></polyline></g></svg><svg x="1010" y="205" width="1" height="120" class="" fill="#ffffff"><g><marker id="marker-b420358b-5aae-4ddd-b10b-7e14c231f450" viewBox="0 0 30 30" markerWidth="22" markerHeight="30" refX="30" refY="15" orient="auto" markerUnits="strokeWidth"><path d="M0,29 L30,15 L0,1" stroke="black" fill="none" class="sc-gEvEer bFSwyf"></path></marker><polyline points="0 0,0 120" stroke-width="1" stroke-dasharray="7" marker-end="url(#marker-b420358b-5aae-4ddd-b10b-7e14c231f450)" stroke="black" fill="none" class="sc-aXZVg eMElBf"></polyline></g></svg><svg x="835" y="170" width="90" height="190" class="" fill="#ffffff"><g><marker id="marker-0a0f3214-6dbf-4717-a744-e31defbd4869" viewBox="0 0 30 30" markerWidth="22" markerHeight="30" refX="30" refY="15" orient="auto" markerUnits="strokeWidth"><path d="M0,29 L30,15 L0,1" stroke="black" fill="none" class="sc-gEvEer bFSwyf"></path></marker><polyline points="0 0,45 0,45 190,90 190" stroke-width="1" stroke-dasharray="7" marker-end="url(#marker-0a0f3214-6dbf-4717-a744-e31defbd4869)" stroke="black" fill="none" class="sc-aXZVg eMElBf"></polyline></g></svg><svg x="835" y="170" width="90" height="1" class="" fill="#ffffff"><g><marker id="marker-057c998e-225b-4981-82fb-76bb9a5e2d5d" viewBox="0 0 30 30" markerWidth="22" markerHeight="30" refX="30" refY="15" orient="auto" markerUnits="strokeWidth"><path d="M0,29 L30,15 L0,1" stroke="black" fill="none" class="sc-gEvEer bFSwyf"></path></marker><polyline points="0 0,90 0" stroke-width="1" stroke-dasharray="7" marker-end="url(#marker-057c998e-225b-4981-82fb-76bb9a5e2d5d)" stroke="black" fill="none" class="sc-aXZVg eMElBf"></polyline></g></svg><svg x="750" y="205" width="1" height="120" class="" fill="#ffffff"><g><marker id="marker-a12c58d6-a9b5-4552-804b-eb5899110440" viewBox="0 0 30 30" markerWidth="22" markerHeight="30" refX="30" refY="15" orient="auto" markerUnits="strokeWidth"><path d="M0,29 L30,15 L0,1" stroke="black" fill="none" class="sc-gEvEer bFSwyf"></path></marker><polyline points="0 0,0 120" stroke-width="1" stroke-dasharray="7" marker-end="url(#marker-a12c58d6-a9b5-4552-804b-eb5899110440)" stroke="black" fill="none" class="sc-aXZVg eMElBf"></polyline></g></svg><svg x="835" y="360" width="90" height="1" class="" fill="#ffffff"><g><marker id="marker-53c053a9-82de-43c0-ac40-9554f06b507c" viewBox="0 0 30 30" markerWidth="22" markerHeight="30" refX="30" refY="15" orient="auto" markerUnits="strokeWidth"><path d="M0,29 L30,15 L0,1" stroke="black" fill="none" class="sc-gEvEer bFSwyf"></path></marker><polyline points="0 0,90 0" stroke-width="1" stroke-dasharray="7" marker-end="url(#marker-53c053a9-82de-43c0-ac40-9554f06b507c)" stroke="black" fill="none" class="sc-aXZVg eMElBf"></polyline></g></svg><svg x="160" y="435" width="165" height="40" class="" fill="#ffffff"><g><marker id="marker-3fe900c1-e902-47f2-801b-aebce6ad2a78" viewBox="0 0 30 30" markerWidth="22" markerHeight="30" refX="30" refY="15" orient="auto" markerUnits="strokeWidth"><path d="M0,29 L30,15 L0,1" stroke="black" fill="none" class="sc-gEvEer bFSwyf"></path></marker><polyline points="0 0,0 40,165 40" stroke-width="1" stroke-dasharray="7" marker-end="url(#marker-3fe900c1-e902-47f2-801b-aebce6ad2a78)" stroke="black" fill="none" class="sc-aXZVg eMElBf"></polyline></g></svg><svg x="160" y="435" width="165" height="160" class="" fill="#ffffff"><g><marker id="marker-ced9e3bf-6d1a-4b22-b165-c85dcae7f0fa" viewBox="0 0 30 30" markerWidth="22" markerHeight="30" refX="30" refY="15" orient="auto" markerUnits="strokeWidth"><path d="M0,29 L30,15 L0,1" stroke="black" fill="none" class="sc-gEvEer bFSwyf"></path></marker><polyline points="0 0,0 160,165 160" stroke-width="1" stroke-dasharray="7" marker-end="url(#marker-ced9e3bf-6d1a-4b22-b165-c85dcae7f0fa)" stroke="black" fill="none" class="sc-aXZVg eMElBf"></polyline></g></svg><svg x="160" y="435" width="165" height="280" class="" fill="#ffffff"><g><marker id="marker-703c666f-d058-46bc-a102-596f5cfc0538" viewBox="0 0 30 30" markerWidth="22" markerHeight="30" refX="30" refY="15" orient="auto" markerUnits="strokeWidth"><path d="M0,29 L30,15 L0,1" stroke="black" fill="none" class="sc-gEvEer bFSwyf"></path></marker><polyline points="0 0,0 280,165 280" stroke-width="1" stroke-dasharray="7" marker-end="url(#marker-703c666f-d058-46bc-a102-596f5cfc0538)" stroke="black" fill="none" class="sc-aXZVg eMElBf"></polyline></g></svg><svg x="825" y="710" width="90" height="1" class="" fill="#ffffff"><g><marker id="marker-b488745c-4edb-4dae-bb55-9975beb782f3" viewBox="0 0 30 30" markerWidth="22" markerHeight="30" refX="30" refY="15" orient="auto" markerUnits="strokeWidth"><path d="M0,29 L30,15 L0,1" stroke="black" fill="none" class="sc-gEvEer bFSwyf"></path></marker><polyline points="0 0,90 0" stroke-width="1" stroke-dasharray="7" marker-end="url(#marker-b488745c-4edb-4dae-bb55-9975beb782f3)" stroke="black" fill="none" class="sc-aXZVg eMElBf"></polyline></g></svg><svg x="740" y="435" width="1" height="240" class="" fill="#ffffff"><g><marker id="marker-97af2cea-d986-451c-97e3-a3c3cd173cf7" viewBox="0 0 30 30" markerWidth="22" markerHeight="30" refX="30" refY="15" orient="auto" markerUnits="strokeWidth"><path d="M0,29 L30,15 L0,1" stroke="black" fill="none" class="sc-gEvEer bFSwyf"></path></marker><polyline points="0 0,0 240" stroke-width="1" stroke-dasharray="7" marker-end="url(#marker-97af2cea-d986-451c-97e3-a3c3cd173cf7)" stroke="black" fill="none" class="sc-aXZVg eMElBf"></polyline></g></svg></svg>