<svg width="1691" height="1261" xmlns="http://www.w3.org/2000/svg" xmlns:xlink="http://www.w3.org/1999/xlink" fill="#ffffff"><defs><style>
  text {
    fill: #212529;
    font-family: Helvetica Neue, Helvetica, Arial, sans-serif;
    font-size: 16px;
  }

  marker, text {
    fill-opacity: 1;
  }

  * {
    overflow: visible;
  }
</style></defs><svg x="335" y="15" width="840" height="930" class="Meet@Mensa Website" fill="#ffffff"><g><rect width="100%" height="100%" stroke="black" fill="white" class="sc-fqkvVR uHYUy"></rect><text x="50%" y="16" dominant-baseline="middle" text-anchor="middle" font-weight="bold" pointer-events="none">Meet@Mensa Website</text></g></svg><svg x="385" y="55" width="160" height="100" class="Sign in / up" fill="#ffffff"><g><ellipse cx="50%" cy="50%" rx="50%" ry="50%" stroke="black" fill="white" class="sc-kAyceB ldFMTf"></ellipse><text x="50%" y="50%" dominant-baseline="middle" text-anchor="middle" font-weight="bold" pointer-events="none">Sign in / up</text></g></svg><svg x="385" y="185" width="210" height="100" class="Create matching request" fill="#ffffff"><g><ellipse cx="50%" cy="50%" rx="50%" ry="50%" stroke="black" fill="white" class="sc-kAyceB ldFMTf"></ellipse><text x="50%" y="50%" dominant-baseline="middle" text-anchor="middle" font-weight="bold" pointer-events="none">Create matching request</text></g></svg><svg x="865" y="55" width="270" height="100" class="Setup profile" fill="#ffffff"><g><ellipse cx="50%" cy="50%" rx="50%" ry="50%" stroke="black" fill="white" class="sc-kAyceB ldFMTf"></ellipse><text x="50%" y="50%" dominant-baseline="middle" text-anchor="middle" font-weight="bold" pointer-events="none">Setup profile</text></g></svg><svg x="955" y="185" width="170" height="100" class="Select dates / times" fill="#ffffff"><g><ellipse cx="50%" cy="50%" rx="50%" ry="50%" stroke="black" fill="white" class="sc-kAyceB ldFMTf"></ellipse><text x="50%" y="50%" dominant-baseline="middle" text-anchor="middle" font-weight="bold" pointer-events="none">Select dates / times</text></g></svg><svg x="915" y="335" width="210" height="100" class="Set personal preferences" fill="#ffffff"><g><ellipse cx="50%" cy="50%" rx="50%" ry="50%" stroke="black" fill="white" class="sc-kAyceB ldFMTf"></ellipse><text x="50%" y="50%" dominant-baseline="middle" text-anchor="middle" font-weight="bold" pointer-events="none">Set personal preferences</text></g></svg><svg x="425" y="335" width="160" height="100" class="Get matched" fill="#ffffff"><g><ellipse cx="50%" cy="50%" rx="50%" ry="50%" stroke="black" fill="white" class="sc-kAyceB ldFMTf"></ellipse><text x="50%" y="50%" dominant-baseline="middle" text-anchor="middle" font-weight="bold" pointer-events="none">Get matched</text></g></svg><svg x="605" y="505" width="190" height="100" class="Confirm match (RSVP)" fill="#ffffff"><g><ellipse cx="50%" cy="50%" rx="50%" ry="50%" stroke="black" fill="white" class="sc-kAyceB ldFMTf"></ellipse><text x="50%" y="50%" dominant-baseline="middle" text-anchor="middle" font-weight="bold" pointer-events="none">Confirm match (RSVP)</text></g></svg><svg x="925" y="505" width="160" height="100" class="Add to calendar" fill="#ffffff"><g><ellipse cx="50%" cy="50%" rx="50%" ry="50%" stroke="black" fill="white" class="sc-kAyceB ldFMTf"></ellipse><text x="50%" y="50%" dominant-baseline="middle" text-anchor="middle" font-weight="bold" pointer-events="none">Add to calendar</text></g></svg><svg x="665" y="635" width="250" height="100" class="Request conversation starter" fill="#ffffff"><g><ellipse cx="50%" cy="50%" rx="50%" ry="50%" stroke="black" fill="white" class="sc-kAyceB ldFMTf"></ellipse><text x="50%" y="50%" dominant-baseline="middle" text-anchor="middle" font-weight="bold" pointer-events="none">Request conversation starter</text></g></svg><svg x="655" y="835" width="260" height="100" class="Generate &quot;ice-breaker&quot; prompts" fill="#ffffff"><g><ellipse cx="50%" cy="50%" rx="50%" ry="50%" stroke="black" fill="white" class="sc-kAyceB ldFMTf"></ellipse><text x="50%" y="50%" dominant-baseline="middle" text-anchor="middle" font-weight="bold" pointer-events="none">Generate "ice-breaker" prompts</text></g></svg><svg x="15" y="525" width="80" height="140" class="Student" fill="#ffffff"><g><rect width="100%" height="100%" fill="none"></rect><g stroke="black" stroke-width="2"><circle cx="40" cy="25" r="15" stroke="black" fill="white" class="sc-iGgWBj fYmGgq"></circle><line x1="40" y1="40" x2="40" y2="80" stroke="black" class="sc-imWYAI kESMEa"></line><line x1="10" y1="50" x2="70" y2="50" stroke="black" class="sc-imWYAI kESMEa"></line><line x1="40" y1="80" x2="10" y2="110" stroke="black" class="sc-imWYAI kESMEa"></line><line x1="40" y1="80" x2="70" y2="110" stroke="black" class="sc-imWYAI kESMEa"></line></g><text x="40" y="130" dominant-baseline="middle" text-anchor="middle" font-weight="bold" pointer-events="none">Student</text></g></svg><svg x="1595" y="545" width="80" height="140" class="Other Students" fill="#ffffff"><g><rect width="100%" height="100%" fill="none"></rect><g stroke="black" stroke-width="2"><circle cx="40" cy="25" r="15" stroke="black" fill="white" class="sc-iGgWBj fYmGgq"></circle><line x1="40" y1="40" x2="40" y2="80" stroke="black" class="sc-imWYAI kESMEa"></line><line x1="10" y1="50" x2="70" y2="50" stroke="black" class="sc-imWYAI kESMEa"></line><line x1="40" y1="80" x2="10" y2="110" stroke="black" class="sc-imWYAI kESMEa"></line><line x1="40" y1="80" x2="70" y2="110" stroke="black" class="sc-imWYAI kESMEa"></line></g><text x="40" y="130" dominant-baseline="middle" text-anchor="middle" font-weight="bold" pointer-events="none">Other Students</text></g></svg><svg x="745" y="975" width="80" height="140" class="Meet@Mensa GenAI Helper" fill="#ffffff"><g><rect width="100%" height="100%" fill="none"></rect><g stroke="black" stroke-width="2"><circle cx="40" cy="25" r="15" stroke="black" fill="white" class="sc-iGgWBj fYmGgq"></circle><line x1="40" y1="40" x2="40" y2="80" stroke="black" class="sc-imWYAI kESMEa"></line><line x1="10" y1="50" x2="70" y2="50" stroke="black" class="sc-imWYAI kESMEa"></line><line x1="40" y1="80" x2="10" y2="110" stroke="black" class="sc-imWYAI kESMEa"></line><line x1="40" y1="80" x2="70" y2="110" stroke="black" class="sc-imWYAI kESMEa"></line></g><text x="40" y="130" dominant-baseline="middle" text-anchor="middle" font-weight="bold" pointer-events="none">Meet@Mensa GenAI Helper</text></g></svg><svg x="705" y="1145" width="160" height="100" class="Meetup For Lunch" fill="#ffffff"><g><ellipse cx="50%" cy="50%" rx="50%" ry="50%" stroke="black" fill="white" class="sc-kAyceB ldFMTf"></ellipse><text x="50%" y="50%" dominant-baseline="middle" text-anchor="middle" font-weight="bold" pointer-events="none">Meetup For Lunch</text></g></svg><svg x="545" y="105" width="320" height="1" class="" fill="#ffffff"><g><g><marker id="marker-a7a8823e-60a0-4526-9345-3e9f48094b66" viewBox="0 0 30 30" markerWidth="22" markerHeight="30" refX="30" refY="15" orient="auto" markerUnits="strokeWidth"><path d="M0,29 L30,15 L0,1" stroke="black" fill="none" class="sc-gEvEer bFSwyf"></path></marker><path d="
          M 320 0 L 200 0
          M 120 0 L 0 0
        " stroke-dasharray="7" marker-end="url(#marker-a7a8823e-60a0-4526-9345-3e9f48094b66)" stroke="black" fill="white" class="sc-gEvEer fkqzOi"></path></g><path id="textpath-a7a8823e-60a0-4526-9345-3e9f48094b66" d="
          M 200 0
          L 120 0
        "></path><text dominant-baseline="middle" text-anchor="middle" font-weight="bold" pointer-events="none" transform="
              translate(160, 0)
              rotate(180)
              translate(-160, 0)
            "><textPath xlink:href="#textpath-a7a8823e-60a0-4526-9345-3e9f48094b66" startOffset="50%">«extend»</textPath></text></g></svg><svg x="95" y="105" width="290" height="490" class="" fill="#ffffff"><g><path id="textpath-9cbb0a30-b85f-4b52-ac09-e79d1f4a69ca" d="
        M 290 -10
        L 0 480
    "></path><text dominant-baseline="middle" text-anchor="middle" font-weight="bold" pointer-events="none" dy="20px" transform="
            translate(145, 245)
            rotate(180)
            translate(-145, -245)
          "><textPath xlink:href="#textpath-9cbb0a30-b85f-4b52-ac09-e79d1f4a69ca" startOffset="50%"></textPath></text><polyline points="290 0,0 490" stroke-width="1" stroke="black" fill="none" class="sc-aXZVg eMElBf"></polyline></g></svg><svg x="95" y="235" width="290" height="360" class="" fill="#ffffff"><g><path id="textpath-5c3aa138-8bd7-43d1-8d2e-73748e63ea4a" d="
        M 290 -10
        L 0 350
    "></path><text dominant-baseline="middle" text-anchor="middle" font-weight="bold" pointer-events="none" dy="20px" transform="
            translate(145, 180)
            rotate(180)
            translate(-145, -180)
          "><textPath xlink:href="#textpath-5c3aa138-8bd7-43d1-8d2e-73748e63ea4a" startOffset="50%"></textPath></text><polyline points="290 0,0 360" stroke-width="1" stroke="black" fill="none" class="sc-aXZVg eMElBf"></polyline></g></svg><svg x="595" y="235" width="320" height="150" class="" fill="#ffffff"><g><g><marker id="marker-49a48e80-f9df-4556-8614-efa8bcd51207" viewBox="0 0 30 30" markerWidth="22" markerHeight="30" refX="30" refY="15" orient="auto" markerUnits="strokeWidth"><path d="M0,29 L30,15 L0,1" stroke="black" fill="none" class="sc-gEvEer bFSwyf"></path></marker><path d="
          M 320 150 L 196.21835743835476 91.97735504922878
          M 123.78164256164526 58.022644950771216 L 0 0
        " stroke-dasharray="7" marker-end="url(#marker-49a48e80-f9df-4556-8614-efa8bcd51207)" stroke="black" fill="white" class="sc-gEvEer fkqzOi"></path></g><path id="textpath-49a48e80-f9df-4556-8614-efa8bcd51207" d="
          M 196.21835743835476 91.97735504922878
          L 123.78164256164526 58.022644950771216
        "></path><text dominant-baseline="middle" text-anchor="middle" font-weight="bold" pointer-events="none" transform="
              translate(160, 75)
              rotate(180)
              translate(-160, -75)
            "><textPath xlink:href="#textpath-49a48e80-f9df-4556-8614-efa8bcd51207" startOffset="50%">«extend»</textPath></text></g></svg><svg x="95" y="385" width="330" height="210" class="" fill="#ffffff"><g><path id="textpath-8541e7b8-869a-4fce-8f28-567c01a2601b" d="
        M 330 -10
        L 0 200
    "></path><text dominant-baseline="middle" text-anchor="middle" font-weight="bold" pointer-events="none" dy="20px" transform="
            translate(165, 105)
            rotate(180)
            translate(-165, -105)
          "><textPath xlink:href="#textpath-8541e7b8-869a-4fce-8f28-567c01a2601b" startOffset="50%"></textPath></text><polyline points="330 0,0 210" stroke-width="1" stroke="black" fill="none" class="sc-aXZVg eMElBf"></polyline></g></svg><svg x="585" y="385" width="1010" height="230" class="" fill="#ffffff"><g><path id="textpath-4ced633e-71f6-4507-a395-f46c4aa8a75f" d="
        M 0 -10
        L 1010 220
    "></path><text dominant-baseline="middle" text-anchor="middle" font-weight="bold" pointer-events="none" dy="20px"><textPath xlink:href="#textpath-4ced633e-71f6-4507-a395-f46c4aa8a75f" startOffset="50%"></textPath></text><polyline points="0 0,1010 230" stroke-width="1" stroke="black" fill="none" class="sc-aXZVg eMElBf"></polyline></g></svg><svg x="505" y="435" width="100" height="120" class="" fill="#ffffff"><g><g><marker id="marker-9ab0c475-4cfb-4af7-b038-6d171d192d79" viewBox="0 0 30 30" markerWidth="22" markerHeight="30" refX="30" refY="15" orient="auto" markerUnits="strokeWidth"><path d="M0,29 L30,15 L0,1" stroke="black" fill="none" class="sc-gEvEer bFSwyf"></path></marker><path d="
          M 0 0 L 24.392624013420804 29.271148816104965
          M 75.6073759865792 90.72885118389503 L 100 120
        " stroke-dasharray="7" marker-end="url(#marker-9ab0c475-4cfb-4af7-b038-6d171d192d79)" stroke="black" fill="white" class="sc-gEvEer fkqzOi"></path></g><path id="textpath-9ab0c475-4cfb-4af7-b038-6d171d192d79" d="
          M 24.392624013420804 29.271148816104965
          L 75.6073759865792 90.72885118389503
        "></path><text dominant-baseline="middle" text-anchor="middle" font-weight="bold" pointer-events="none"><textPath xlink:href="#textpath-9ab0c475-4cfb-4af7-b038-6d171d192d79" startOffset="50%">«include»</textPath></text></g></svg><svg x="95" y="595" width="610" height="600" class="" fill="#ffffff"><g><path id="textpath-f694eda1-65a7-452b-aa29-25534419cf7f" d="
        M 610 590
        L 0 -10
    "></path><text dominant-baseline="middle" text-anchor="middle" font-weight="bold" pointer-events="none" dy="20px" transform="
            translate(305, 300)
            rotate(180)
            translate(-305, -300)
          "><textPath xlink:href="#textpath-f694eda1-65a7-452b-aa29-25534419cf7f" startOffset="50%"></textPath></text><polyline points="610 600,0 0" stroke-width="1" stroke="black" fill="none" class="sc-aXZVg eMElBf"></polyline></g></svg><svg x="865" y="615" width="730" height="580" class="" fill="#ffffff"><g><path id="textpath-3a0e21a6-50cd-43f0-bc22-8093c400c4c5" d="
        M 0 570
        L 730 -10
    "></path><text dominant-baseline="middle" text-anchor="middle" font-weight="bold" pointer-events="none" dy="20px"><textPath xlink:href="#textpath-3a0e21a6-50cd-43f0-bc22-8093c400c4c5" startOffset="50%"></textPath></text><polyline points="0 580,730 0" stroke-width="1" stroke="black" fill="none" class="sc-aXZVg eMElBf"></polyline></g></svg><svg x="95" y="595" width="570" height="90" class="" fill="#ffffff"><g><path id="textpath-03d45fc8-f242-4341-9eb7-936e1f11a5b5" d="
        M 570 80
        L 0 -10
    "></path><text dominant-baseline="middle" text-anchor="middle" font-weight="bold" pointer-events="none" dy="20px" transform="
            translate(285, 45)
            rotate(180)
            translate(-285, -45)
          "><textPath xlink:href="#textpath-03d45fc8-f242-4341-9eb7-936e1f11a5b5" startOffset="50%"></textPath></text><polyline points="570 90,0 0" stroke-width="1" stroke="black" fill="none" class="sc-aXZVg eMElBf"></polyline></g></svg><svg x="915" y="615" width="680" height="70" class="" fill="#ffffff"><g><path id="textpath-ba158c95-62ff-4a82-bc88-ccb0eab88c56" d="
        M 0 60
        L 680 -10
    "></path><text dominant-baseline="middle" text-anchor="middle" font-weight="bold" pointer-events="none" dy="20px"><textPath xlink:href="#textpath-ba158c95-62ff-4a82-bc88-ccb0eab88c56" startOffset="50%"></textPath></text><polyline points="0 70,680 0" stroke-width="1" stroke="black" fill="none" class="sc-aXZVg eMElBf"></polyline></g></svg><svg x="785" y="935" width="1" height="40" class="" fill="#ffffff"><g><path id="textpath-64408737-3742-4f46-b11a-6e5df2a7b7bb" d="
        M 0 30
        L 0 -10
    "></path><text dominant-baseline="middle" text-anchor="middle" font-weight="bold" pointer-events="none" dy="20px"><textPath xlink:href="#textpath-64408737-3742-4f46-b11a-6e5df2a7b7bb" startOffset="50%"></textPath></text><polyline points="0 40,0 0" stroke-width="1" stroke="black" fill="none" class="sc-aXZVg eMElBf"></polyline></g></svg><svg x="595" y="235" width="360" height="1" class="" fill="#ffffff"><g><g><marker id="marker-0c4832a3-ef1f-48b9-b004-457805f38319" viewBox="0 0 30 30" markerWidth="22" markerHeight="30" refX="30" refY="15" orient="auto" markerUnits="strokeWidth"><path d="M0,29 L30,15 L0,1" stroke="black" fill="none" class="sc-gEvEer bFSwyf"></path></marker><path d="
          M 0 0 L 140 0
          M 220 0 L 360 0
        " stroke-dasharray="7" marker-end="url(#marker-0c4832a3-ef1f-48b9-b004-457805f38319)" stroke="black" fill="white" class="sc-gEvEer fkqzOi"></path></g><path id="textpath-0c4832a3-ef1f-48b9-b004-457805f38319" d="
          M 140 0
          L 220 0
        "></path><text dominant-baseline="middle" text-anchor="middle" font-weight="bold" pointer-events="none"><textPath xlink:href="#textpath-0c4832a3-ef1f-48b9-b004-457805f38319" startOffset="50%">«include»</textPath></text></g></svg><svg x="785" y="735" width="5" height="100" class="" fill="#ffffff"><g><g><marker id="marker-36c50e06-1be0-42e4-a801-9db0d84bb3f8" viewBox="0 0 30 30" markerWidth="22" markerHeight="30" refX="30" refY="15" orient="auto" markerUnits="strokeWidth"><path d="M0,29 L30,15 L0,1" stroke="black" fill="none" class="sc-gEvEer bFSwyf"></path></marker><path d="
          M 5 0 L 4.497504677755689 10.049906444886211
          M 0.5024953222443106 89.9500935551138 L 0 100
        " stroke-dasharray="7" marker-end="url(#marker-36c50e06-1be0-42e4-a801-9db0d84bb3f8)" stroke="black" fill="white" class="sc-gEvEer fkqzOi"></path></g><path id="textpath-36c50e06-1be0-42e4-a801-9db0d84bb3f8" d="
          M 4.497504677755689 10.049906444886211
          L 0.5024953222443106 89.9500935551138
        "></path><text dominant-baseline="middle" text-anchor="middle" font-weight="bold" pointer-events="none" transform="
              translate(2.5, 50)
              rotate(180)
              translate(-2.5, -50)
            "><textPath xlink:href="#textpath-36c50e06-1be0-42e4-a801-9db0d84bb3f8" startOffset="50%">«include»</textPath></text></g></svg><svg x="795" y="555" width="130" height="1" class="" fill="#ffffff"><g><g><marker id="marker-73f58e00-1cf1-4d22-8e06-31ce6589cce4" viewBox="0 0 30 30" markerWidth="22" markerHeight="30" refX="30" refY="15" orient="auto" markerUnits="strokeWidth"><path d="M0,29 L30,15 L0,1" stroke="black" fill="none" class="sc-gEvEer bFSwyf"></path></marker><path d="
          M 130 0 L 105 0
          M 25 0 L 0 0
        " stroke-dasharray="7" marker-end="url(#marker-73f58e00-1cf1-4d22-8e06-31ce6589cce4)" stroke="black" fill="white" class="sc-gEvEer fkqzOi"></path></g><path id="textpath-73f58e00-1cf1-4d22-8e06-31ce6589cce4" d="
          M 105 0
          L 25 0
        "></path><text dominant-baseline="middle" text-anchor="middle" font-weight="bold" pointer-events="none" transform="
              translate(65, 0)
              rotate(180)
              translate(-65, 0)
            "><textPath xlink:href="#textpath-73f58e00-1cf1-4d22-8e06-31ce6589cce4" startOffset="50%">«extend»</textPath></text></g></svg></svg>